<svg width="204" height="60" viewBox="0 0 204 60" fill="none" xmlns="http://www.w3.org/2000/svg">
<path d="M196.187 59.2506H7.67214C3.85012 59.2506 0.758789 56.1593 0.758789 52.3372V7.67214C0.758789 3.85012 3.85949 0.758789 7.67214 0.758789H196.187C200.009 0.758789 203.101 3.85949 203.101 7.67214V52.3279C203.101 56.1499 200 59.2506 196.187 59.2506Z" fill="black"/>
<path d="M196.187 60H7.67213C3.43794 60 0 56.5621 0 52.3279V7.67213C0 3.43794 3.43794 0 7.67213 0H196.187C200.422 0 203.859 3.43794 203.859 7.67213V52.3279C203.85 56.5621 200.412 60 196.187 60ZM7.67213 1.51756C4.27166 1.51756 1.51756 4.28103 1.51756 7.67213V52.3279C1.51756 55.7283 4.28103 58.4824 7.67213 58.4824H196.187C199.588 58.4824 202.342 55.719 202.342 52.3279V7.67213C202.342 4.27166 199.578 1.51756 196.187 1.51756H7.67213Z" fill="#A7A9AC"/>
<path d="M67.8689 17.0583L67.0164 19.8499H65.1616L68.3185 9.99512H70.6136L73.8174 19.8593H71.8876L70.9977 17.0677H67.8689V17.0583ZM70.6886 15.7L69.911 13.2738C69.7237 12.6743 69.5644 11.9998 69.4145 11.4284H69.3864C69.2366 11.9998 69.096 12.6836 68.9181 13.2738L68.1593 15.7H70.6886Z" fill="white"/>
<path d="M76.5059 12.731L77.6581 16.3469C77.8642 16.9745 78.0047 17.5459 78.1452 18.1267H78.1921C78.3232 17.5459 78.4825 16.9839 78.6792 16.3469L79.822 12.731H81.7049L78.9883 19.8504H77.2178L74.5668 12.731H76.5059Z" fill="white"/>
<path d="M88.8806 18.1451C88.8806 18.7914 88.9087 19.4191 89.0024 19.8593H87.3818L87.2506 19.0725H87.2038C86.7822 19.6252 86.0328 20.0186 85.0961 20.0186C83.6628 20.0186 82.8572 18.9788 82.8572 17.9015C82.8572 16.1216 84.4497 15.1942 87.082 15.213V15.0912C87.082 14.6228 86.8947 13.8453 85.63 13.8453C84.9274 13.8453 84.1968 14.0608 83.719 14.3699L83.3724 13.1989C83.897 12.8804 84.8244 12.5713 85.9485 12.5713C88.2342 12.5713 88.89 14.0233 88.89 15.5877V18.1451H88.8806ZM87.1195 16.3746C85.8455 16.3558 84.637 16.6275 84.637 17.7048C84.637 18.4074 85.0867 18.7259 85.6581 18.7259C86.3888 18.7259 86.904 18.2575 87.0726 17.7422C87.1195 17.6205 87.1195 17.4893 87.1195 17.3582V16.3746Z" fill="white"/>
<path d="M92.3091 11.7097C91.7096 11.7097 91.3162 11.2694 91.3162 10.7448C91.3162 10.1921 91.7283 9.76123 92.3279 9.76123C92.9461 9.76123 93.3208 10.1828 93.3396 10.7448C93.3396 11.2694 92.9461 11.7097 92.3279 11.7097H92.3091ZM91.4192 19.8596V12.7402H93.2178V19.8596H91.4192Z" fill="white"/>
<path d="M95.8032 9.46143H97.6018V19.8596H95.8032V9.46143Z" fill="white"/>
<path d="M105.733 18.1451C105.733 18.7914 105.761 19.4191 105.845 19.8593H104.225L104.094 19.0725H104.047C103.625 19.6252 102.876 20.0186 101.939 20.0186C100.506 20.0186 99.7002 18.9788 99.7002 17.9015C99.7002 16.1216 101.293 15.1942 103.925 15.213V15.0912C103.925 14.6228 103.738 13.8453 102.482 13.8453C101.78 13.8453 101.049 14.0608 100.571 14.3699L100.225 13.1989C100.749 12.8804 101.677 12.5713 102.801 12.5713C105.077 12.5713 105.742 14.0233 105.742 15.5877V18.1451H105.733ZM103.972 16.3746C102.698 16.3558 101.489 16.6275 101.489 17.7048C101.489 18.4074 101.939 18.7259 102.51 18.7259C103.241 18.7259 103.756 18.2575 103.925 17.7422C103.972 17.6111 103.972 17.48 103.972 17.3488V16.3746Z" fill="white"/>
<path d="M108.272 9.46143H110.07V13.7144H110.098C110.539 13.0305 111.316 12.5715 112.384 12.5715C114.126 12.5715 115.363 14.0235 115.354 16.1874C115.354 18.7448 113.733 20.0188 112.122 20.0188C111.204 20.0188 110.379 19.6628 109.874 18.7916H109.845L109.761 19.8596H108.225C108.253 19.3724 108.281 18.5855 108.281 17.8736V9.46143H108.272ZM110.07 16.9181C110.07 17.068 110.089 17.2085 110.117 17.3396C110.304 18.0703 110.932 18.5949 111.71 18.5949C112.834 18.5949 113.527 17.705 113.527 16.253C113.527 14.9977 112.927 13.9766 111.728 13.9766C110.998 13.9766 110.323 14.5012 110.136 15.2881C110.108 15.4193 110.08 15.5785 110.08 15.7565V16.9181H110.07Z" fill="white"/>
<path d="M117.471 9.46143H119.269V19.8596H117.471V9.46143Z" fill="white"/>
<path d="M123.138 16.7961C123.185 18.0795 124.187 18.6415 125.33 18.6415C126.164 18.6415 126.745 18.5104 127.307 18.323L127.569 19.5502C126.951 19.8125 126.108 19.9999 125.087 19.9999C122.773 19.9999 121.415 18.5853 121.415 16.4027C121.415 14.4261 122.614 12.5713 124.899 12.5713C127.213 12.5713 127.972 14.4729 127.972 16.0373C127.972 16.3746 127.944 16.6369 127.916 16.7961H123.138ZM126.267 15.5408C126.286 14.8851 125.986 13.7985 124.787 13.7985C123.672 13.7985 123.204 14.8102 123.138 15.5408H126.267Z" fill="white"/>
<path d="M136.843 20.0186C134.838 20.0186 133.274 18.6415 133.274 16.3465C133.274 14.0045 134.81 12.5713 136.956 12.5713C139.073 12.5713 140.497 14.0608 140.497 16.2247C140.497 18.8383 138.651 20.0092 136.852 20.0092H136.843V20.0186ZM136.899 18.7165C137.92 18.7165 138.642 17.7235 138.642 16.2715C138.642 15.1568 138.145 13.8734 136.918 13.8734C135.644 13.8734 135.129 15.1193 135.129 16.2996C135.129 17.6767 135.813 18.7165 136.881 18.7165H136.899Z" fill="white"/>
<path d="M142.614 14.8574C142.614 14.0424 142.585 13.3492 142.557 12.7403H144.122L144.206 13.8082H144.253C144.571 13.2555 145.349 12.5811 146.539 12.5811C147.785 12.5811 149.068 13.3867 149.068 15.6349V19.8597H147.269V15.8316C147.269 14.8106 146.885 14.033 145.911 14.033C145.199 14.033 144.703 14.5483 144.506 15.0822C144.45 15.2321 144.422 15.4476 144.422 15.6537V19.8504H142.623V14.8574H142.614Z" fill="white"/>
<path d="M157.349 10.9043V12.731H159.063V14.0799H157.349V17.2087C157.349 18.0893 157.583 18.5202 158.267 18.5202C158.586 18.5202 158.763 18.5015 158.97 18.4453L158.998 19.8036C158.735 19.9066 158.248 19.9909 157.696 19.9909C157.021 19.9909 156.487 19.7755 156.15 19.4102C155.756 18.998 155.578 18.3422 155.578 17.4055V14.0706H154.567V12.7216H155.578V11.3914L157.349 10.9043Z" fill="white"/>
<path d="M161.059 9.46143H162.857V13.705H162.885C163.101 13.3677 163.41 13.0867 163.775 12.8994C164.141 12.6933 164.562 12.5809 165.021 12.5809C166.23 12.5809 167.504 13.3865 167.504 15.6628V19.8596H165.705V15.8502C165.705 14.8291 165.321 14.0329 164.328 14.0329C163.625 14.0329 163.129 14.5012 162.923 15.0446C162.867 15.2038 162.848 15.4005 162.848 15.5879V19.8596H161.049V9.46143H161.059Z" fill="white"/>
<path d="M171.335 16.7961C171.382 18.0795 172.384 18.6415 173.527 18.6415C174.361 18.6415 174.941 18.5104 175.503 18.323L175.766 19.5502C175.148 19.8125 174.304 19.9999 173.283 19.9999C170.97 19.9999 169.611 18.5853 169.611 16.4027C169.611 14.4261 170.81 12.5713 173.096 12.5713C175.41 12.5713 176.169 14.4729 176.169 16.0373C176.169 16.3746 176.14 16.6369 176.112 16.7961H171.335ZM174.464 15.5408C174.482 14.8851 174.183 13.7985 172.984 13.7985C171.869 13.7985 171.4 14.8102 171.335 15.5408H174.464Z" fill="white"/>
<path d="M45.4988 29.4146C45.452 24.534 49.4894 22.164 49.6768 22.0516C47.3911 18.7167 43.8407 18.2576 42.5948 18.2202C39.6159 17.911 36.7307 20 35.2131 20C33.6674 20 31.3255 18.2483 28.815 18.2951C25.5738 18.3513 22.548 20.2249 20.8805 23.1288C17.452 29.068 20.0093 37.7893 23.2974 42.5949C24.9461 44.9462 26.8665 47.5691 29.377 47.4754C31.8314 47.3724 32.7494 45.911 35.7189 45.911C38.6604 45.911 39.5222 47.4754 42.089 47.4192C44.7307 47.3724 46.3887 45.0586 47.9719 42.6886C49.8735 39.9907 50.6323 37.3396 50.6698 37.2085C50.6042 37.1991 45.5456 35.26 45.4988 29.4146Z" fill="white"/>
<path d="M40.6463 15.0729C41.9672 13.4148 42.8758 11.1666 42.6229 8.88086C40.7119 8.96517 38.3138 10.2017 36.9367 11.8223C35.7189 13.2462 34.6229 15.5881 34.9039 17.7802C37.0679 17.9488 39.2693 16.7029 40.6463 15.0729Z" fill="white"/>
<path d="M81.0398 47.1009H77.6112L75.7377 41.1993H69.2178L67.4285 47.1009H64.0936L70.5573 27.0166H74.548L81.0398 47.1009ZM75.1756 38.7262L73.48 33.4803C73.3021 32.9463 72.9648 31.6817 72.4683 29.6958H72.4121C72.2154 30.5482 71.8969 31.8129 71.4566 33.4803L69.7892 38.7262H75.1756Z" fill="white"/>
<path d="M97.6675 39.6818C97.6675 42.1455 97.0024 44.094 95.6722 45.5179C94.4825 46.7919 93.0024 47.4195 91.2319 47.4195C89.3209 47.4195 87.9532 46.7357 87.1195 45.368H87.0633V52.9933H83.8408V37.3868C83.8408 35.8411 83.8033 34.2486 83.719 32.6186H86.548L86.726 34.9137H86.7916C87.8595 33.1807 89.4895 32.3188 91.6722 32.3188C93.3771 32.3188 94.8103 32.9933 95.9438 34.3423C97.096 35.7099 97.6675 37.4804 97.6675 39.6818ZM94.3888 39.8036C94.3888 38.3985 94.0703 37.2275 93.4333 36.3188C92.7401 35.3633 91.8033 34.8856 90.6323 34.8856C89.8361 34.8856 89.1148 35.1479 88.4684 35.6725C87.822 36.2064 87.4005 36.8903 87.2038 37.7427C87.1007 38.1362 87.0539 38.464 87.0539 38.7263V41.1432C87.0539 42.1924 87.3724 43.0823 88.0188 43.8036C88.6651 44.5343 89.5082 44.8903 90.5387 44.8903C91.7471 44.8903 92.6932 44.4313 93.3677 43.4945C94.0515 42.5671 94.3888 41.3306 94.3888 39.8036Z" fill="white"/>
<path d="M114.323 39.6818C114.323 42.1455 113.658 44.094 112.328 45.5179C111.138 46.7919 109.658 47.4195 107.888 47.4195C105.986 47.4195 104.609 46.7357 103.775 45.368H103.719V52.9933H100.506V37.3868C100.506 35.8411 100.468 34.2486 100.384 32.6186H103.213L103.391 34.9137H103.457C104.525 33.1807 106.155 32.3188 108.337 32.3188C110.042 32.3188 111.466 32.9933 112.609 34.3423C113.752 35.7099 114.323 37.4804 114.323 39.6818ZM111.044 39.8036C111.044 38.3985 110.726 37.2275 110.089 36.3188C109.396 35.3633 108.459 34.8856 107.288 34.8856C106.492 34.8856 105.77 35.1479 105.124 35.6725C104.478 36.2064 104.056 36.8903 103.859 37.7427C103.756 38.1362 103.71 38.464 103.71 38.7263V41.1432C103.71 42.1924 104.028 43.0823 104.674 43.8036C105.321 44.5343 106.155 44.8903 107.194 44.8903C108.403 44.8903 109.349 44.4313 110.023 43.4945C110.707 42.5671 111.044 41.3306 111.044 39.8036Z" fill="white"/>
<path d="M132.946 41.4712C132.946 43.1761 132.356 44.5719 131.157 45.6398C129.845 46.8108 128.028 47.4009 125.686 47.4009C123.522 47.4009 121.789 46.9888 120.478 46.155L121.227 43.4759C122.642 44.3283 124.187 44.7593 125.883 44.7593C127.091 44.7593 128.037 44.4876 128.712 43.9443C129.386 43.3916 129.724 42.6609 129.724 41.7522C129.724 40.9372 129.443 40.2534 128.89 39.6913C128.337 39.1293 127.41 38.6141 126.117 38.1363C122.604 36.8248 120.843 34.9045 120.843 32.3752C120.843 30.7265 121.461 29.3682 122.689 28.319C123.916 27.2604 125.555 26.7358 127.607 26.7358C129.433 26.7358 130.951 27.0543 132.159 27.6913L131.354 30.3143C130.22 29.696 128.937 29.3869 127.513 29.3869C126.379 29.3869 125.499 29.6679 124.862 30.2206C124.328 30.7171 124.056 31.326 124.056 32.0379C124.056 32.8342 124.365 33.4899 124.974 34.0052C125.508 34.4829 126.482 34.9981 127.897 35.5602C129.621 36.2534 130.895 37.0684 131.71 38.0052C132.534 38.9232 132.946 40.0848 132.946 41.4712Z" fill="white"/>
<path d="M143.578 35.0356H140.037V42.0708C140.037 43.86 140.665 44.7499 141.92 44.7499C142.492 44.7499 142.969 44.7031 143.344 44.6L143.428 47.045C142.801 47.2792 141.958 47.401 140.927 47.401C139.653 47.401 138.66 47.0169 137.948 46.2394C137.236 45.4619 136.871 44.1597 136.871 42.333V35.0356H134.754V32.6188H136.871V29.9677L140.028 29.0122V32.6188H143.569V35.0356H143.578Z" fill="white"/>
<path d="M159.578 39.7473C159.578 41.9768 158.941 43.8035 157.677 45.2274C156.347 46.6981 154.576 47.4288 152.375 47.4288C150.248 47.4288 148.553 46.7263 147.297 45.3117C146.033 43.9066 145.405 42.1267 145.405 39.9815C145.405 37.7333 146.052 35.8972 147.354 34.4733C148.656 33.0401 150.407 32.3281 152.609 32.3281C154.735 32.3281 156.44 33.0307 157.733 34.4452C158.97 35.8129 159.578 37.5834 159.578 39.7473ZM156.244 39.8504C156.244 38.5202 155.953 37.3679 155.382 36.4124C154.707 35.2602 153.742 34.6794 152.496 34.6794C151.204 34.6794 150.22 35.2602 149.546 36.4124C148.965 37.3679 148.684 38.5295 148.684 39.9066C148.684 41.2368 148.965 42.389 149.546 43.3445C150.239 44.4967 151.213 45.0775 152.468 45.0775C153.696 45.0775 154.66 44.4874 155.354 43.3164C155.944 42.3422 156.244 41.1806 156.244 39.8504Z" fill="white"/>
<path d="M170.033 35.4569C169.714 35.4007 169.377 35.3726 169.021 35.3726C167.888 35.3726 167.016 35.8035 166.398 36.656C165.864 37.4148 165.593 38.3609 165.593 39.5131V47.1103H162.379L162.408 37.19C162.408 35.5225 162.37 34.0049 162.286 32.6279H165.087L165.208 35.4007H165.293C165.63 34.4452 166.173 33.6771 166.904 33.1056C167.616 32.5904 168.393 32.3281 169.227 32.3281C169.527 32.3281 169.789 32.3469 170.033 32.3843V35.4569Z" fill="white"/>
<path d="M184.422 39.1757C184.422 39.7565 184.384 40.2342 184.309 40.637H174.66C174.698 42.0703 175.166 43.1569 176.056 43.9157C176.871 44.5902 177.92 44.9274 179.213 44.9274C180.637 44.9274 181.939 44.7026 183.119 44.2436L183.625 46.4825C182.258 47.082 180.637 47.3818 178.763 47.3818C176.525 47.3818 174.754 46.7167 173.48 45.3958C172.206 44.075 171.56 42.3045 171.56 40.075C171.56 37.8923 172.159 36.075 173.349 34.623C174.595 33.0773 176.29 32.2998 178.407 32.2998C180.496 32.2998 182.08 33.0773 183.148 34.623C184 35.8502 184.422 37.3677 184.422 39.1757ZM181.358 38.342C181.377 37.3865 181.171 36.5621 180.731 35.8689C180.178 34.979 179.316 34.5293 178.164 34.5293C177.115 34.5293 176.262 34.9696 175.607 35.8408C175.073 36.534 174.754 37.3677 174.66 38.342H181.358Z" fill="white"/>
</svg>
