<svg width="148" height="140" viewBox="0 0 148 140" fill="none" xmlns="http://www.w3.org/2000/svg">
<path opacity="0.5" d="M23.7309 33.2508C12.4145 31.8897 -1.78742 44.9564 0.581057 67.5773C3.83808 98.6884 27.4396 112.07 48.0932 116.988C68.7467 121.907 97.4537 117.401 115.409 106.073C133.364 94.7449 147.168 76.9056 147.982 50.4809C148.627 29.5301 133.596 -2.80235 101.385 12.1039C76.9369 23.4173 85.9115 42.9 58.5507 44.9059C47.0233 45.7529 37.496 34.906 23.7309 33.2508Z" fill="#ECF2F6"/>
<path opacity="0.6" d="M35.2137 69.1464C29.609 66.0765 19.4932 69.916 16.0103 82.1804C11.2169 99.0509 20.7086 110.935 30.4292 117.803C40.1497 124.67 56.0307 128.311 67.7364 126.162C79.442 124.014 90.3483 117.606 96.2829 104.026C100.987 93.259 99.9084 73.2979 80.0364 74.338C64.9548 75.1255 65.5611 87.1372 50.9044 82.4746C44.7292 80.5103 42.0308 72.8789 35.2137 69.1464Z" fill="#ECF2F6"/>
<path d="M107.186 40.371C109.097 40.8287 111.153 39.9134 112.298 38.276C113.445 36.6385 114.039 33.4201 113.112 30.4989C111.561 25.6015 106.901 24.4098 103.103 24.7664C100.69 24.9923 98.1402 26.4306 96.4671 28.2493C95.6201 29.1676 94.9248 30.2998 94.7494 31.5836C94.5711 32.8674 94.9991 34.3146 96.0094 35.0843C96.8207 35.7024 97.8608 35.8124 98.8415 35.9015C99.7449 35.9848 100.94 35.8718 101.804 36.169C102.529 36.4186 102.856 37.0575 103.391 37.6786C104.434 38.8792 105.659 40.0055 107.186 40.371Z" fill="#FFEF76"/>
<path d="M104.235 21.132C101.359 21.132 99.0198 23.4708 99.0198 26.3474C99.0198 29.0874 103.656 35.747 103.855 36.0293C103.941 36.1542 104.084 36.2285 104.235 36.2285C104.387 36.2285 104.529 36.1542 104.616 36.0293C104.812 35.747 109.451 29.0844 109.451 26.3474C109.451 23.4708 107.112 21.132 104.235 21.132ZM104.235 34.9387C102.758 32.7485 99.95 28.2018 99.95 26.3474C99.95 23.9849 101.873 22.0622 104.235 22.0622C106.598 22.0622 108.52 23.9849 108.52 26.3474C108.52 28.2018 105.712 32.7515 104.235 34.9387Z" fill="#00BD95"/>
<path d="M104.235 23.9522C103.159 23.9522 102.283 24.8289 102.283 25.9046C102.283 26.9804 103.159 27.8571 104.235 27.8571C105.311 27.8571 106.188 26.9804 106.188 25.9046C106.191 24.8289 105.314 23.9522 104.235 23.9522ZM104.235 26.9269C103.671 26.9269 103.213 26.4693 103.213 25.9046C103.213 25.34 103.671 24.8824 104.235 24.8824C104.8 24.8824 105.258 25.34 105.258 25.9046C105.258 26.4693 104.8 26.9269 104.235 26.9269Z" fill="#00BD95"/>
<path d="M19.3178 37.753C17.407 37.2894 15.3506 38.1987 14.1975 39.8332C13.0445 41.4676 12.4412 44.683 13.3565 47.6072C14.8929 52.5106 19.5467 53.7171 23.3475 53.3724C25.7635 53.1555 28.3163 51.726 29.9953 49.9133C30.8452 48.998 31.5436 47.8687 31.7248 46.5849C31.9061 45.3012 31.4841 43.8539 30.4767 43.0813C29.6684 42.4602 28.6283 42.3473 27.6447 42.2551C26.7412 42.169 25.5466 42.2789 24.6848 41.9788C23.9627 41.7262 23.6358 41.0843 23.1009 40.4632C22.0667 39.2537 20.8423 38.1244 19.3178 37.753Z" fill="#FFEF76"/>
<path d="M28.9433 39.1615H16.5334C16.2778 39.1615 16.0668 39.3696 16.0668 39.6281V48.9534C16.0668 49.209 16.2748 49.42 16.5334 49.42H26.135L28.6075 51.9935C28.6967 52.0856 28.8185 52.1361 28.9433 52.1361C29.0028 52.1361 29.0622 52.1243 29.1187 52.1034C29.294 52.0321 29.4099 51.8627 29.4099 51.6725V39.6311C29.4099 39.3696 29.2019 39.1615 28.9433 39.1615ZM28.4797 50.5136L26.6699 48.6295C26.5838 48.5374 26.4619 48.4868 26.3341 48.4868H16.9999V40.0917H28.4797V50.5136Z" fill="#00BD95"/>
<path d="M19.5734 43.4884H25.9002C26.1558 43.4884 26.3668 43.2804 26.3668 43.0218C26.3668 42.7662 26.1588 42.5552 25.9002 42.5552H19.5734C19.3179 42.5552 19.1069 42.7633 19.1069 43.0218C19.1098 43.2804 19.3179 43.4884 19.5734 43.4884Z" fill="#00BD95"/>
<path d="M19.5734 46.1154H25.9002C26.1558 46.1154 26.3668 45.9074 26.3668 45.6489C26.3668 45.3933 26.1588 45.1823 25.9002 45.1823H19.5734C19.3179 45.1823 19.1069 45.3903 19.1069 45.6489C19.1098 45.9044 19.3179 46.1154 19.5734 46.1154Z" fill="#00BD95"/>
<path d="M27.7576 98.9945C28.4975 97.8325 28.7383 96.2605 28.1201 95.0956C27.6239 94.1595 26.6878 93.6186 25.7933 93.1223C24.9701 92.6647 23.7873 92.2724 23.0979 91.6216C22.5214 91.0778 22.4976 90.323 22.2628 89.5028C21.8111 87.9099 21.1484 86.3141 19.8617 85.3215C18.251 84.0793 15.8914 84.1001 14.0698 85.1967C12.2481 86.2933 10.2541 89.1402 9.8291 92.3378C9.11885 97.7018 13.0118 100.801 16.78 102.052C19.1752 102.846 22.2361 102.531 24.6373 101.482C25.8497 100.956 27.0176 100.156 27.7576 98.9945Z" fill="#FFEF76"/>
<path d="M25.4248 84.3676H24.1142V84.0407C24.1142 83.0897 23.3386 82.3141 22.3877 82.3141C21.4367 82.3141 20.6611 83.0897 20.6611 84.0407V84.3676H17.5586V84.0407C17.5586 83.0897 16.783 82.3141 15.832 82.3141C14.8811 82.3141 14.1054 83.0897 14.1054 84.0407V84.3676H12.7949C11.9985 84.3676 11.3536 85.0154 11.3536 85.8089V89.0243V99.3333C11.3536 99.5888 11.5616 99.7998 11.8202 99.7998H26.4025C26.658 99.7998 26.869 99.5918 26.869 99.3333V89.0243V85.8089C26.8661 85.0154 26.2182 84.3676 25.4248 84.3676ZM21.5883 84.0437C21.5883 83.6039 21.9449 83.2473 22.3847 83.2473C22.8245 83.2473 23.1811 83.6039 23.1811 84.0437V85.6246C23.1811 86.0645 22.8245 86.4211 22.3847 86.4211C21.9449 86.4211 21.5883 86.0645 21.5883 85.6246V84.0437ZM15.0356 84.0437C15.0356 83.6039 15.3922 83.2473 15.832 83.2473C16.2718 83.2473 16.6284 83.6039 16.6284 84.0437V85.6246C16.6284 86.0645 16.2718 86.4211 15.832 86.4211C15.3922 86.4211 15.0356 86.0645 15.0356 85.6246V84.0437ZM25.9359 98.8697H24.5243L25.9359 97.4581V98.8697ZM23.8676 98.2099V96.7984H25.2792L23.8676 98.2099ZM25.9359 95.8682H23.401C23.1455 95.8682 22.9345 96.0762 22.9345 96.3348V98.8697H12.2838V89.4909H25.9359V95.8682ZM25.9359 88.5607H12.2838V85.8119C12.2838 85.5295 12.5126 85.3007 12.7949 85.3007H14.1054V85.6276C14.1054 86.5786 14.8811 87.3542 15.832 87.3542C16.783 87.3542 17.5586 86.5786 17.5586 85.6276V85.3007H20.6581V85.6276C20.6581 86.5786 21.4337 87.3542 22.3847 87.3542C23.3356 87.3542 24.1113 86.5786 24.1113 85.6276V85.3007H25.4218C25.7041 85.3007 25.9329 85.5295 25.9329 85.8119V88.5607H25.9359ZM14.1054 91.7999C14.1054 91.5414 14.3135 91.3333 14.572 91.3333H16.2718C16.5274 91.3333 16.7384 91.5414 16.7384 91.7999C16.7384 92.0584 16.5304 92.2665 16.2718 92.2665H14.572C14.3135 92.2665 14.1054 92.0584 14.1054 91.7999ZM17.7934 91.7999C17.7934 91.5414 18.0014 91.3333 18.2599 91.3333H19.9598C20.2153 91.3333 20.4263 91.5414 20.4263 91.7999C20.4263 92.0584 20.2183 92.2665 19.9598 92.2665H18.2599C18.0044 92.2665 17.7934 92.0584 17.7934 91.7999ZM21.4813 91.7999C21.4813 91.5414 21.6893 91.3333 21.9478 91.3333H23.6477C23.9032 91.3333 24.1142 91.5414 24.1142 91.7999C24.1142 92.0584 23.9062 92.2665 23.6477 92.2665H21.9478C21.6923 92.2665 21.4813 92.0584 21.4813 91.7999ZM14.1054 94.0673C14.1054 93.8088 14.3135 93.6008 14.572 93.6008H16.2718C16.5274 93.6008 16.7384 93.8088 16.7384 94.0673C16.7384 94.3259 16.5304 94.5339 16.2718 94.5339H14.572C14.3135 94.5339 14.1054 94.3229 14.1054 94.0673ZM17.7934 94.0673C17.7934 93.8088 18.0014 93.6008 18.2599 93.6008H19.9598C20.2153 93.6008 20.4263 93.8088 20.4263 94.0673C20.4263 94.3259 20.2183 94.5339 19.9598 94.5339H18.2599C18.0044 94.5339 17.7934 94.3229 17.7934 94.0673ZM21.4813 94.0673C21.4813 93.8088 21.6893 93.6008 21.9478 93.6008H23.6477C23.9032 93.6008 24.1142 93.8088 24.1142 94.0673C24.1142 94.3259 23.9062 94.5339 23.6477 94.5339H21.9478C21.6923 94.5339 21.4813 94.3229 21.4813 94.0673ZM14.1054 96.3348C14.1054 96.0792 14.3135 95.8682 14.572 95.8682H16.2718C16.5274 95.8682 16.7384 96.0762 16.7384 96.3348C16.7384 96.5933 16.5304 96.8013 16.2718 96.8013H14.572C14.3135 96.8013 14.1054 96.5904 14.1054 96.3348ZM17.7934 96.3348C17.7934 96.0792 18.0014 95.8682 18.2599 95.8682H19.9598C20.2153 95.8682 20.4263 96.0762 20.4263 96.3348C20.4263 96.5933 20.2183 96.8013 19.9598 96.8013H18.2599C18.0044 96.8013 17.7934 96.5904 17.7934 96.3348Z" fill="#00BD95"/>
<path d="M121.308 92.3586C120.624 91.372 119.281 90.6736 117.846 90.8133C116.693 90.9262 115.665 91.5295 114.702 92.112C113.816 92.6469 112.794 93.5027 111.801 93.8653C110.972 94.1684 110.25 93.9485 109.347 93.8801C107.599 93.7464 105.73 93.788 104.087 94.5369C102.027 95.476 100.74 97.4403 100.764 99.2976C100.788 101.155 102.357 103.723 105.13 105.095C109.781 107.396 114.847 105.158 118.107 102.433C120.179 100.7 121.575 98.0614 121.92 95.7375C122.095 94.5666 121.991 93.3452 121.308 92.3586Z" fill="#FFEF76"/>
<path d="M119.127 90.8549C119.127 90.8252 119.124 90.7985 119.118 90.7687C119.118 90.7628 119.118 90.7569 119.115 90.7539C119.106 90.7212 119.094 90.6885 119.079 90.6588C119.076 90.6499 119.07 90.641 119.064 90.632C119.052 90.6112 119.037 90.5904 119.023 90.5726C119.017 90.5637 119.008 90.5548 118.999 90.5459C118.984 90.528 118.966 90.5132 118.945 90.4983C118.939 90.4953 118.936 90.4894 118.931 90.4835C118.928 90.4805 118.922 90.4805 118.919 90.4775C118.898 90.4626 118.877 90.4508 118.853 90.4418C118.844 90.4389 118.835 90.4329 118.826 90.43C118.824 90.43 118.821 90.427 118.818 90.427L110.761 87.5741C110.66 87.5385 110.55 87.5385 110.449 87.5741L102.393 90.427C102.39 90.427 102.387 90.43 102.387 90.43C102.378 90.4329 102.366 90.4389 102.357 90.4448C102.333 90.4537 102.313 90.4656 102.292 90.4805C102.289 90.4835 102.283 90.4834 102.28 90.4864C102.274 90.4894 102.271 90.4953 102.265 90.5013C102.247 90.5161 102.229 90.531 102.212 90.5488C102.203 90.5577 102.197 90.5667 102.188 90.5756C102.173 90.5934 102.158 90.6142 102.146 90.635C102.14 90.6439 102.134 90.6528 102.131 90.6618C102.116 90.6915 102.105 90.7242 102.096 90.7568C102.096 90.7628 102.096 90.7687 102.093 90.7747C102.087 90.8014 102.084 90.8311 102.084 90.8609C102.084 90.8638 102.084 90.8668 102.084 90.8728V101.25C102.084 101.446 102.209 101.622 102.393 101.69L110.449 104.543C110.452 104.543 110.455 104.543 110.458 104.543C110.506 104.558 110.556 104.569 110.607 104.569C110.657 104.569 110.708 104.561 110.755 104.543C110.758 104.543 110.761 104.543 110.764 104.543L118.821 101.69C119.005 101.624 119.13 101.449 119.13 101.25V90.8728C119.13 90.8609 119.127 90.8579 119.127 90.8549ZM110.607 93.2264L109.177 92.7212L115.84 90.3616L117.269 90.8668L110.607 93.2264ZM105.721 92.1536L113.311 89.4641L114.446 89.8653L107.629 92.2784C107.62 92.2813 107.614 92.2873 107.605 92.2903C107.59 92.2962 107.578 92.3022 107.564 92.3111C107.549 92.317 107.537 92.3259 107.525 92.3348C107.513 92.3438 107.501 92.3527 107.489 92.3616C107.477 92.3705 107.466 92.3824 107.457 92.3913C107.445 92.4032 107.436 92.4121 107.427 92.424C107.418 92.4359 107.409 92.4478 107.4 92.4597C107.391 92.4715 107.385 92.4864 107.376 92.4983C107.37 92.5102 107.365 92.5221 107.359 92.5369C107.359 92.5399 107.356 92.5429 107.356 92.5458C107.353 92.5518 107.35 92.5577 107.347 92.5637C107.344 92.5696 107.344 92.5756 107.341 92.5815C107.338 92.5934 107.335 92.6053 107.332 92.6172C107.332 92.6231 107.329 92.629 107.329 92.635C107.326 92.6469 107.326 92.6588 107.323 92.6706C107.323 92.6825 107.32 92.6944 107.32 92.7063C107.32 92.7123 107.32 92.7152 107.32 92.7212V95.7999L105.721 95.2323V92.1536ZM110.607 88.5072L111.917 88.9708L105.255 91.3304L103.944 90.8668L110.607 88.5072ZM103.017 91.5236L104.788 92.1506V95.5622C104.788 95.7583 104.913 95.9336 105.097 96.002L107.629 96.8994C107.68 96.9173 107.733 96.9262 107.784 96.9262C107.879 96.9262 107.974 96.8965 108.051 96.84C108.176 96.7538 108.247 96.6112 108.247 96.4596V93.3749L110.137 94.0436V103.434L103.011 100.911V91.5236H103.017ZM118.199 100.914L111.073 103.437V94.0466L118.199 91.5236V100.914Z" fill="#00BD95"/>
<path d="M64.937 111.906C65.6948 121.006 65.5373 133.038 66.0365 139.077H74.4614C75.9146 132.197 79.0706 116.159 81.5698 95.5976C82.6694 86.5516 48.1883 88.0612 44.5776 94.1355C44.5776 94.1355 49.2076 123.609 52.2655 139.077H62.2179C62.937 132.061 64.2951 119.678 64.937 111.906Z" fill="#4B4762"/>
<path opacity="0.5" d="M54.6427 104.7C58.5089 105.33 65.3142 105.155 69.3379 104.593C74.7613 103.832 78.0897 102.207 81.0376 99.8444C81.2189 98.4507 81.3972 97.0361 81.5726 95.5948C82.6721 86.5488 48.191 88.0585 44.5804 94.1327C44.5804 94.1327 49.2103 123.606 52.2683 139.074H57.3321C56.815 129.404 55.243 112.501 54.6427 104.7Z" fill="#4B4762"/>
<path opacity="0.5" d="M70.2059 127.975C70.2356 124.92 69.9652 119.36 69.772 116.311C69.6175 113.865 66.515 111.809 64.9013 108.855C64.83 110.546 64.8835 112.552 64.937 111.907C65.6948 121.006 65.5373 133.039 66.0365 139.077H70.2415C70.2118 135.44 70.1672 132.091 70.2059 127.975Z" fill="#4B4762"/>
<path d="M72.0781 44.7603C72.0781 44.7603 80.5178 46.5047 87.3261 52.4304C93.4122 57.726 103.243 69.4346 93.4122 84.7807L87.3112 83.2205C87.3112 83.2205 85.0022 65.5833 79.2132 63.197C73.4272 60.8047 69.9711 48.891 72.0781 44.7603Z" fill="#27A087"/>
<path d="M52.3665 44.7603C52.3665 44.7603 60.7379 53.4229 64.0841 52.4304C67.4303 51.4378 72.0811 44.7603 72.0811 44.7603C72.0811 44.7603 77.3708 46.9118 81.5134 55.3991C84.8774 62.2906 87.7213 76.0973 81.5728 95.5978C72.3961 103.681 48.1467 101.535 44.0576 94.1149C39.3563 75.806 34.8927 54.6324 52.3665 44.7603Z" fill="#00BD95"/>
<path opacity="0.3" d="M81.5133 55.3962C77.3678 46.9119 72.081 44.7573 72.081 44.7573C72.081 44.7573 72.0305 44.8287 71.9443 44.9505C72.0959 45.0456 72.2415 45.1466 72.3812 45.2536C74.1107 46.5998 74.7823 48.7781 75.0706 50.9772C75.6828 51.206 76.2028 51.7023 76.4317 52.5225C79.0527 61.9637 81.4806 71.6397 79.6857 81.4672C79.5787 82.0556 79.2518 82.4924 78.818 82.7777C79.8492 85.4612 81.7719 87.6454 80.4376 90.7598C79.1716 93.7108 76.1077 94.9916 73.1925 95.7761C69.5253 96.7598 65.6621 96.3199 61.9266 96.8103C58.4883 97.262 54.9757 97.5235 51.9059 95.5978C50.5359 94.739 50.3784 93.0005 51.4186 91.8237C54.3279 88.537 59.8375 89.0035 63.778 88.3319C63.9741 88.2992 64.1733 88.2665 64.3694 88.2368C64.3545 88.2309 64.3426 88.2279 64.3278 88.222C62.197 87.7049 60.1198 86.8966 58.3843 86.1358C50.2536 82.5697 47.8079 73.1642 47.1066 65.1048C46.5598 58.8255 47.0798 51.5775 50.3874 45.9906C35.2523 56.3115 39.5435 76.5311 44.0576 94.1119C48.1467 101.532 72.396 103.678 81.5728 95.5948C87.7213 76.0943 84.8773 62.2876 81.5133 55.3962Z" fill="#00BD95"/>
<path d="M53.3413 37.533V45.0188C53.3413 45.0188 60.3427 53.726 64.5507 52.261C68.7586 50.7959 71.5253 45.5894 71.5253 45.5894L70.7437 37.0902L53.3413 37.533Z" fill="#FFF1DD"/>
<path d="M53.3413 37.533V45.0188C53.3413 45.0188 60.3427 53.726 64.5507 52.261C68.7586 50.7959 71.5253 45.5894 71.5253 45.5894L70.7437 37.0902L53.3413 37.533Z" fill="#FFF1DD"/>
<path d="M76.5652 23.3341C76.1788 19.7115 74.2918 21.2776 74.2918 21.2776L74.3007 21.3698C73.6648 17.5897 72.8297 14.4545 72.8297 14.4545C61.0319 1.30163 46.0781 18.0058 45.3263 20.2851C44.5744 22.5644 45.8523 28.5851 45.8523 28.5851C44.9132 27.7709 42.2356 28.912 43.9444 32.49C45.6531 36.0709 47.9117 34.4157 47.9117 34.4157C52.7051 41.9817 62.4702 42.1452 65.2636 41.6013C66.7822 41.3071 72.586 37.3696 74.4582 32.487C74.9396 31.227 75.0674 29.4172 74.9872 27.4232C75.3051 27.3162 76.9129 26.6 76.5652 23.3341Z" fill="#FFF1DD"/>
<path d="M49.2076 33.6787C49.5999 35.1705 50.1496 36.5672 50.949 37.848C49.8198 36.9209 48.7826 35.7916 47.9089 34.4157C47.9089 34.4157 45.6504 36.068 43.9417 32.49C42.2329 28.9091 44.9105 27.7709 45.8495 28.5851C45.8495 28.5851 44.5717 22.5644 45.3235 20.2851C46.0754 18.0058 61.0292 1.30163 72.827 14.4545C72.827 14.4545 73.1925 15.8334 73.6234 17.8572C73.0766 17.2807 72.402 16.826 71.775 16.3119C70.5357 15.2955 69.2074 14.193 67.5194 14.1455C65.6859 14.095 64.1584 15.1588 62.7914 16.2495C61.3442 17.4055 59.8405 18.508 58.3041 19.5392C56.8658 20.505 55.6652 20.9299 54.004 21.349C52.53 21.7204 51.0411 22.19 49.9535 23.3103C49.7811 23.4886 49.6444 23.6758 49.5374 23.866C49.4958 23.9225 49.4542 23.9789 49.4126 24.0414C47.6563 26.8229 48.426 30.698 49.2076 33.6787ZM76.5654 23.3341C76.2979 20.817 75.3054 20.8051 74.7229 21.034C74.6783 21.8155 74.503 22.606 74.3752 23.3935C74.1048 25.0636 73.9443 26.7456 73.9414 28.4395C73.9384 30.1245 74.292 31.8808 73.977 33.5539C74.1553 33.2032 74.3158 32.8496 74.4555 32.49C74.9369 31.23 75.0647 29.4202 74.9844 27.4262C75.3054 27.3162 76.9131 26.6 76.5654 23.3341Z" fill="#FFF1DD"/>
<path d="M41.3652 20.2672C41.2879 25.0844 42.6163 28.4009 43.5613 29.438C44.0249 28.4752 45.166 28.2137 45.8525 28.5822C46.8718 31.7976 47.9119 30.5851 47.9119 30.5851C47.9119 30.5851 45.7158 22.9448 49.2967 19.8661C50.3309 18.9775 58.2298 17.4263 64.1287 14.0028C64.9756 13.5125 67.4927 11.6136 67.9265 11.1827C60.0009 3.77411 41.4187 16.82 41.3652 20.2672Z" fill="#525450"/>
<path d="M53.2016 23.9195C53.1867 23.9195 53.1719 23.9165 53.157 23.9136C53.0708 23.8898 53.0203 23.8007 53.0441 23.7115C53.0708 23.6164 53.7068 21.4025 55.1689 20.6774C55.7454 20.3921 56.3724 20.3772 57.0321 20.6387C57.1154 20.6714 57.157 20.7665 57.1243 20.8497C57.0916 20.9329 56.9965 20.9745 56.9133 20.9418C56.3457 20.716 55.8078 20.7249 55.3145 20.9686C53.9802 21.6283 53.365 23.7769 53.3591 23.7977C53.3383 23.872 53.2729 23.9195 53.2016 23.9195Z" fill="#525450"/>
<path d="M69.8522 18.8943C69.8106 18.8943 69.769 18.8794 69.7393 18.8468C69.6561 18.7665 67.7066 16.8943 65.7393 18.4664C65.668 18.5228 65.567 18.511 65.5105 18.4396C65.4541 18.3683 65.4659 18.2673 65.5373 18.2108C67.7334 16.4575 69.9473 18.5912 69.9711 18.612C70.0365 18.6744 70.0365 18.7784 69.9741 18.8408C69.9384 18.8794 69.8938 18.8943 69.8522 18.8943Z" fill="#525450"/>
<path d="M57.4304 23.9106C57.7365 24.6654 57.6414 25.4173 57.2164 25.5867C56.7944 25.7561 56.203 25.2836 55.8999 24.5287C55.5968 23.7739 55.6889 23.0221 56.1139 22.8527C56.5329 22.6803 57.1243 23.1558 57.4304 23.9106Z" fill="#525450"/>
<path d="M68.5684 21.343C68.5684 22.1573 68.1999 22.82 67.7423 22.82C67.2876 22.82 66.9161 22.1603 66.9161 21.343C66.9161 20.5288 67.2846 19.8661 67.7423 19.8661C68.1999 19.869 68.5684 20.5288 68.5684 21.343Z" fill="#525450"/>
<path d="M61.7216 21.343C61.7216 21.343 60.5507 25.9254 61.2401 27.7114C61.9296 29.4974 63.5076 26.6832 63.5076 26.6832L61.7216 21.343Z" fill="#FFF1DD"/>
<path d="M52.9757 40.9921C56.8004 44.0857 59.0381 45.6102 62.4348 47.2179C63.4065 47.6756 64.0811 50.1689 64.0811 52.4304C58.2238 53.2416 52.3636 44.7603 52.3636 44.7603C52.3636 44.7603 52.3487 40.484 52.9757 40.9921Z" fill="#FFA639"/>
<path d="M71.3381 41.423C68.72 44.2462 66.3842 45.8153 64.4853 47.1763C63.6799 47.7528 64.0811 50.1659 64.0811 52.4274C68.9637 52.9772 72.078 44.7573 72.078 44.7573C72.078 44.7573 71.8522 40.8703 71.3381 41.423Z" fill="#FFA639"/>
<path d="M92.2888 86.5548C92.2888 86.5548 87.6529 89.158 86.8981 89.3215C86.1433 89.4849 84.5891 90.2427 83.1626 89.4849C81.7362 88.7242 77.6649 86.5548 78.1285 85.8505C78.5891 85.1462 80.1434 84.6024 80.8982 85.3631C81.653 86.1239 85.1923 86.2309 85.1923 86.2309C85.1923 86.2309 88.5771 85.5266 88.9546 85.3631C89.332 85.1997 92.2888 86.5548 92.2888 86.5548Z" fill="#CFEBFF"/>
<path d="M86.6455 85.2145L91.7064 86.9768C91.7064 86.9768 93.6915 86.9768 94.4374 83.3156C92.1848 80.9085 87.6084 81.8832 87.6084 81.8832L86.6455 85.2145Z" fill="#FFA639"/>
<path d="M64.0841 52.4274C64.0841 52.4274 66.8181 99.1431 66.4882 100.317C66.1583 101.491 63.0886 100.748 63.0886 100.748C63.0886 100.748 61.1124 57.0633 60.2981 51.3427C61.8493 52.1272 64.0841 52.4274 64.0841 52.4274Z" fill="#FFA639"/>
<path d="M54.7588 0.606239C51.8108 1.09955 45.3116 3.58095 42.7589 8.64182C40.5688 12.9895 41.0858 20.7249 41.2493 20.8913C41.4127 21.0548 43.0472 21.9255 46.3993 21.9255C46.4023 21.9255 52.3606 3.73251 54.7588 0.606239Z" fill="#00BD95"/>
<path d="M56.527 0.213967C51.1987 1.11143 47.1482 4.28227 46.4617 7.65519C45.4543 12.6061 46.4617 21.5599 46.4617 21.5599C46.4617 21.5599 51.6088 14.2762 58.9073 12.3119C65.4363 10.5556 68.9251 11.1916 72.7913 13.1113C72.7913 13.1113 71.2282 5.7622 68.7587 3.12627C67.2966 1.56908 62.0128 -0.710243 56.527 0.213967Z" fill="#27A087"/>
<path opacity="0.2" d="M50.9104 2.60918C51.0085 4.36548 55.0471 5.41747 56.3665 5.93456C60.0901 7.39665 63.8315 8.79634 67.5937 10.1514C69.2817 10.7607 71.038 11.5006 72.6338 12.4337C72.1821 10.5556 70.7705 5.27483 68.7587 3.12924C67.2966 1.56907 62.0128 -0.710248 56.527 0.213962C54.3903 0.573542 52.4587 1.30162 50.8658 2.25852C50.8866 2.37144 50.9045 2.48437 50.9104 2.60918Z" fill="#27A087"/>
<path d="M46.4023 21.9255C46.4023 21.9255 54.1139 22.1365 56.2536 19.5867C58.3932 17.037 61.6235 11.5749 67.2252 10.8647C65.4481 10.835 59.2758 11.1589 55.4096 13.138C50.5835 15.6046 47.3948 18.9359 46.4023 21.9255Z" fill="#00BD95"/>
<path d="M64.405 11.1767C64.405 11.1767 67.0172 11.4263 70.408 13.8275C73.0409 15.6937 73.0498 16.716 73.6442 17.0102C75.8581 18.0979 78.3455 16.2673 77.5401 14.9805C77.029 14.1722 71.8671 9.62843 64.405 11.1767Z" fill="#00BD95"/>
<path d="M77.5372 14.9775C77.0944 14.2703 73.0766 10.7012 67.0737 10.8617C65.1213 10.8528 63.2104 11.2421 59.6889 14.7963C56.6637 17.8482 55.6801 19.976 54.5478 20.7487C55.2551 20.4515 55.8465 20.0681 56.2536 19.5837C58.1258 17.352 60.833 12.8914 65.2342 11.3342C67.2252 10.8617 70.2267 11.2213 72.7913 12.2079C74.6843 12.936 76.7407 14.3267 77.6679 15.7324C77.7244 15.4798 77.6887 15.2183 77.5372 14.9775Z" fill="#FFA639"/>
<path d="M51.1867 29.7233C51.157 29.7233 51.1273 29.7204 51.0946 29.7114C48.2596 28.8823 46.7143 28.6921 45.8525 28.5851C45.4632 28.4455 44.9045 28.4247 44.6608 28.5019C44.4914 28.5554 44.3191 28.6357 44.117 28.7664C44.0368 28.6089 44.0694 28.3236 44.224 28.2375C44.3726 28.1572 45.8198 27.4915 51.2789 29.0874C51.4512 29.1379 51.5493 29.3192 51.4988 29.4915C51.4572 29.6312 51.3264 29.7233 51.1867 29.7233Z" fill="white"/>
<path d="M55.258 39.9193C55.2105 39.9193 55.16 39.9074 55.1154 39.8866C51.053 37.8867 47.4305 34.8674 47.3948 34.8377C47.3502 34.799 47.3175 34.7545 47.2997 34.701C47.4216 34.6594 47.5048 34.6326 47.6147 34.5791C47.799 34.49 47.8822 34.4246 47.9119 34.4157C47.9476 34.4454 51.4156 37.3369 55.4036 39.3012C55.5641 39.3814 55.6325 39.5746 55.5522 39.7381C55.4958 39.851 55.3799 39.9193 55.258 39.9193Z" fill="white"/>
<path d="M74.4852 25.3281C74.4584 25.3281 74.4317 25.3251 74.4049 25.3192C74.2296 25.2746 74.1256 25.0963 74.1702 24.924C74.5862 23.2954 74.3187 21.132 74.3158 21.1112C74.292 20.9329 74.4198 20.7695 74.5981 20.7487C74.7794 20.7279 74.9398 20.8527 74.9606 21.031C74.9725 21.1231 75.2459 23.34 74.7972 25.0874C74.7645 25.23 74.6308 25.3281 74.4852 25.3281Z" fill="white"/>
<path d="M51.1865 29.3964C51.2043 29.1408 62.2533 23.7828 65.0199 23.4559C67.7866 23.129 74.0511 24.0265 74.6216 24.6773C75.1922 25.3281 75.3527 30.6178 74.6216 33.7916C73.8906 36.9654 69.008 41.634 67.0556 42.1808C65.1032 42.7246 58.7823 42.27 56.1701 40.4097C53.555 38.5494 50.9725 32.4246 51.1865 29.3964Z" fill="#8EE2FF"/>
<path opacity="0.5" d="M64.3218 30.8734C63.9325 29.4172 62.8567 25.9343 62.6517 25.2895C62.0989 25.4886 62.1287 25.4618 61.4778 25.7352C61.5462 25.8184 63.0113 31.6638 64.3218 30.8734Z" fill="#8EE2FF"/>
<path opacity="0.5" d="M62.512 38.0858C59.4036 37.3785 56.5775 36.2433 54.2031 34.071C52.3635 32.3889 51.1927 29.2924 51.1838 29.3964C50.9698 32.4246 53.5552 38.5494 56.1674 40.4097C58.7795 42.27 65.1004 42.7246 67.0528 42.1808C68.1435 41.8777 70.1464 40.2848 71.8314 38.3889C68.7259 38.9951 65.0439 38.6623 62.512 38.0858Z" fill="#8EE2FF"/>
<path opacity="0.3" d="M67.4808 48.0203L69.249 62.7542L64.203 65.2148L80.604 89.8178L65.9622 97.2917L59.8999 93.7523L54.6429 66.876L60.4883 65.2058L59.7929 51.5032L65.4868 46.6949L67.4808 48.0203Z" fill="#00BD95"/>
<path d="M52.3665 44.7603C52.3665 44.7603 41.0175 46.5196 33.7546 59.1346C23.9894 76.0943 33.4277 101.663 61.1867 93.3898L58.5091 87.3453C58.5091 87.3453 39.8347 85.9159 44.5806 60.0023C46.3131 50.5463 51.4304 46.7157 52.3665 44.7603Z" fill="#27A087"/>
<path opacity="0.4" d="M37.2434 56.7126C38.9343 53.5774 40.8451 51.0782 42.7857 49.0753C39.7396 51.2327 36.4618 54.4273 33.7546 59.1316C25.0414 74.2667 31.6209 96.2545 52.8599 94.9351C34.4083 93.6869 29.0265 71.9487 37.2434 56.7126Z" fill="#27A087"/>
<path d="M62.31 87.9277L65.1807 92.314C65.1807 92.314 67.9503 91.2323 68.8983 91.5116C69.8493 91.791 71.7482 92.7865 73.6709 92.2546C75.5936 91.7226 81.0795 90.2011 80.5713 89.4285C80.0631 88.6558 78.1374 87.8772 77.0765 88.5132C76.0156 89.1491 71.4243 89.0303 71.4243 89.0303C71.4243 89.0303 67.2044 87.482 66.7379 87.2591C66.2683 87.0392 62.31 87.9277 62.31 87.9277Z" fill="#CFEBFF"/>
<path d="M63.0886 87.58C63.0886 87.58 64.5596 90.9203 65.778 91.9812C63.992 93.5265 59.8999 93.7553 59.8999 93.7553L58.5091 87.3482L63.0886 87.58Z" fill="#FFA639"/>
<path d="M58.2238 63.6338L61.1896 85.595L72.4436 91.1016L70.9874 69.3663L58.2238 63.6338Z" fill="#CDB576"/>
<path opacity="0.3" d="M59.4809 72.9265L61.1926 85.592L72.4436 91.1016L71.668 79.5297C65.9622 94.1327 59.4809 72.9265 59.4809 72.9265Z" fill="#D7BF7C"/>
<path d="M58.2238 63.6338L85.5549 59.7795L100.764 64.7126L70.9874 69.3663L58.2238 63.6338Z" fill="#E8CC8B"/>
<path d="M100.764 64.7126L97.8549 86.8609L72.4436 91.1016L70.9875 69.3663L100.764 64.7126Z" fill="#D7BF7C"/>
<path opacity="0.3" d="M98.1284 84.7837L97.8549 86.8579L72.4436 91.0986L71.5253 77.3632C76.2593 89.2442 98.1284 84.7837 98.1284 84.7837Z" fill="#D7BF7C"/>
<path opacity="0.4" d="M62.2387 65.4377L66.0514 67.1286L95.5221 63.0098L90.3305 61.3278L62.2387 65.4377Z" fill="#FFEAAA"/>
<path opacity="0.4" d="M62.2387 65.4377L63.6324 77.9071L66.6101 79.5297L66.0514 67.1286L62.2387 65.4377Z" fill="#FFEAAA"/>
<path d="M68.2178 62.9236L67.3471 62.3471L61.6473 63.1494L72.8864 68.5431L94.7108 63.9726L68.2178 62.9236Z" fill="#E8CC8B"/>
<path d="M65.2312 46.6949L67.4392 63.0305L75.8076 67.1286L74.7259 50.9593L65.2312 46.6949Z" fill="#CDB576"/>
<path opacity="0.3" d="M66.1673 53.6072L67.4392 63.0306L75.8106 67.1286L75.234 58.5195C70.9874 69.3811 66.1673 53.6072 66.1673 53.6072Z" fill="#D7BF7C"/>
<path d="M65.2312 46.6949L85.5608 43.8272L96.8742 47.4973L74.7259 50.9594L65.2312 46.6949Z" fill="#E8CC8B"/>
<path d="M96.8743 47.4973L94.7108 63.9726L75.8076 67.1286L74.7259 50.9594L96.8743 47.4973Z" fill="#D7BF7C"/>
<path opacity="0.3" d="M94.9129 62.4273L94.7108 63.9726L75.8076 67.1286L75.1241 56.9117C78.6486 65.7467 94.9129 62.4273 94.9129 62.4273Z" fill="#D7BF7C"/>
<path opacity="0.4" d="M68.2178 48.0352L71.0558 49.2952L92.9753 46.2313L89.115 44.9802L68.2178 48.0352Z" fill="#FFEAAA"/>
<path opacity="0.4" d="M68.2178 48.0352L69.2549 57.3129L71.4718 58.5194L71.0558 49.2952L68.2178 48.0352Z" fill="#FFEAAA"/>
</svg>
