<svg width="111" height="101" viewBox="0 0 111 101" fill="none" xmlns="http://www.w3.org/2000/svg">
<path d="M110.176 30.3436H0.823547V100.377H110.176V30.3436Z" fill="#E6E6E6"/>
<path d="M99.9302 38.0991H11.0697V92.6217H99.9302V38.0991Z" fill="white"/>
<path d="M99.9302 48.5699H11.0697V51.9176H99.9302V48.5699Z" fill="#E6E6E6"/>
<path d="M99.9302 64.9364H11.0697V68.284H99.9302V64.9364Z" fill="#E6E6E6"/>
<path d="M61.0078 56.0092H23.4394V59.3569H61.0078V56.0092Z" fill="#E6E6E6"/>
<path d="M99.9302 82.2327H11.0697V85.5804H99.9302V82.2327Z" fill="#E6E6E6"/>
<path d="M25.1133 38.0991H21.7656V84.2785H25.1133V38.0991Z" fill="#E6E6E6"/>
<path d="M87.6033 38.0991H84.2556V66.7961H87.6033V38.0991Z" fill="#E6E6E6"/>
<path d="M62.3097 38.0991H58.962V92.6217H62.3097V38.0991Z" fill="#E6E6E6"/>
<path d="M43.1535 65.4942H39.8058V92.6216H43.1535V65.4942Z" fill="#E6E6E6"/>
<path d="M60.6358 70.8878C62.9983 70.8878 64.9134 68.9727 64.9134 66.6102C64.9134 64.2478 62.9983 62.3326 60.6358 62.3326C58.2734 62.3326 56.3582 64.2478 56.3582 66.6102C56.3582 68.9727 58.2734 70.8878 60.6358 70.8878Z" fill="#00BD95"/>
<path d="M61.0079 0.883938C56.7183 0.883938 52.6044 2.58797 49.5712 5.62117C46.538 8.65438 44.8339 12.7683 44.8339 17.0579C44.8339 25.9905 61.0079 59.8033 61.0079 59.8033C61.0079 59.8033 77.1818 25.9905 77.1818 17.0579C77.1818 12.7683 75.4778 8.65438 72.4446 5.62117C69.4114 2.58797 65.2975 0.883938 61.0079 0.883938ZM61.0079 24.7597C59.4846 24.7597 57.9955 24.308 56.7289 23.4617C55.4624 22.6155 54.4752 21.4126 53.8922 20.0053C53.3093 18.5979 53.1568 17.0493 53.454 15.5553C53.7511 14.0613 54.4847 12.6889 55.5618 11.6118C56.6389 10.5347 58.0113 9.80116 59.5053 9.50398C60.9993 9.2068 62.5479 9.35933 63.9552 9.94226C65.3626 10.5252 66.5654 11.5124 67.4117 12.7789C68.258 14.0455 68.7097 15.5346 68.7097 17.0579C68.7097 19.1005 67.8983 21.0595 66.4539 22.5039C65.0095 23.9483 63.0505 24.7597 61.0079 24.7597V24.7597Z" fill="#00BD95"/>
</svg>
