<svg width="136" height="120" viewBox="0 0 136 120" fill="none" xmlns="http://www.w3.org/2000/svg">
<g clip-path="url(#clip0)">
<path d="M85.7778 38.4267C85.7778 38.4267 91.9854 39.4773 92.4857 39.6082C92.986 39.7429 94.9525 40.6742 95.0526 41.2745C95.1526 41.8749 95.0526 43.6413 95.0526 43.6413C95.0526 43.6413 94.6985 43.93 94.4753 43.3527C94.2521 42.7754 94.2867 41.6324 94.2867 41.6324L93.1861 41.2091L93.7864 42.2751L93.8865 44.7728C93.8865 44.7728 93.1168 44.7035 92.9706 44.1031C92.8205 43.5066 92.8243 42.837 92.8243 42.837L92.0238 42.1558L92.6242 42.9679L92.8282 44.7689C92.8282 44.7689 92.2432 44.9575 92.0585 44.5573C91.8738 44.157 91.8584 42.9679 91.8584 42.9679L89.5955 42.1789L88.0984 43.014L85.3006 41.4323L85.7778 38.4267Z" fill="#FFBE9D"/>
<path d="M64.0419 23.083C64.0688 23.2061 71.5232 33.4661 71.5232 33.4661L86.4937 38.1227L85.8125 43.7452L67.4631 40.0507L60.9516 32.5771L64.0419 23.083Z" fill="#00BD95"/>
<g opacity="0.2">
<g opacity="0.2">
<path opacity="0.2" d="M64.0419 23.083C64.0688 23.2061 71.5232 33.4661 71.5232 33.4661L86.4937 38.1227L85.8125 43.7452L67.4631 40.0507L60.9516 32.5771L64.0419 23.083Z" fill="black"/>
</g>
</g>
<path d="M37.9684 43.1639H7.37714C6.73061 43.1639 6.20337 42.6405 6.20337 41.9901V38.3764C6.20337 37.7299 6.72676 37.2026 7.37714 37.2026H37.9645C38.6111 37.2026 39.1383 37.726 39.1383 38.3764V41.9901C39.1422 42.6405 38.6149 43.1639 37.9684 43.1639Z" fill="#F5F5F5"/>
<path d="M37.9687 43.1641C37.9687 43.1564 38.0341 43.1603 38.1611 43.1372C38.2843 43.1102 38.4767 43.0602 38.6729 42.9024C38.8654 42.7523 39.0655 42.4868 39.104 42.125C39.1194 41.7633 39.104 41.3323 39.104 40.8551C39.1001 40.374 39.1001 39.8429 39.0963 39.258C39.0963 38.9655 39.0924 38.6615 39.0924 38.3459C39.0847 38.0419 38.9462 37.734 38.696 37.5223C38.5729 37.4146 38.4228 37.3376 38.2612 37.2953C38.0995 37.2491 37.9263 37.2568 37.7416 37.2568C37.376 37.2568 37.0027 37.2606 36.6179 37.2606C35.8443 37.2645 35.0285 37.2645 34.1741 37.2683C27.3124 37.276 17.8413 37.2876 7.38513 37.2991C7.08496 37.2953 6.78863 37.43 6.59235 37.6493C6.38839 37.8725 6.29218 38.165 6.31142 38.4767C6.31142 39.1233 6.31142 39.766 6.31142 40.4009C6.31142 40.7204 6.31142 41.0359 6.31142 41.3515V41.8249C6.31142 41.9865 6.31142 42.125 6.3499 42.2674C6.42302 42.5445 6.61545 42.787 6.86559 42.9255C6.98874 42.9948 7.12729 43.0371 7.26968 43.0525C7.40438 43.0641 7.56986 43.0564 7.7238 43.0602C10.1906 43.0641 12.569 43.0641 14.8357 43.0679C19.3692 43.0756 23.4485 43.0833 26.8813 43.091C30.3026 43.1026 33.0735 43.1141 35.0015 43.1218C35.9521 43.1295 36.6948 43.1372 37.2105 43.141C37.4568 43.1449 37.6454 43.1487 37.784 43.1526C37.9033 43.1603 37.9687 43.1641 37.9687 43.1641C37.9687 43.1641 37.9033 43.1718 37.7724 43.1757C37.6339 43.1795 37.4453 43.1795 37.199 43.1872C36.6872 43.1911 35.9444 43.1988 34.99 43.2065C33.0658 43.2142 30.291 43.2257 26.8698 43.2372C23.4408 43.2449 19.3576 43.2488 14.8242 43.2603C12.5574 43.2603 10.1791 43.2642 7.71225 43.268C7.55447 43.2642 7.41207 43.2757 7.23889 43.2603C7.07341 43.2411 6.90793 43.1911 6.76169 43.1102C6.46536 42.9486 6.2383 42.66 6.14978 42.3329C6.1036 42.1712 6.1036 41.9904 6.1036 41.8403V41.3669C6.1036 41.0513 6.1036 40.7319 6.1036 40.4163C6.1036 39.7775 6.1036 39.1387 6.1036 38.4921C6.08051 38.1612 6.19597 37.784 6.43457 37.53C6.66932 37.2683 7.02338 37.1105 7.37744 37.1144C17.8336 37.1259 27.3047 37.1375 34.1664 37.1452C35.0246 37.149 35.8405 37.149 36.6102 37.1529C36.995 37.1529 37.3722 37.1567 37.7339 37.1567C37.911 37.1567 38.1034 37.149 38.2804 37.2029C38.4574 37.2529 38.6229 37.3376 38.7576 37.4569C39.0308 37.6916 39.1809 38.0303 39.1848 38.3613C39.1848 38.6768 39.1848 38.9809 39.1809 39.2734C39.1771 39.8545 39.1732 40.3894 39.1732 40.8705C39.1655 41.3515 39.1771 41.771 39.154 42.1481C39.104 42.5291 38.8923 42.7985 38.6883 42.9525C38.4805 43.1102 38.2843 43.1526 38.1573 43.1757C38.0341 43.1757 37.9687 43.1641 37.9687 43.1641Z" fill="#263238"/>
<path d="M121.017 119.332C129.697 118.914 136.396 111.539 135.979 102.859C135.561 94.1784 128.186 87.4796 119.506 87.8968C110.825 88.314 104.127 95.689 104.544 104.37C104.961 113.05 112.336 119.749 121.017 119.332Z" fill="#263238"/>
<path d="M104.535 103.358C104.535 103.373 104.531 103.385 104.531 103.4C104.404 112.09 111.347 119.236 120.037 119.359C128.726 119.486 135.873 112.544 135.996 103.854C135.996 103.839 135.996 103.827 135.996 103.812L104.535 103.358Z" fill="#263238"/>
<path d="M109.219 103.465C109.13 109.565 114.006 114.583 120.106 114.672C126.206 114.76 131.224 109.885 131.313 103.785C131.401 97.685 126.525 92.6666 120.425 92.5781C114.326 92.4896 109.307 97.3656 109.219 103.465Z" fill="#FAFAFA"/>
<path d="M120.425 92.5781C114.326 92.4896 109.307 97.3656 109.219 103.465L131.313 103.785C131.401 97.6811 126.525 92.6666 120.425 92.5781Z" fill="#E0E0E0"/>
<path d="M113.537 103.527C113.483 107.244 116.454 110.3 120.167 110.354C123.885 110.408 126.941 107.437 126.995 103.723C127.048 100.006 124.078 96.9499 120.364 96.896C116.646 96.8422 113.591 99.8093 113.537 103.527Z" fill="#263238"/>
<path d="M112.798 80.5517C112.798 80.5517 128.907 75.6796 135.573 93.1823L101.86 103.623L112.798 80.5517Z" fill="#00BD95"/>
<path d="M23.9328 119.335C32.6133 118.917 39.312 111.542 38.8949 102.862C38.4777 94.1814 31.1026 87.4827 22.4222 87.8998C13.7417 88.317 7.04295 95.6921 7.46011 104.373C7.87728 113.053 15.2524 119.752 23.9328 119.335Z" fill="#263238"/>
<path d="M7.44282 103.358C7.44282 103.373 7.43897 103.385 7.43897 103.4C7.31197 112.09 14.2546 119.236 22.9443 119.359C31.6341 119.486 38.7807 112.544 38.9038 103.854C38.9038 103.839 38.9038 103.827 38.9038 103.812L7.44282 103.358Z" fill="#263238"/>
<path d="M12.1264 103.465C12.0379 109.565 16.9139 114.583 23.0136 114.672C29.1134 114.76 34.1318 109.885 34.2203 103.785C34.3088 97.685 29.4328 92.6666 23.3331 92.5781C17.2333 92.4896 12.2149 97.3655 12.1264 103.465Z" fill="#FAFAFA"/>
<path d="M23.3331 92.5781C17.2333 92.4896 12.2149 97.3655 12.1264 103.465L34.2203 103.785C34.3088 97.6811 29.4328 92.6666 23.3331 92.5781Z" fill="#E0E0E0"/>
<path d="M16.4443 103.527C16.3904 107.244 19.3614 110.3 23.0752 110.354C26.7928 110.408 29.8484 107.437 29.9023 103.723C29.9562 100.006 26.9852 96.9499 23.2715 96.896C19.5539 96.8422 16.4982 99.8093 16.4443 103.527Z" fill="#263238"/>
<path d="M45.5578 97.3078C45.4693 97.354 37.2759 96.0417 37.2759 96.0417C36.3792 97.2116 35.0092 97.9274 33.5391 97.9967C29.9985 98.166 26.5388 98.3238 23.5408 98.4547C20.7469 98.5778 18.5802 100.945 18.6957 103.739V103.742C18.8073 106.386 20.9278 108.499 23.5716 108.603L40.9974 109.288C43.8645 109.4 47.6706 107.66 49.4601 105.416L45.5578 97.3078Z" fill="#455A64"/>
<path d="M2.74776 90.3421C2.74776 90.3421 1.99732 75.0061 16.4097 71.8119V69.8454H66.8974V74.5328C66.8974 74.5328 59.4853 83.4573 61.906 90.8655C64.3266 98.2776 65.0809 99.0319 65.0809 99.0319H93.8134C93.8134 99.0319 97.2924 94.6447 97.4425 88.1447C97.5925 81.6408 94.8909 70.5227 92.8744 63.4146C91.0387 56.9531 89.8803 51.546 89.8803 51.546L98.5008 48.6712C98.5008 48.6712 114.453 69.5259 115.103 70.6997C115.753 71.8735 117.97 74.6097 117.447 80.6017C116.923 86.5938 102.592 105.101 98.8125 107.183C95.0333 109.269 91.6467 109.4 88.2562 109.919C85.316 110.373 63.5608 110.073 57.8728 109.985C55.8947 109.954 53.9436 109.45 52.2541 108.426C50.5531 107.395 49.2715 105.686 47.8592 102.884L44.8612 97.0192L2.74776 90.3421Z" fill="#00BD95"/>
<path d="M6.61159 89.2761L0.250121 99.2359C-0.565748 100.51 0.754267 102.115 2.1397 101.514C2.81318 101.222 3.53669 100.768 4.27174 100.067C7.18116 97.3001 12.365 90.0112 12.365 90.0112L6.61159 89.2761Z" fill="#455A64"/>
<path d="M52.2118 91.0695C52.2079 91.0695 52.2195 91.0195 52.2503 90.9233C52.281 90.8193 52.3234 90.6808 52.3773 90.5038C52.485 90.1343 52.6159 89.584 52.7121 88.8605C52.8737 87.425 52.8006 85.2353 51.7269 82.8492C51.2035 81.6601 50.4299 80.444 49.3832 79.3279C48.3325 78.2196 47.0356 77.1959 45.5193 76.38C44.0107 75.5603 42.302 74.9137 40.4779 74.502C38.6499 74.0902 36.7064 73.9055 34.7168 73.9055C32.7271 73.9055 30.7875 74.0825 28.9249 74.3288C27.0622 74.5789 25.2765 74.8868 23.5909 75.2716C20.2235 76.0298 17.2949 77.1497 15.0281 78.4389C12.7537 79.7204 11.1412 81.1213 10.1329 82.1719C9.62494 82.6953 9.25934 83.1302 9.01688 83.4303C8.90143 83.5727 8.81292 83.6882 8.74364 83.7728C8.68207 83.8498 8.64743 83.8883 8.64359 83.8845C8.64359 83.8845 9.07461 83.1917 10.0752 82.118C11.0681 81.0443 12.6768 79.6204 14.955 78.3158C17.2256 76.9996 20.1697 75.8605 23.5486 75.0908C25.2381 74.7021 27.0276 74.3865 28.8979 74.1325C30.7644 73.8824 32.7156 73.7015 34.7168 73.7015C36.718 73.7015 38.6768 73.8901 40.5202 74.3057C42.3636 74.7213 44.0839 75.3756 45.6078 76.2107C47.1357 77.0381 48.448 78.081 49.5063 79.2086C50.5608 80.3439 51.3382 81.5792 51.8577 82.7877C52.9237 85.2083 52.9776 87.425 52.789 88.8643C52.6813 89.5917 52.5389 90.1459 52.4157 90.5115C52.3542 90.6847 52.3041 90.8232 52.2695 90.9233C52.231 91.0233 52.2118 91.0695 52.2118 91.0695Z" fill="#263238"/>
<path d="M49.3023 87.6251C49.2792 87.6174 49.387 87.3827 49.4909 86.944C49.6102 86.5052 49.6602 85.8395 49.5486 85.039C49.437 84.2347 49.1291 83.3072 48.6096 82.3643C48.3556 81.891 48.0439 81.4215 47.6783 80.9635C47.3204 80.5017 46.9009 80.063 46.4275 79.6666C45.477 78.8699 44.4225 78.3081 43.4257 77.9117C42.4213 77.523 41.4746 77.2921 40.6703 77.1574C39.8659 77.0227 39.204 76.965 38.7499 76.938C38.2919 76.9111 38.0418 76.8995 38.0418 76.8841C38.0418 76.8765 38.1034 76.8726 38.2265 76.8649C38.3458 76.8611 38.5267 76.8534 38.7537 76.8572C39.2117 76.8611 39.8775 76.8957 40.6934 77.015C41.5092 77.1304 42.4713 77.3498 43.495 77.7347C44.511 78.131 45.5886 78.6968 46.5584 79.5088C47.0433 79.9167 47.4705 80.3631 47.8361 80.8365C48.2055 81.3022 48.5211 81.7871 48.7751 82.272C49.2946 83.2341 49.5948 84.1885 49.691 85.0159C49.7872 85.8395 49.7141 86.5206 49.5679 86.9594C49.5217 87.1864 49.4255 87.3442 49.3831 87.4597C49.337 87.5751 49.3062 87.629 49.3023 87.6251Z" fill="#F5F5F5"/>
<g opacity="0.4">
<g opacity="0.4">
<g opacity="0.4">
<path opacity="0.4" d="M39.4157 74.1902C42.2366 74.729 44.7034 75.7412 47.0163 77.2844C49.3292 78.8276 51.1034 81.0174 52.1078 83.6112C53.1161 86.2051 52.966 89.6417 51.9038 91.7892L55.4714 92.0855C56.6721 88.0793 55.3636 83.1648 52.4773 80.0283C49.0945 76.3492 44.4379 74.1902 39.4157 74.1902Z" fill="black"/>
</g>
</g>
</g>
<path d="M38.2766 69.8454H7.06957C5.24541 69.8454 3.76761 68.3676 3.76761 66.5434V46.1659C3.76761 44.3418 5.24541 42.8639 7.06957 42.8639H38.2766C40.1007 42.8639 41.5785 44.3418 41.5785 46.1659V66.5434C41.5785 68.3676 40.1007 69.8454 38.2766 69.8454Z" fill="#455A64"/>
<path d="M41.5785 48.8868C41.5785 48.9406 33.0773 48.9868 22.5942 48.9868C12.1072 48.9868 3.60596 48.9406 3.60596 48.8868C3.60596 48.8329 12.1072 48.7867 22.5942 48.7867C33.0773 48.7867 41.5785 48.829 41.5785 48.8868Z" fill="#263238"/>
<path d="M66.8704 71.6349C66.8704 71.6888 55.5214 71.7349 41.5285 71.7349C27.5278 71.7349 16.1865 71.6888 16.1865 71.6349C16.1865 71.581 27.5317 71.5348 41.5285 71.5348C55.5252 71.531 66.8704 71.5772 66.8704 71.6349Z" fill="#263238"/>
<path d="M66.8974 69.8454C66.8974 69.8454 67.7287 68.8525 67.8095 67.5825C67.8903 66.3125 67.3092 64.7308 65.9468 64.7308H48.5134C45.6886 64.7308 43.3988 67.0206 43.3988 69.8454H66.8974Z" fill="#455A64"/>
<path d="M89.8841 51.546L86.8516 45.223C86.0241 43.4258 86.6822 41.2899 88.3832 40.2778L97.4502 34.8707C97.9235 34.5898 98.4661 34.4397 99.0165 34.4397H100.975L101.76 47.2204L98.7394 48.3749L100.652 51.4845L89.8841 51.546Z" fill="#00BD95"/>
<path d="M101.006 34.9015C101.006 34.9015 104.108 35.6135 104.497 40.3933C104.885 45.1769 101.76 46.6624 101.76 46.6624L101.006 34.9015Z" fill="#EBEBEB"/>
<path d="M90.9386 42.7485C90.9386 42.7485 84.6695 45.7195 83.9037 46.2082C83.3726 46.5469 82.9184 47.1396 83.3341 48.1825C84.046 49.9605 86.9747 48.2864 86.9747 48.2864L92.8089 45.3693C92.8089 45.3693 95.0526 44.311 94.2252 42.9833C93.3015 41.4978 90.9386 42.7485 90.9386 42.7485Z" fill="#263238"/>
<path d="M82.0641 41.6632C82.0641 41.6632 87.9522 42.6715 88.4525 42.8062C88.9528 42.9409 90.9193 43.8722 91.0194 44.4726C91.1195 45.073 91.0194 46.8394 91.0194 46.8394C91.0194 46.8394 90.6654 47.128 90.4421 46.5508C90.2189 45.9735 90.2536 44.8305 90.2536 44.8305L89.1529 44.4072L89.7533 45.4732L89.8533 47.9708C89.8533 47.9708 89.0836 47.9016 88.9374 47.3012C88.7873 46.7047 88.7912 46.0351 88.7912 46.0351L87.9907 45.3539L88.591 46.1659L88.795 47.967C88.795 47.967 88.21 48.1556 88.0253 47.7553C87.8406 47.3551 87.8252 46.1659 87.8252 46.1659L85.5623 45.377L84.0653 46.2121L81.71 44.9229L82.0641 41.6632Z" fill="#FFBE9D"/>
<path d="M91.2388 33.4622C91.2388 35.8482 90.142 37.7802 88.7912 37.7802C87.4404 37.7802 86.3436 35.8482 86.3436 33.4622C86.3436 31.0762 87.4404 29.1443 88.7912 29.1443C90.142 29.1443 91.2388 31.0762 91.2388 33.4622Z" fill="#263238"/>
<path d="M89.1953 36.4294L90.5384 41.0898C91.1387 40.7858 91.2657 40.1854 91.1657 39.7121C90.827 38.115 90.6384 36.9797 90.2651 35.5788C90.2189 35.4403 89.1953 36.4294 89.1953 36.4294Z" fill="#263238"/>
<g opacity="0.4">
<g opacity="0.4">
<path opacity="0.4" d="M62.5679 92.859C62.4332 92.4742 62.2985 92.0816 62.1715 91.6776C62.0522 91.3004 61.9098 90.9117 61.8098 90.5384C61.625 89.8688 61.5173 89.1799 61.4749 88.7835C59.2044 98.0275 62.6718 104.535 68.6215 104.993C77.3151 105.663 87.9176 106.148 92.2047 105.024C100.021 102.973 102.888 96.4573 103.573 95.3797C104.258 94.306 110.473 82.9416 106.663 72.0005C102.853 61.0594 96.211 49.4409 96.211 49.4409L89.8803 51.5499C89.8803 51.5499 91.0387 56.9531 92.8744 63.4185C94.8909 70.5265 97.5925 81.6447 97.4425 88.1485C97.2924 94.6524 93.8134 99.0358 93.8134 99.0358H65.0809C65.0809 99.0358 64.4652 98.4162 62.5679 92.859Z" fill="black"/>
</g>
</g>
<path d="M1.59707 87.9369L1.80103 85.7433L54.2476 91.7853C57.207 92.1317 59.2659 94.8987 58.7464 97.8351L58.5116 99.1628L4.2294 91.2735C2.60151 91.0426 1.44698 89.5725 1.59707 87.9369Z" fill="#00BD95"/>
<g opacity="0.6">
<g opacity="0.6">
<path opacity="0.6" d="M1.59707 87.9369L1.80103 85.7433L54.2476 91.7853C57.207 92.1317 59.2659 94.8987 58.7464 97.8351L58.5116 99.1628L4.2294 91.2735C2.60151 91.0426 1.44698 89.5725 1.59707 87.9369Z" fill="black"/>
</g>
</g>
<g opacity="0.3">
<g opacity="0.3">
<g opacity="0.3">
<path opacity="0.3" d="M103.573 102.611C103.573 102.611 115.118 89.9111 117.501 79.9283C118.301 79.9206 120.164 80.0014 121.076 80.1938C121.076 80.1938 114.249 98.751 103.573 102.611Z" fill="black"/>
</g>
</g>
</g>
<path d="M117.331 75.4525C117.339 75.4525 117.358 75.5603 117.393 75.772C117.424 75.9836 117.485 76.2953 117.524 76.6994C117.597 77.5076 117.647 78.7006 117.435 80.1476C117.227 81.5946 116.731 83.2803 115.911 85.0274C115.111 86.7823 114.002 88.595 112.855 90.4922C110.543 94.2983 107.968 97.4079 106.098 99.6323C105.159 100.741 104.381 101.626 103.842 102.238C103.581 102.53 103.373 102.761 103.219 102.934C103.073 103.092 102.996 103.173 102.992 103.169C102.988 103.165 103.053 103.077 103.188 102.907C103.334 102.73 103.535 102.488 103.785 102.184C104.32 101.545 105.066 100.644 105.99 99.5399C107.833 97.2963 110.381 94.1752 112.686 90.3883C113.837 88.491 114.941 86.69 115.746 84.9505C116.569 83.2187 117.073 81.5562 117.297 80.1284C117.527 78.6968 117.501 77.5191 117.447 76.711C117.42 76.3069 117.37 75.9952 117.354 75.7796C117.331 75.568 117.323 75.4525 117.331 75.4525Z" fill="#263238"/>
<path d="M97.3732 102.519C97.3347 102.557 96.5073 101.81 95.5259 100.848C94.5446 99.8863 93.7787 99.0743 93.8172 99.0358C93.8557 98.9973 94.6831 99.7439 95.6683 100.706C96.6458 101.668 97.4117 102.48 97.3732 102.519Z" fill="#263238"/>
<path d="M63.1105 102.126C63.0643 102.103 63.3799 101.329 63.9572 100.483C64.5306 99.6323 65.1348 99.0512 65.1694 99.0896C65.2118 99.1281 64.6845 99.7593 64.1227 100.598C63.5531 101.429 63.1606 102.153 63.1105 102.126Z" fill="#263238"/>
<path d="M40.9243 109.457C40.8781 109.419 41.7517 108.861 42.4983 107.456C42.8716 106.763 43.1756 105.859 43.2718 104.82C43.368 103.789 43.2179 102.619 42.71 101.533C42.1827 100.456 41.3707 99.6053 40.5086 99.0281C39.6427 98.447 38.7499 98.116 37.9764 97.9698C36.4139 97.6657 35.4326 97.9967 35.4326 97.9351C35.4326 97.9274 35.4903 97.912 35.6057 97.8851C35.7212 97.862 35.8867 97.8081 36.1099 97.7889C36.5525 97.7196 37.2105 97.7004 38.0033 97.8351C38.7961 97.9659 39.7197 98.293 40.6126 98.878C41.5054 99.4591 42.3482 100.333 42.8908 101.449C43.4142 102.572 43.5605 103.777 43.4527 104.839C43.3488 105.901 43.0178 106.825 42.6214 107.525C42.2289 108.226 41.7979 108.726 41.4631 109.026C41.3053 109.188 41.159 109.28 41.0667 109.357C40.982 109.43 40.9281 109.465 40.9243 109.457Z" fill="#263238"/>
<path d="M21.7744 105.44C21.7206 105.443 21.6359 104.612 21.5859 103.588C21.5358 102.565 21.5435 101.734 21.5974 101.73C21.6513 101.726 21.736 102.553 21.786 103.581C21.836 104.604 21.8283 105.436 21.7744 105.44Z" fill="#263238"/>
<path d="M23.1637 105.44C23.1099 105.447 22.9598 104.62 22.8289 103.596C22.6981 102.569 22.6365 101.734 22.6904 101.726C22.7443 101.718 22.8944 102.546 23.0252 103.573C23.1599 104.597 23.2215 105.436 23.1637 105.44Z" fill="#263238"/>
<path d="M44.7958 69.8454C44.7958 69.8992 38.4189 69.9454 30.5566 69.9454C22.6904 69.9454 16.3135 69.8992 16.3135 69.8454C16.3135 69.7915 22.6904 69.7453 30.5566 69.7453C38.4189 69.7453 44.7958 69.7915 44.7958 69.8454Z" fill="#263238"/>
<path d="M24.1451 69.8261C24.0912 69.8261 24.045 62.5218 24.045 53.5164C24.045 44.5072 24.0912 37.2029 24.1451 37.2029C24.199 37.2029 24.2452 44.5034 24.2452 53.5164C24.2452 62.5256 24.199 69.8261 24.1451 69.8261Z" fill="#263238"/>
<path d="M20.2389 69.803C20.185 69.7992 20.4583 62.5025 20.847 53.501C21.2395 44.4995 21.6013 37.2029 21.6552 37.2067C21.709 37.2106 21.4358 44.5072 21.0471 53.5087C20.6584 62.5064 20.2967 69.803 20.2389 69.803Z" fill="#263238"/>
<path d="M11.4068 114.306C11.4029 114.31 11.3452 114.252 11.2374 114.137C11.1335 114.018 10.9719 113.852 10.7872 113.618C10.4062 113.16 9.89818 112.459 9.36709 111.532C8.30492 109.696 7.25045 106.825 7.262 103.542C7.27739 100.256 8.35495 97.3963 9.43252 95.5683C9.9713 94.6447 10.487 93.9481 10.868 93.494C11.0527 93.2593 11.2182 93.0976 11.3221 92.9783C11.4299 92.8629 11.4876 92.8052 11.4914 92.809C11.4953 92.8128 11.4491 92.8821 11.3529 93.0053C11.2605 93.1323 11.1027 93.3016 10.9296 93.5402C10.5678 94.0097 10.0714 94.714 9.55567 95.6376C8.51659 97.4695 7.47366 100.298 7.46211 103.542C7.45057 106.783 8.46656 109.623 9.49024 111.462C9.99824 112.39 10.487 113.098 10.8487 113.571C11.0219 113.814 11.1759 113.987 11.2682 114.11C11.3644 114.233 11.4145 114.303 11.4068 114.306Z" fill="#455A64"/>
<path d="M66.5395 84.9851L66.4202 85.2122L64.1034 89.5725L60.8553 92.7012L67.3476 101.341L72.7586 100.444C72.7586 100.444 72.1505 99.2089 69.4373 98.9703L68.3983 93.8057L72.2121 87.8945" fill="#455A64"/>
<path d="M60.8553 92.7012L67.3477 101.341L72.7547 100.444L72.012 99.7323L67.5747 100.221L61.5481 92.0354L60.8553 92.7012Z" fill="#E0E0E0"/>
<path d="M69.0063 96.5959C68.9755 96.6574 68.633 96.5343 68.2174 96.6151C67.7979 96.6844 67.5247 96.923 67.4708 96.8729C67.4131 96.8422 67.6632 96.465 68.1712 96.3765C68.6792 96.2841 69.0487 96.5458 69.0063 96.5959Z" fill="#263238"/>
<path d="M68.7023 95.322C68.6561 95.3682 68.3598 95.0911 67.9172 95.0796C67.4708 95.0642 67.1591 95.322 67.1168 95.272C67.0937 95.2489 67.1398 95.1488 67.2784 95.0411C67.4131 94.9333 67.6478 94.8294 67.9249 94.8371C68.202 94.8448 68.4291 94.9641 68.5561 95.0834C68.6869 95.1989 68.7254 95.3028 68.7023 95.322Z" fill="#263238"/>
<path d="M68.4637 93.6633C68.4098 93.7018 68.1712 93.4209 67.7748 93.3555C67.3784 93.2823 67.059 93.4671 67.0205 93.4093C67.0013 93.3863 67.059 93.2977 67.1976 93.2169C67.3361 93.1361 67.5632 93.0707 67.8172 93.1169C68.0673 93.163 68.2597 93.2977 68.3636 93.4209C68.4676 93.544 68.4906 93.648 68.4637 93.6633Z" fill="#263238"/>
<path d="M69.699 92.1394C69.6375 92.174 69.4335 91.8892 69.0641 91.7276C68.6985 91.5544 68.3521 91.589 68.3367 91.5236C68.3098 91.4659 68.71 91.3004 69.1641 91.5082C69.6144 91.7122 69.7606 92.1201 69.699 92.1394Z" fill="#263238"/>
<path d="M70.2186 90.9117C70.1955 90.9348 69.98 90.7462 69.6529 90.423C69.4682 90.2344 69.2796 90.042 69.0872 89.8495C68.9871 89.7341 68.8601 89.6417 68.7639 89.4532C68.7177 89.3569 68.7023 89.2376 68.7408 89.1183C68.7754 88.9952 68.9178 88.8951 69.0371 88.8951C69.2796 88.8913 69.4297 88.9913 69.5875 89.0722C69.7375 89.1645 69.8684 89.2761 69.98 89.3916C70.1994 89.6302 70.3264 89.8957 70.3918 90.1266C70.5226 90.5961 70.411 90.8963 70.3918 90.8848C70.3494 90.8809 70.3918 90.5923 70.2301 90.1805C70.1493 89.9765 70.0185 89.7495 69.8184 89.5455C69.7183 89.4455 69.599 89.3531 69.4681 89.2761C69.3411 89.203 69.1757 89.126 69.0602 89.1337C69.0063 89.1414 68.9832 89.1607 68.9679 89.1992C68.9525 89.2415 68.9563 89.3031 68.9794 89.3531C69.0294 89.4647 69.1526 89.5802 69.2526 89.6956C69.4335 89.9034 69.6067 90.1035 69.7799 90.3037C70.0724 90.6616 70.2417 90.8886 70.2186 90.9117Z" fill="#263238"/>
<path d="M70.438 91.0387C70.411 91.0426 70.3841 90.7539 70.6227 90.3806C70.8574 90.0266 71.427 89.5917 72.1774 89.8264C72.2352 89.8611 72.2852 89.9304 72.2929 90.0073C72.3006 90.0843 72.2814 90.142 72.2544 90.1882C72.2044 90.2844 72.139 90.3344 72.0889 90.3922C71.9773 90.4999 71.8619 90.5961 71.7426 90.6731C71.5078 90.8309 71.2692 90.9309 71.0653 90.9887C70.6535 91.1041 70.3841 91.0656 70.3879 91.0387C70.3841 91.0002 70.6419 90.9771 71.0114 90.827C71.1961 90.7539 71.4078 90.6462 71.6156 90.4884C71.7195 90.4114 71.8234 90.3229 71.9235 90.2228C71.9735 90.169 72.0235 90.1189 72.0428 90.0766C72.062 90.0266 72.0581 90.0381 72.0466 90.0266C72.0274 90.0112 71.9504 89.9996 71.8811 89.9958C71.8118 89.9919 71.7426 89.9919 71.6733 89.9996C71.5386 90.0112 71.4116 90.0458 71.2923 90.092C71.0576 90.1844 70.8805 90.3344 70.7574 90.4845C70.5149 90.7847 70.4764 91.0503 70.438 91.0387Z" fill="#263238"/>
<path d="M65.1425 91.8199C65.2002 92.174 64.9616 92.5088 64.6076 92.5704C64.2535 92.6281 63.9187 92.3895 63.8571 92.0354C63.7994 91.6814 64.038 91.3466 64.3921 91.285C64.75 91.2234 65.0848 91.4659 65.1425 91.8199Z" fill="#E0E0E0"/>
<path d="M86.2435 89.1414L87.9791 100.41L102.011 98.3238C101.73 96.9961 94.0674 95.3836 94.0674 95.3836L93.2515 88.1177L86.2435 89.1414Z" fill="#455A64"/>
<path d="M89.6417 95.4221C89.38 95.5375 89.2376 95.8685 89.3415 96.134C89.4454 96.3996 89.7841 96.5458 90.0458 96.4381C90.3074 96.3265 90.4922 95.9339 90.3575 95.6799C90.2228 95.4259 89.8187 95.2758 89.5916 95.4452" fill="#E0E0E0"/>
<path d="M87.9791 100.414L87.8483 99.2705L101.352 97.6965C101.352 97.6965 102.018 97.8735 102.014 98.3277L87.9791 100.414Z" fill="#E0E0E0"/>
<path d="M94.2867 95.2797C94.2944 95.349 93.9558 95.4298 93.6517 95.703C93.34 95.9647 93.2092 96.288 93.1437 96.2687C93.0783 96.2649 93.1207 95.8416 93.494 95.5183C93.8673 95.195 94.2944 95.2143 94.2867 95.2797Z" fill="#263238"/>
<path d="M95.8492 95.6684C95.8761 95.7338 95.5952 95.8916 95.4066 96.2187C95.2065 96.5381 95.195 96.8614 95.1257 96.8652C95.0641 96.8845 94.9564 96.492 95.1988 96.0917C95.4413 95.6953 95.8377 95.6068 95.8492 95.6684Z" fill="#263238"/>
<path d="M96.9498 97.3078C96.8883 97.3309 96.742 97.0038 96.8652 96.6036C96.9806 96.1995 97.2847 96.0032 97.3193 96.0571C97.3655 96.1071 97.1885 96.3419 97.0961 96.6728C96.9922 96.9999 97.0153 97.2886 96.9498 97.3078Z" fill="#263238"/>
<path d="M93.9173 93.6441C93.898 93.7095 93.5709 93.6633 93.1861 93.748C92.8012 93.825 92.5203 93.9982 92.4741 93.9443C92.4279 93.9019 92.6819 93.6018 93.1361 93.5094C93.5902 93.417 93.9442 93.5864 93.9173 93.6441Z" fill="#263238"/>
<path d="M93.3362 92.0278C93.34 92.0547 93.0783 92.1394 92.6319 92.1278C92.4126 92.124 92.147 92.0893 91.8622 92.0124C91.7198 91.9739 91.5736 91.9239 91.4274 91.8584C91.3581 91.8276 91.2734 91.7969 91.1888 91.7237C91.1041 91.6622 91.031 91.489 91.1041 91.3658C91.1618 91.2465 91.2811 91.1811 91.3812 91.1657C91.4851 91.1465 91.5697 91.1542 91.6506 91.1619C91.8122 91.1773 91.9661 91.208 92.1085 91.2465C92.3933 91.3273 92.6358 91.4505 92.8205 91.5736C93.1899 91.8276 93.34 92.0662 93.3169 92.0816C93.29 92.1086 93.0976 91.9162 92.732 91.7199C92.5473 91.6198 92.3163 91.5236 92.0508 91.4582C91.9161 91.4274 91.7776 91.4043 91.6275 91.3928C91.4735 91.3774 91.3465 91.3928 91.3196 91.4659C91.3081 91.4928 91.3081 91.5044 91.3465 91.5429C91.385 91.5775 91.4504 91.6083 91.5197 91.6391C91.6544 91.7006 91.793 91.7545 91.9238 91.7969C92.1855 91.8815 92.4318 91.9315 92.6435 91.9546C93.0668 92.0124 93.3323 91.9931 93.3362 92.0278Z" fill="#263238"/>
<path d="M93.2631 92.1394C93.24 92.1548 93.0668 91.9277 92.9783 91.489C92.9321 91.2696 92.9167 91.0002 92.959 90.7039C92.9821 90.5577 93.0168 90.4037 93.0745 90.2498C93.1361 90.0997 93.2092 89.8996 93.4709 89.8265C93.6094 89.7995 93.7403 89.8919 93.7941 89.9804C93.8557 90.0689 93.875 90.1497 93.9057 90.2267C93.9558 90.3883 93.975 90.5461 93.975 90.7C93.975 91.0041 93.8904 91.2735 93.7826 91.4697C93.5632 91.8738 93.29 91.997 93.2785 91.9777C93.2515 91.9469 93.4709 91.7776 93.6287 91.3966C93.7056 91.208 93.7634 90.9694 93.7518 90.7039C93.748 90.573 93.7249 90.4345 93.6787 90.2998C93.6364 90.1536 93.5594 90.042 93.5055 90.0651C93.4362 90.0727 93.3323 90.2036 93.2938 90.3306C93.24 90.4653 93.2015 90.6038 93.1745 90.7385C93.1245 91.0041 93.1207 91.2542 93.1438 91.4582C93.1861 91.8777 93.2977 92.124 93.2631 92.1394Z" fill="#263238"/>
<path d="M75.2023 62.6719L63.1682 88.8951L71.1153 93.6672L87.7559 62.1138" fill="#263238"/>
<path d="M95.0487 94.2675L86.4128 95.653L81.2444 64.8116L55.71 66.6627C55.0326 66.705 54.3515 66.6473 53.6972 66.4664C46.5237 64.4999 47.4974 55.3598 48.1863 53.8936L83.5188 52.8776C87.3518 52.766 90.6538 55.5561 91.1849 59.3545L95.0487 94.2675Z" fill="#263238"/>
<path d="M47.8399 55.3444L47.9669 42.3059C47.9669 42.3059 46.2852 33.8278 45.7849 30.4951C45.0113 25.3189 43.953 22.8636 52.4273 19.1845L54.2784 18.4687L57.1455 18.5072C60.5667 18.765 64.1689 21.8553 64.2497 23.9065L67.5478 53.2894L47.8399 55.3444Z" fill="#00BD95"/>
<path d="M48.371 22.2171C48.371 22.2171 45.9811 27.3663 46.4583 32.0575L55.3751 40.6165C57.3763 42.8409 59.874 43.7876 63.072 43.98L81.5214 45.9966L82.0333 41.1706L64.4805 36.1985C63.784 36.0715 63.4338 35.3403 62.8988 34.8746L48.371 22.2171Z" fill="#00BD95"/>
<path d="M46.9278 23.6987C46.9278 23.6987 47.0279 23.5871 47.2819 23.4601C47.5359 23.337 47.9361 23.21 48.4749 23.1253C49.0098 23.0483 49.6872 22.9906 50.4684 23.1291C50.6608 23.1753 50.8648 23.2215 51.0534 23.3293C51.2381 23.437 51.4151 23.564 51.596 23.6987C51.9539 23.9758 52.3118 24.2914 52.6736 24.6416C53.4125 25.3305 54.1129 26.2041 54.9326 27.0892C55.7485 27.9782 56.649 28.9249 57.6265 29.9216C58.6002 30.9184 59.6508 31.9613 60.7784 33.0389C61.3441 33.5738 61.9252 34.1203 62.541 34.6552C62.8527 34.9131 63.1606 35.2133 63.4569 35.4942C63.7571 35.7713 64.0996 36.0291 64.4921 36.1022H64.496H64.4998C69.7183 37.5762 75.7065 39.2695 82.0525 41.0667L82.1334 41.0898L82.1257 41.1745C82.091 41.517 82.0487 41.8864 82.0102 42.2559C81.8755 43.5374 81.7408 44.8074 81.6138 46.0004L81.6023 46.1005L81.5022 46.0889C78.8199 45.7926 76.2068 45.5078 73.6937 45.2307C72.4353 45.0922 71.2038 44.9575 69.9992 44.8228C68.7908 44.6997 67.6132 44.5804 66.4625 44.4649C65.3118 44.3379 64.1958 44.2071 63.1144 44.0493C62.033 43.8915 60.9823 43.6914 60.0164 43.3296C59.0466 42.9756 58.1807 42.4676 57.4033 41.9288C56.6221 41.3861 55.9139 40.8204 55.2482 40.2624C52.612 38.0111 50.6762 36.0022 49.3331 34.6321C48.6673 33.9433 48.1555 33.4006 47.813 33.0312C47.6475 32.8503 47.5205 32.7079 47.4281 32.6079C47.3435 32.5116 47.3011 32.4578 47.3011 32.4578C47.3011 32.4578 47.3512 32.5001 47.4397 32.5925C47.5359 32.6887 47.6667 32.8272 47.8399 33.0042C48.1978 33.3698 48.7174 33.9009 49.3831 34.5821C50.7416 35.9368 52.6928 37.9302 55.3328 40.1623C55.9986 40.7127 56.7106 41.2745 57.488 41.8095C58.2615 42.3444 59.1158 42.8409 60.0703 43.1834C61.0247 43.5374 62.0599 43.7298 63.1413 43.8838C64.2189 44.0377 65.3349 44.1686 66.4856 44.2917C67.6363 44.4072 68.8139 44.5226 70.0223 44.6419C71.2269 44.7728 72.4622 44.9075 73.7168 45.0422C76.2299 45.3154 78.8429 45.6002 81.5292 45.8927L81.4175 45.9812C81.5445 44.7882 81.6792 43.5182 81.8139 42.2367C81.8524 41.8672 81.8909 41.4978 81.9294 41.1552L82.0025 41.263C75.6564 39.4619 69.6721 37.7609 64.4536 36.2793L64.4613 36.2831C64.0072 36.1985 63.6455 35.9137 63.3376 35.6289C63.0259 35.3326 62.7449 35.0555 62.4255 34.7899C61.8098 34.2511 61.2248 33.7008 60.6591 33.162C59.5353 32.0806 58.4886 31.03 57.5149 30.0294C56.5451 29.0288 55.6484 28.0782 54.8325 27.1816C54.0128 26.2887 53.3239 25.4151 52.5966 24.7263C52.2387 24.376 51.8846 24.0566 51.5344 23.7834C51.3574 23.6487 51.1842 23.5178 51.0072 23.4139C50.834 23.31 50.6339 23.2638 50.4492 23.2177C49.6872 23.0714 49.0098 23.1215 48.4788 23.1869C47.9438 23.26 47.5436 23.3754 47.2896 23.4909C47.0394 23.6064 46.9355 23.7064 46.9278 23.6987Z" fill="#263238"/>
<path d="M51.5345 7.16197L52.4311 19.8541C52.5774 21.9246 54.3015 23.5332 56.3796 23.5332C58.6656 23.5332 60.4782 21.5975 60.3281 19.3153C60.2473 18.1069 60.1781 17.1179 60.1781 17.1179C60.1781 17.1179 63.2491 16.6407 63.2876 13.5696C63.3107 11.7955 63.0028 7.77003 62.7411 4.68358C62.5641 2.59772 60.8169 0.996773 58.7233 0.996773H56.8684C53.6703 1.18535 51.2574 3.97162 51.5345 7.16197Z" fill="#FFBE9D"/>
<path d="M60.178 17.0756C60.178 17.0756 58.2346 17.2333 56.1718 15.9364C56.1718 15.9364 57.1185 18.1493 60.1857 17.8722L60.178 17.0756Z" fill="#EB996E"/>
<path d="M62.0484 8.63207C62.0561 8.86298 61.8675 9.0631 61.625 9.07464C61.3826 9.08619 61.1825 8.90916 61.1709 8.67825C61.1632 8.44735 61.3518 8.24723 61.5943 8.23568C61.8367 8.22414 62.0368 8.40117 62.0484 8.63207Z" fill="#263238"/>
<path d="M62.21 7.76233C62.1561 7.82005 61.8251 7.57375 61.3518 7.57375C60.8784 7.56991 60.5321 7.81236 60.482 7.75463C60.4551 7.72769 60.5128 7.62763 60.6629 7.51603C60.813 7.40827 61.0632 7.30051 61.3595 7.30051C61.652 7.30051 61.9021 7.41212 62.0445 7.51988C62.1869 7.63533 62.2369 7.73924 62.21 7.76233Z" fill="#263238"/>
<path d="M57.615 8.63207C57.6226 8.86298 57.4341 9.0631 57.1916 9.07464C56.9492 9.08619 56.749 8.90916 56.7375 8.67825C56.7298 8.44735 56.9184 8.24723 57.1608 8.23568C57.4033 8.22414 57.6073 8.40117 57.615 8.63207Z" fill="#263238"/>
<path d="M57.5688 7.85058C57.5149 7.9083 57.1801 7.662 56.7106 7.662C56.2372 7.65815 55.8909 7.90061 55.8408 7.84288C55.8177 7.81594 55.8716 7.71588 56.0217 7.60428C56.1718 7.49652 56.4219 7.38876 56.7183 7.38876C57.0108 7.38876 57.2609 7.50037 57.4033 7.60812C57.5457 7.72358 57.5957 7.82749 57.5688 7.85058Z" fill="#263238"/>
<path d="M59.2813 11.3529C59.2775 11.326 59.5738 11.276 60.0472 11.2144C60.1665 11.2028 60.2819 11.1797 60.3012 11.0951C60.3281 11.0066 60.2781 10.8796 60.2204 10.7372C60.1088 10.4447 59.9895 10.1407 59.8625 9.81739C59.366 8.50893 59.0081 7.43521 59.062 7.41597C59.1159 7.39673 59.5584 8.43965 60.0549 9.74812C60.1742 10.0714 60.2896 10.3793 60.3974 10.6717C60.4436 10.8103 60.5206 10.9642 60.459 11.1451C60.4282 11.2336 60.3397 11.299 60.2627 11.3221C60.1857 11.3452 60.1165 11.3452 60.0587 11.3491C59.5815 11.3799 59.2813 11.3799 59.2813 11.3529Z" fill="#263238"/>
<path d="M57.892 11.68C57.969 11.6762 57.969 12.188 58.4077 12.5498C58.8465 12.9154 59.3929 12.8577 59.3968 12.9269C59.4045 12.9577 59.2736 13.027 59.0427 13.0347C58.8157 13.0424 58.4847 12.9693 58.2192 12.7461C57.9498 12.5228 57.8382 12.2265 57.8189 12.0149C57.7997 11.8032 57.8574 11.6762 57.892 11.68Z" fill="#263238"/>
<path d="M57.6881 6.00359C57.6419 6.13059 57.1686 6.07286 56.6144 6.13829C56.0602 6.19217 55.6138 6.35765 55.5407 6.2422C55.506 6.18832 55.5868 6.06517 55.7677 5.94202C55.9448 5.81887 56.2334 5.69957 56.5643 5.66108C56.8953 5.62645 57.2032 5.67648 57.4033 5.76114C57.6073 5.84196 57.7112 5.94202 57.6881 6.00359Z" fill="#263238"/>
<path d="M62.0368 6.39613C61.9522 6.50389 61.6289 6.39229 61.2364 6.38844C60.8438 6.3692 60.5129 6.46156 60.4397 6.34995C60.4051 6.29607 60.459 6.18832 60.6014 6.08826C60.7438 5.9882 60.9824 5.90353 61.2518 5.91123C61.5211 5.91893 61.752 6.01514 61.8906 6.12674C62.0253 6.2345 62.0715 6.3461 62.0368 6.39613Z" fill="#263238"/>
<path d="M52.5697 9.46719C52.5158 9.4441 50.4569 8.84374 50.5262 10.945C50.5916 13.0462 52.689 12.5459 52.689 12.4844C52.689 12.4228 52.5697 9.46719 52.5697 9.46719Z" fill="#FFBE9D"/>
<path d="M52.0232 11.707C52.0155 11.6993 51.9886 11.7339 51.927 11.7647C51.8693 11.7955 51.7654 11.8147 51.6538 11.7801C51.4306 11.707 51.2304 11.3606 51.2073 10.9796C51.1958 10.7872 51.2304 10.6063 51.292 10.4524C51.3497 10.2984 51.4459 10.1868 51.5576 10.1638C51.6692 10.133 51.75 10.1984 51.7769 10.2561C51.8077 10.3138 51.7962 10.3562 51.8077 10.36C51.8154 10.3639 51.85 10.3215 51.8308 10.2369C51.8192 10.1945 51.7962 10.1484 51.7423 10.1099C51.6922 10.0714 51.6153 10.0521 51.5383 10.0637C51.3767 10.0791 51.2343 10.233 51.165 10.4024C51.088 10.5717 51.0457 10.7757 51.0573 10.9912C51.0842 11.4145 51.3151 11.8032 51.6191 11.8802C51.7692 11.9148 51.8885 11.8648 51.9501 11.8147C52.0194 11.757 52.0271 11.7108 52.0232 11.707Z" fill="#EB996E"/>
<path d="M51.3997 9.39791C51.7192 9.32094 52.2733 9.61727 52.4119 9.91745C52.5504 10.2176 52.5774 10.5563 52.7159 10.8565C52.8506 11.1566 53.1585 11.426 53.4817 11.3529C53.7011 11.299 53.8627 11.0951 53.9205 10.8719C53.9782 10.6525 53.9551 10.4216 53.9282 10.1945C53.805 9.21319 53.5972 8.23953 53.5587 7.25433C53.5202 6.26528 53.6588 5.2416 54.1783 4.39879C54.6978 3.55598 55.6484 2.93638 56.6336 3.0172C57.2878 3.07108 57.8844 3.40974 58.5347 3.5021C59.3044 3.60986 60.1165 3.33662 60.6668 2.79014C60.7361 2.72087 61.067 2.50536 61.067 2.50536C61.067 2.45533 61.0208 2.01661 60.8477 1.85497C59.5623 0.665804 57.2417 0.334838 55.5445 0.762014C53.8435 1.18919 52.2502 2.3899 51.519 3.98316C50.7801 5.56872 50.9956 7.78542 51.3997 9.39791Z" fill="#263238"/>
<path d="M62.7713 4.21022C62.7713 4.21022 54.7127 1.61637 51.226 8.58974C51.226 8.58974 50.7065 6.8464 50.7065 5.90738C50.7065 5.28393 51.0798 1.56249 54.909 0.392568C54.9051 0.392568 60.6739 -1.80874 62.7713 4.21022Z" fill="#00BD95"/>
<path d="M55.8485 4.3834C56.1333 4.84522 56.6413 5.15694 57.1801 5.20697C57.7189 5.257 58.2769 5.03764 58.6387 4.6374C58.7965 5.03379 59.2236 5.30703 59.6508 5.28394C60.078 5.26085 60.4744 4.94528 60.5898 4.53349C60.8246 4.76055 61.067 4.99531 61.3749 5.10691C61.6828 5.21851 62.0676 5.17618 62.2716 4.91834C62.4756 4.65664 62.4178 4.26025 62.2177 3.99471C62.0176 3.72917 61.7059 3.57138 61.4018 3.44438C60.4436 3.04415 59.3891 2.84403 58.3616 2.98257C57.334 3.12112 56.3373 3.62141 55.6946 4.43343" fill="#263238"/>
<g opacity="0.4">
<g opacity="0.4">
<g opacity="0.4">
<g opacity="0.4">
<path opacity="0.4" d="M62.7713 4.21022C62.7713 4.21022 61.8554 3.11726 60.2083 3.04799C57.8299 2.94408 53.3811 4.27949 51.226 8.59359C51.226 8.59359 50.7065 6.85025 50.7065 5.91123C50.7065 5.28778 51.0798 1.56634 54.909 0.396416C54.9051 0.392567 60.6739 -1.80874 62.7713 4.21022Z" fill="black"/>
</g>
</g>
</g>
</g>
<path d="M51.5614 7.77387C52.7583 5.94586 54.4054 4.43343 56.2565 3.27505C58.1076 2.11667 61.1709 0.97368 63.2837 0.411808C63.9187 0.242477 64.5768 0.0962361 65.2233 0.207841C65.8699 0.319446 66.501 0.750471 66.6627 1.38546C66.8628 2.18209 65.4504 3.40974 64.7885 3.8908C64.1265 4.37185 62.7719 5.08381 62.7719 5.08381C62.7719 5.08381 62.7911 3.60601 60.4282 3.30199C57.2147 2.8902 51.5614 7.77387 51.5614 7.77387Z" fill="#00BD95"/>
<g opacity="0.3">
<g opacity="0.3">
<g opacity="0.3">
<path opacity="0.3" d="M48.725 33.9625C49.5563 35.9675 50.3953 38.4421 51.5998 40.247C52.8044 42.0519 54.413 43.6529 56.4181 44.4918C58.9311 45.5425 61.9059 45.7156 64.4074 44.6342C64.6114 44.5457 65.0116 44.4341 64.9731 44.2148C64.9731 44.2148 64.1457 44.1224 63.8879 44.0801C58.831 43.2257 58.2846 42.6023 55.8639 40.6896C54.3592 39.4966 51.011 35.8906 48.725 33.9625Z" fill="black"/>
</g>
</g>
</g>
<path d="M64.7961 48.5635C64.8077 48.5673 64.7423 48.7405 64.5845 49.033C64.4305 49.3255 64.165 49.7296 63.7686 50.1721C62.9835 51.065 61.5904 52.0309 59.8509 52.5659C58.1152 53.1008 56.4681 53.197 55.2943 53.247C54.7055 53.2701 54.2283 53.274 53.9012 53.274C53.5702 53.274 53.3894 53.2663 53.3894 53.2509C53.3894 53.2355 53.5702 53.2201 53.8974 53.197C54.2668 53.1739 54.7325 53.1431 55.2866 53.1085C56.4527 53.0238 58.0845 52.9007 59.7932 52.3773C61.498 51.85 62.8719 50.9264 63.6647 50.0759C64.4729 49.2293 64.7576 48.5365 64.7961 48.5635Z" fill="#263238"/>
<path d="M86.5668 96.5728C86.5629 96.5728 86.5514 96.5343 86.536 96.4535C86.5167 96.3611 86.4936 96.2456 86.4667 96.0994C86.409 95.7761 86.3243 95.3182 86.2204 94.7332C86.0126 93.5325 85.7124 91.8199 85.3468 89.7072C84.6271 85.4508 83.6342 79.5896 82.5374 73.1165C82.0487 70.1879 81.5792 67.3824 81.1559 64.8231L81.2559 64.9001C76.7725 65.2272 72.9356 65.5082 70.207 65.7083C68.8601 65.8006 67.7864 65.8738 67.0359 65.9238C66.678 65.943 66.3971 65.9623 66.1893 65.9738C66.1008 65.9777 66.0276 65.9815 65.9699 65.9815C65.9199 65.9815 65.8968 65.9815 65.8968 65.9777C65.8968 65.9738 65.9199 65.97 65.9699 65.9623C66.0276 65.9546 66.1008 65.9469 66.1854 65.9392C66.3894 65.9199 66.6703 65.893 67.0282 65.8584C67.7787 65.7929 68.8524 65.7044 70.1955 65.589C72.9202 65.3735 76.7532 65.0656 81.2367 64.7077L81.3213 64.7L81.3367 64.7847C81.7678 67.34 82.2411 70.1455 82.7337 73.0742C83.8074 79.5511 84.7811 85.4161 85.4853 89.6764C85.8279 91.793 86.1049 93.5094 86.2974 94.7101C86.3859 95.2951 86.459 95.753 86.509 96.0802C86.5283 96.2303 86.5475 96.3457 86.5591 96.4381C86.5668 96.5304 86.5706 96.5728 86.5668 96.5728Z" fill="#455A64"/>
<path d="M83.8382 62.06C83.8728 62.1061 83.2032 62.6834 82.4374 63.4608C81.6715 64.2343 81.1058 64.9193 81.0596 64.8809C81.0173 64.8501 81.5176 64.1035 82.295 63.3184C83.0685 62.5333 83.8074 62.0176 83.8382 62.06Z" fill="#455A64"/>
<path d="M60.2473 19.5886C60.255 19.5886 60.2704 19.6309 60.2935 19.7156C60.3204 19.8002 60.3435 19.9272 60.3666 20.0927C60.4051 20.4237 60.3858 20.924 60.178 21.4936C59.9702 22.0554 59.5661 22.6866 58.9119 23.1599C58.2615 23.6333 57.361 23.8796 56.4412 23.818C55.5176 23.7564 54.6709 23.4101 54.0436 22.9213C53.4086 22.4364 52.9737 21.8515 52.6813 21.3319C52.3926 20.8047 52.2387 20.3467 52.1617 20.0235C52.1232 19.8618 52.0963 19.7348 52.0848 19.6502C52.0732 19.5655 52.0694 19.5193 52.0771 19.5155C52.1194 19.5001 52.2156 20.2505 52.8083 21.2627C53.1084 21.7591 53.5433 22.3171 54.1591 22.7751C54.7671 23.2369 55.5791 23.5602 56.4604 23.6217C57.3379 23.6795 58.1884 23.4486 58.8118 23.0098C59.4391 22.575 59.8355 21.9785 60.0549 21.4435C60.2665 20.9048 60.3127 20.4237 60.2973 20.1004C60.2781 19.7695 60.2281 19.5924 60.2473 19.5886Z" fill="#263238"/>
<path d="M65.6775 36.3947C65.6621 36.3947 65.6351 36.2523 65.5966 35.9945C65.5543 35.6905 65.5004 35.3249 65.4427 34.8938C65.3157 33.9125 65.1502 32.6502 64.9693 31.2571C64.7962 29.8331 64.6576 28.5439 64.573 27.6087C64.5306 27.1392 64.4998 26.7621 64.4844 26.5004C64.469 26.2387 64.4652 26.0924 64.4806 26.0924C64.496 26.0924 64.5229 26.2348 64.5614 26.4927C64.6037 26.7967 64.6538 27.1623 64.7115 27.5933C64.8346 28.5747 64.9924 29.837 65.1656 31.234C65.3388 32.654 65.4927 33.9433 65.5812 34.8784C65.6274 35.3441 65.6582 35.7251 65.6736 35.9868C65.689 36.2446 65.689 36.3909 65.6775 36.3947Z" fill="#263238"/>
</g>
<defs>
<clipPath id="clip0">
<rect width="136" height="119.359" fill="white"/>
</clipPath>
</defs>
</svg>
