<svg width="120" height="120" viewBox="0 0 120 120" fill="none" xmlns="http://www.w3.org/2000/svg">
<path d="M24.641 103.226L18.018 118.216L34.2124 110.717H85.7999L101.994 118.216L95.3712 103.226" fill="#A9B1B5"/>
<path d="M111.374 40.7551C120.289 31.84 120.289 17.3854 111.374 8.46981C102.459 -0.445799 88.0041 -0.445329 79.0885 8.46981L111.374 40.7551Z" fill="#A9B1B5"/>
<path d="M8.63832 40.7551C-0.276818 31.84 -0.276818 17.3854 8.63832 8.46981C17.5535 -0.445799 32.008 -0.445329 40.9236 8.46981L8.63832 40.7551Z" fill="#A9B1B5"/>
<path d="M12.8424 5.15587C11.3478 6.07462 9.9333 7.17547 8.63862 8.47039C-0.276756 17.3855 -0.276756 31.8401 8.63862 40.7557L16.1569 33.2375C8.5362 25.6168 7.43534 13.9519 12.8424 5.15587Z" fill="#8A8F91"/>
<path d="M114.688 12.6741C113.769 11.1795 112.669 9.76502 111.374 8.47034C102.459 -0.445038 88.004 -0.445038 79.0884 8.47034L86.6066 15.9886C94.2275 8.36792 105.892 7.26729 114.688 12.6741Z" fill="#8A8F91"/>
<path d="M60.0053 117.875C87.6277 117.875 110.02 95.4828 110.02 67.8603C110.02 40.2379 87.6277 17.8455 60.0053 17.8455C32.3828 17.8455 9.99042 40.2379 9.99042 67.8603C9.99042 95.4828 32.3828 117.875 60.0053 117.875Z" fill="#DD636E"/>
<path d="M102 67.8517C102 73.659 100.813 79.1954 98.6967 84.2277C97.812 86.3157 96.7611 88.318 95.5625 90.216C88.1236 102.024 74.9748 109.852 59.9973 109.852C36.8008 109.852 17.9969 91.0674 17.9969 67.8519C17.9969 52.8719 25.84 39.7352 37.6333 32.3034C40.675 30.3844 43.9829 28.8457 47.4859 27.754C51.4311 26.5291 55.6454 25.8682 59.9973 25.8682C83.1938 25.8677 102 44.6552 102 67.8517Z" fill="white"/>
<path d="M102 67.8517C102 73.659 100.813 79.1954 98.6968 84.2277C97.812 86.3157 96.7611 88.318 95.5625 90.216C89.0867 94.2969 81.4173 96.6559 73.1961 96.6559C49.9996 96.6559 31.1934 77.8686 31.1934 54.6531C31.1934 46.4367 33.5526 38.7743 37.6333 32.3034C40.675 30.3844 43.9829 28.8457 47.4859 27.754C51.4311 26.5291 55.6454 25.8682 59.9973 25.8682C83.1938 25.8677 102 44.6552 102 67.8517Z" fill="#F2F3F7"/>
<path d="M28.4187 103.226C8.88705 83.6943 8.88705 52.0272 28.4187 32.4954C37.7039 23.2102 49.732 18.3488 61.8948 17.892C48.4731 17.3878 34.8872 22.2492 24.6408 32.4954C5.10917 52.027 5.10917 83.6943 24.6408 103.226C34.8874 113.473 48.4738 118.334 61.8962 117.829C49.7331 117.373 37.7043 112.512 28.4187 103.226Z" fill="#AF0E0E"/>
<path d="M60.0053 74.66C63.7607 74.66 66.805 71.6157 66.805 67.8603C66.805 64.105 63.7607 61.0607 60.0053 61.0607C56.2499 61.0607 53.2056 64.105 53.2056 67.8603C53.2056 71.6157 56.2499 74.66 60.0053 74.66Z" fill="#757C84"/>
<path d="M16.2305 67.8606C16.2305 91.9988 35.8682 111.636 60.0062 111.636C84.1442 111.636 103.782 91.9986 103.782 67.8606C103.782 43.7226 84.1442 24.0848 60.0062 24.0848C35.8682 24.0848 16.2305 43.7226 16.2305 67.8606ZM93.8898 46.2335L90.6416 48.1089C89.7885 48.6014 89.4962 49.6924 89.9888 50.5453C90.3193 51.1174 90.9186 51.4373 91.535 51.4373C91.8376 51.4373 92.1446 51.3602 92.4252 51.198L95.6773 49.3204C98.315 54.3747 99.9092 60.0557 100.173 66.0766H90.2136C89.2283 66.0766 88.43 66.8751 88.43 67.8601C88.43 68.8452 89.2283 69.6437 90.2136 69.6437H100.173C99.9092 75.6648 98.315 81.3456 95.6773 86.3999L92.4252 84.5221C91.5723 84.0294 90.4808 84.3219 89.9888 85.1748C89.4964 86.0279 89.7887 87.1187 90.6416 87.6111L93.8898 89.4868C90.7381 94.4073 86.5449 98.5991 81.6235 101.749L79.7493 98.5032C79.2568 97.6499 78.1656 97.3576 77.3129 97.8505C76.4598 98.3429 76.1675 99.4339 76.6602 100.287L78.5361 103.536C73.4818 106.172 67.8018 107.764 61.7814 108.027V98.0755C61.7814 97.0904 60.9831 96.2919 59.9978 96.2919C59.0125 96.2919 58.2142 97.0904 58.2142 98.0755V108.026C52.1952 107.761 46.5163 106.166 41.4637 103.529L43.3359 100.287C43.8283 99.4334 43.536 98.3427 42.6832 97.8502C41.8303 97.3576 40.739 97.6499 40.2468 98.503L38.3772 101.741C33.4586 98.5906 29.2685 94.3988 26.1187 89.4793L29.3547 87.6111C30.2079 87.1187 30.5001 86.0277 30.0075 85.1748C29.5148 84.3217 28.4236 84.0296 27.5711 84.5221L24.3321 86.3921C21.6966 81.3395 20.104 75.6615 19.8401 69.6433H29.7827C30.768 69.6433 31.5663 68.8448 31.5663 67.8597C31.5663 66.8746 30.768 66.0761 29.7827 66.0761H19.8394C20.1033 60.0581 21.6963 54.3796 24.3314 49.3272L27.5704 51.1973C27.8515 51.3595 28.158 51.4366 28.4606 51.4366C29.077 51.4366 29.6765 51.1164 30.0068 50.5446C30.4992 49.6914 30.2069 48.6007 29.354 48.1082L26.118 46.24C29.2673 41.3205 33.4579 37.129 38.3765 33.978L40.2461 37.2164C40.5766 37.7885 41.1759 38.1084 41.7923 38.1084C42.0949 38.1084 42.4019 38.0313 42.6824 37.8691C43.5356 37.3767 43.8278 36.2857 43.3352 35.4328L41.463 32.1905C46.5156 29.553 52.1943 27.9586 58.2135 27.693V37.6439C58.2135 38.629 59.0118 39.4275 59.9971 39.4275C60.9824 39.4275 61.7807 38.629 61.7807 37.6439V27.6933C67.8011 27.956 73.4811 29.5484 78.5354 32.1844L76.6595 35.4335C76.1671 36.2866 76.4593 37.3774 77.3122 37.8698C77.593 38.032 77.8998 38.1091 78.2024 38.1091C78.8188 38.1091 79.4183 37.7892 79.7485 37.2171L81.6228 33.971C86.5447 37.1212 90.7381 41.3132 93.8898 46.2335Z" fill="black"/>
<path d="M73.8146 66.0771H68.4018C67.7007 62.7733 65.0938 60.1664 61.7898 59.4651V44.7211C61.7898 43.736 60.9915 42.9375 60.0062 42.9375C59.0209 42.9375 58.2226 43.736 58.2226 44.7211V59.4651C54.3433 60.2885 51.423 63.7394 51.423 67.8607C51.423 72.5934 55.2733 76.4439 60.0062 76.4439C64.1275 76.4439 67.5784 73.5238 68.4018 69.6442H73.8146C74.8 69.6442 75.5982 68.8457 75.5982 67.8607C75.5982 66.8756 74.8 66.0771 73.8146 66.0771ZM60.0062 72.8767C57.2404 72.8767 54.9902 70.6265 54.9902 67.8607C54.9902 65.0948 57.2404 62.8446 60.0062 62.8446C62.7721 62.8446 65.0223 65.0948 65.0223 67.8607C65.0223 70.6265 62.7719 72.8767 60.0062 72.8767Z" fill="black"/>
<path d="M110.113 42.0166C110.447 42.3512 110.901 42.539 111.374 42.539C111.847 42.539 112.301 42.351 112.635 42.0166C121.837 32.8153 122.214 18.0822 113.771 8.4253L116.3 5.50077C116.956 4.74187 116.859 3.58757 116.076 2.94984C115.318 2.33343 114.192 2.48531 113.553 3.22406L111.231 5.90905C106.776 2.08546 101.164 0 95.2315 0C88.6545 0 82.471 2.56242 77.8217 7.21499C77.128 7.9092 77.1338 9.03748 77.8276 9.73123L93.9668 25.8705L92.5287 27.5336C90.4791 25.882 88.2894 24.3745 85.9705 23.0301C85.0946 22.5225 83.9722 22.8377 83.4957 23.7309C83.0462 24.5737 83.337 25.6272 84.1637 26.106C99.0563 34.731 108.237 50.575 108.237 67.8606C108.237 94.4958 86.5344 116.157 59.8841 116.091C33.4406 116.025 11.842 94.4265 11.7759 67.9829C11.7096 41.3327 33.3712 19.6303 60.0062 19.6303C65.9422 19.6303 71.7156 20.6896 77.1931 22.7819C78.0861 23.1229 79.0885 22.6879 79.4609 21.8076L79.4612 21.8069C79.8561 20.8729 79.3923 19.8028 78.4447 19.4416C72.5659 17.1991 66.3723 16.0636 60.006 16.0636C48.0269 16.0636 36.6705 20.1051 27.4879 27.539L26.0456 25.871L42.1844 9.73193C42.8783 9.03795 42.884 7.90967 42.1902 7.21569C37.5412 2.56242 31.3579 0 24.7809 0C18.8486 0 13.237 2.08546 8.78201 5.90835L6.46029 3.22359C5.82162 2.48484 4.69498 2.33296 3.93748 2.94937C3.15374 3.5871 3.05717 4.74163 3.71319 5.5003L6.24186 8.42389C2.31421 12.9091 0.168274 18.5957 0.168274 24.6128C0.168274 31.1749 2.71874 37.3448 7.35115 41.9908C7.52623 42.1663 7.7306 42.3149 7.96099 42.4073C8.65334 42.6848 9.40591 42.5104 9.89997 42.0168L16.1573 35.7592C16.8536 35.0629 16.8536 33.9337 16.1573 33.2374L16.1566 33.2367C15.4603 32.5403 14.3311 32.5403 13.6347 33.2367L8.69084 38.1806C5.48319 34.3895 3.73545 29.6355 3.73545 24.6128C3.73545 18.9914 5.92451 13.7065 9.89974 9.73147C13.8745 5.75624 19.1596 3.56718 24.7809 3.56718C29.8038 3.56718 34.5576 5.31491 38.3488 8.52256L19.2227 27.6487C18.5264 28.345 18.5264 29.4742 19.2227 30.1706L19.2234 30.1713C19.9197 30.8676 21.0489 30.8676 21.7453 30.1713L23.5169 28.3996L24.794 29.8767C24.3164 30.3203 23.8431 30.7708 23.3798 31.2342C13.5965 41.0174 8.20873 54.025 8.20873 67.8606C8.20873 81.2863 13.2827 93.9312 22.522 103.608L16.3863 117.495C16.0861 118.174 16.2384 118.968 16.7678 119.489C17.1086 119.824 17.56 120 18.0182 120C18.2716 120 18.5273 119.946 18.7671 119.835L34.0982 112.735C41.8883 117.25 50.7613 119.659 60.0057 119.659C69.2502 119.659 78.1231 117.25 85.9133 112.735L101.245 119.835C101.485 119.946 101.74 120 101.994 120C102.452 120 102.903 119.823 103.244 119.488C103.774 118.968 103.926 118.174 103.626 117.495L97.4902 103.608C106.73 93.9315 111.804 81.286 111.804 67.8606C111.804 53.2169 105.668 39.5376 95.2273 29.8666L96.4955 28.3996L110.113 42.0166ZM21.5613 114.61L25.2478 106.266C26.9252 107.787 28.6874 109.186 30.5212 110.46L21.5613 114.61ZM89.491 110.46C91.3247 109.186 93.0872 107.788 94.7644 106.266L98.4507 114.61L89.491 110.46ZM95.2315 3.56718C100.853 3.56718 106.138 5.75624 110.113 9.73123C117.894 17.512 118.296 29.92 111.321 38.1798L81.6634 8.52256C85.4544 5.31491 90.2086 3.56718 95.2315 3.56718Z" fill="black"/>
</svg>
