<svg width="204" height="60" viewBox="0 0 204 60" fill="none" xmlns="http://www.w3.org/2000/svg">
<path d="M196.187 59.2506H7.67214C3.85012 59.2506 0.758789 56.1499 0.758789 52.3372V7.67214C0.758789 3.85012 3.85949 0.758789 7.67214 0.758789H196.187C200.009 0.758789 203.101 3.85949 203.101 7.67214V52.3279C203.101 56.1499 200 59.2506 196.187 59.2506Z" fill="black"/>
<path d="M196.187 60H7.67213C3.43794 60 0 56.5621 0 52.3279V7.67213C0 3.43794 3.43794 0 7.67213 0H196.187C200.422 0 203.859 3.43794 203.859 7.67213V52.3279C203.85 56.5621 200.412 60 196.187 60ZM7.67213 1.51756C4.27166 1.51756 1.51756 4.28103 1.51756 7.6815V52.3372C1.51756 55.7377 4.28103 58.4918 7.67213 58.4918H196.187C199.588 58.4918 202.342 55.7283 202.342 52.3372V7.67213C202.342 4.27166 199.578 1.5082 196.187 1.5082H7.67213V1.51756Z" fill="#A7A9AC"/>
<path d="M102.838 32.8155C99.2974 32.8155 96.4028 35.5134 96.4028 39.223C96.4028 42.9139 99.288 45.6305 102.838 45.6305C106.379 45.6305 109.274 42.9139 109.274 39.223C109.265 35.5134 106.379 32.8155 102.838 32.8155ZM102.838 43.1106C100.899 43.1106 99.2225 41.5088 99.2225 39.223C99.2225 36.9186 100.899 35.3355 102.838 35.3355C104.778 35.3355 106.454 36.9092 106.454 39.223C106.454 41.5088 104.778 43.1106 102.838 43.1106ZM88.8056 32.8155C85.2646 32.8155 82.37 35.5134 82.37 39.223C82.37 42.9139 85.2553 45.6305 88.8056 45.6305C92.3466 45.6305 95.2412 42.9139 95.2412 39.223C95.2318 35.5134 92.3466 32.8155 88.8056 32.8155ZM88.8056 43.1106C86.8665 43.1106 85.1897 41.5088 85.1897 39.223C85.1897 36.9186 86.8665 35.3355 88.8056 35.3355C90.7447 35.3355 92.4215 36.9092 92.4215 39.223C92.4215 41.5088 90.7447 43.1106 88.8056 43.1106ZM72.1124 34.7828V37.4994H78.6136C78.4168 39.0263 77.911 40.1411 77.1335 40.9186C76.1873 41.8647 74.7073 42.9045 72.1124 42.9045C68.103 42.9045 64.9742 39.6727 64.9742 35.6727C64.9742 31.6727 68.103 28.4408 72.1124 28.4408C74.2763 28.4408 75.8501 29.2933 77.0117 30.3799L78.9321 28.4596C77.3021 26.9045 75.1475 25.7148 72.1124 25.7148C66.6229 25.7148 62.014 30.1832 62.014 35.6633C62.014 41.1528 66.6229 45.6118 72.1124 45.6118C75.0726 45.6118 77.3115 44.6376 79.0539 42.8202C80.8524 41.0216 81.4051 38.5017 81.4051 36.4596C81.4051 35.8319 81.3583 35.2418 81.2553 34.764H72.1124V34.7828ZM140.375 36.8905C139.841 35.4572 138.211 32.8155 134.885 32.8155C131.588 32.8155 128.843 35.4104 128.843 39.223C128.843 42.8109 131.56 45.6305 135.204 45.6305C138.145 45.6305 139.841 43.8319 140.543 42.7921L138.361 41.3401C137.63 42.4081 136.637 43.1106 135.204 43.1106C133.77 43.1106 132.749 42.4549 132.094 41.1715L140.665 37.6305L140.375 36.8905ZM131.635 39.0263C131.56 36.5533 133.555 35.2886 134.988 35.2886C136.103 35.2886 137.049 35.8507 137.368 36.6469L131.635 39.0263ZM124.674 45.2465H127.494V26.4081H124.674V45.2465ZM120.056 34.2488H119.963C119.335 33.4994 118.117 32.8155 116.59 32.8155C113.386 32.8155 110.445 35.6352 110.445 39.2511C110.445 42.839 113.386 45.6305 116.59 45.6305C118.117 45.6305 119.335 44.9467 119.963 44.1785H120.056V45.0966C120.056 47.5509 118.745 48.8624 116.637 48.8624C114.913 48.8624 113.845 47.6259 113.405 46.5767L110.951 47.5977C111.653 49.2933 113.527 51.3823 116.628 51.3823C119.925 51.3823 122.717 49.4432 122.717 44.7031V33.1996H120.047V34.2488H120.056ZM116.834 43.1106C114.895 43.1106 113.265 41.4807 113.265 39.2511C113.265 36.9935 114.895 35.3448 116.834 35.3448C118.754 35.3448 120.253 36.9935 120.253 39.2511C120.253 41.4807 118.745 43.1106 116.834 43.1106ZM153.564 26.4081H146.829V45.2465H149.639V38.1083H153.564C156.684 38.1083 159.747 35.8507 159.747 32.2629C159.747 28.675 156.684 26.4081 153.564 26.4081ZM153.639 35.4853H149.639V29.031H153.639C155.738 29.031 156.937 30.7734 156.937 32.2629C156.937 33.7148 155.738 35.4853 153.639 35.4853ZM171.007 32.7781C168.974 32.7781 166.866 33.6774 165.995 35.6633L168.487 36.7031C169.021 35.6633 170.014 35.3261 171.054 35.3261C172.506 35.3261 173.986 36.1973 174.014 37.7523V37.949C173.508 37.6586 172.412 37.2184 171.082 37.2184C168.393 37.2184 165.658 38.6984 165.658 41.4619C165.658 43.9818 167.859 45.6024 170.333 45.6024C172.225 45.6024 173.265 44.75 173.92 43.757H174.014V45.209H176.731V37.9865C176.731 34.6422 174.239 32.7781 171.007 32.7781ZM170.67 43.1013C169.752 43.1013 168.468 42.6422 168.468 41.4994C168.468 40.0474 170.07 39.4853 171.447 39.4853C172.684 39.4853 173.265 39.7476 174.014 40.113C173.799 41.8647 172.3 43.1013 170.67 43.1013ZM186.614 33.1903L183.391 41.3589H183.297L179.953 33.1903H176.927L181.939 44.6001L179.082 50.9514H182.014L189.742 33.1903H186.614ZM161.293 45.2465H164.103V26.4081H161.293V45.2465Z" fill="white"/>
<path d="M15.8969 11.4102C15.4567 11.8692 15.2037 12.5905 15.2037 13.5273V46.82C15.2037 47.7568 15.466 48.4687 15.8969 48.9371L16.0094 49.0495L34.6604 30.3985V30.1736V29.9582L16.0094 11.3071L15.8969 11.4102Z" fill="#5BC9F4"/>
<path d="M40.8805 36.6188L34.6604 30.3987V30.1739V29.9584L40.8805 23.7383L41.0211 23.8226L48.3841 28.0099C50.4918 29.209 50.4918 31.1575 48.3841 32.3565L41.0211 36.5345L40.8805 36.6188Z" fill="url(#paint0_linear)"/>
<path d="M41.0211 36.5345L34.6604 30.1738L15.897 48.9373C16.5902 49.668 17.733 49.7617 19.0258 49.031L41.0211 36.5345Z" fill="url(#paint1_linear)"/>
<path d="M41.0211 23.8132L19.0258 11.326C17.733 10.5954 16.5902 10.6797 15.897 11.4197L34.6604 30.1738L41.0211 23.8132Z" fill="url(#paint2_linear)"/>
<path d="M69.2552 12.4784C68.6932 11.9725 67.9438 11.654 67.1194 11.654C65.2646 11.654 63.8407 13.1809 63.8407 15.0638C63.8407 16.9374 65.2646 18.4643 67.1194 18.4643C68.7119 18.4643 69.8735 17.5369 69.9484 16.0755H67.4285V15.0357H71.3161C71.3161 18.1458 69.6581 19.6165 67.1194 19.6165C64.5995 19.6165 62.6417 17.5837 62.6417 15.0732C62.6417 12.5533 64.5995 10.5205 67.1194 10.5205C68.2904 10.5205 69.3489 10.9702 70.1171 11.6915L69.2552 12.4784Z" fill="white"/>
<path d="M78.192 10.6138V11.7285H74.1358V14.5576H77.6768V15.6817H74.1358V18.3608H78.3138V19.4756H72.9368V10.6138H78.192Z" fill="white"/>
<path d="M85.9485 10.6138V11.7473H83.26V19.4756H82.0516V11.7473H79.363V10.6138H85.9485Z" fill="white"/>
<path d="M91.6909 10.6138V19.4756H90.4918V10.6138H91.6909Z" fill="white"/>
<path d="M99.8501 10.6138V11.7473H97.1616V19.4756H95.9532V11.7473H93.2646V10.6138H99.8501Z" fill="white"/>
<path d="M108.29 10.5107C110.829 10.5107 112.796 12.5435 112.796 15.0634C112.796 17.574 110.829 19.6068 108.29 19.6068C105.771 19.6068 103.813 17.574 103.813 15.0634C103.813 12.5435 105.771 10.5107 108.29 10.5107ZM108.29 18.4452C110.155 18.4452 111.588 16.937 111.588 15.0634C111.588 13.1805 110.164 11.663 108.29 11.663C106.436 11.663 105.012 13.1805 105.012 15.0634C105.012 16.9463 106.436 18.4452 108.29 18.4452Z" fill="white"/>
<path d="M119.869 19.4756L115.831 12.7964V19.4756H114.632V10.6138H115.813L119.813 17.2367V10.6138H121.012V19.4756H119.869Z" fill="white"/>
<defs>
<linearGradient id="paint0_linear" x1="47.0166" y1="30.1763" x2="10.5898" y2="30.1763" gradientUnits="userSpaceOnUse">
<stop stop-color="#FEE000"/>
<stop offset="0.1941" stop-color="#FCCF0B"/>
<stop offset="0.5469" stop-color="#FAB318"/>
<stop offset="0.8279" stop-color="#F9A21B"/>
<stop offset="1" stop-color="#F99B1C"/>
</linearGradient>
<linearGradient id="paint1_linear" x1="37.5634" y1="33.6308" x2="3.30241" y2="67.8918" gradientUnits="userSpaceOnUse">
<stop stop-color="#EF4547"/>
<stop offset="1" stop-color="#C6186D"/>
</linearGradient>
<linearGradient id="paint2_linear" x1="3.14971" y1="-7.69317" x2="31.1229" y2="20.28" gradientUnits="userSpaceOnUse">
<stop stop-color="#279E6F"/>
<stop offset="0.3168" stop-color="#4DAB6D"/>
<stop offset="0.7398" stop-color="#6ABA6A"/>
<stop offset="1" stop-color="#74C169"/>
</linearGradient>
</defs>
</svg>
