<svg width="282" height="317" viewBox="0 0 282 317" fill="none" xmlns="http://www.w3.org/2000/svg">
<path d="M33.1505 307.646L33.0365 308.821L32.662 312.723L24.7499 316.105L21.3582 311.943L25.5042 308.301L25.8841 308.139L25.9329 308.621L33.1505 307.646Z" fill="#3B455A"/>
<path d="M33.552 307.591L33.1504 307.645H32.7271L25.9328 308.626L19.6214 242.284L18.8508 239.174C24.766 239.261 31.7991 239.347 38.8865 239.407L33.552 307.591Z" fill="#C1796B"/>
<path d="M65.179 239.369L63.7246 256.607L49.1212 301.3L41.985 300.351L41.871 301.224L41.833 301.218L47.0915 255.161L42.5873 239.429C50.8631 239.477 58.9653 239.477 65.179 239.369Z" fill="#C1796B"/>
<path d="M49.1213 301.3L49.5662 301.359L52.8331 305.83L48.5135 309.298L41.4587 304.318L41.8712 301.224L48.8391 302.15L49.1213 301.3Z" fill="#3B455A"/>
<path d="M49.1212 301.3L48.839 302.15L41.8711 301.224L41.9851 300.351L49.1212 301.3Z" fill="#3E3D3B"/>
<path d="M15.6981 139.135C14.7809 143.449 11.3621 146.614 8.02466 149.605C10.4884 143.297 13.0444 137.737 15.4973 132.941C15.9423 135.006 16.1376 137.065 15.6981 139.135Z" fill="#8EC3CB"/>
<path d="M3.33049 238.908C3.33049 238.908 9.78289 239.038 18.851 239.168C24.7661 239.255 31.7992 239.342 38.8865 239.396C40.1184 239.407 41.3557 239.412 42.5876 239.423C50.8688 239.472 58.9655 239.472 65.1791 239.364C69.8732 239.282 73.4929 239.136 75.2946 238.908L60.1485 160.666L60.0888 160.422L56.0622 144.045L50.185 120.163L35.5382 113.194C33.9753 112.944 32.5698 112.234 31.3596 111.205L30.8278 110.95C30.996 111.622 31.2022 112.245 31.4519 112.809C31.555 113.037 31.6581 113.259 31.7721 113.465C32.9931 115.687 34.8816 117.778 34.8327 120.309C34.8219 120.781 34.7459 121.241 34.6265 121.696C34.4149 122.52 34.0676 123.328 33.7637 124.124C30.5131 132.627 34.0893 142.224 39.3749 149.41C42.0829 153.09 45.6591 156.282 47.2003 160.579C47.4662 161.316 47.629 162.107 47.705 162.909C48.0631 166.784 46.2398 171 42.5007 171.634C41.6216 171.781 40.6882 171.726 39.8796 172.1C37.1174 173.379 38.3113 177.899 36.2708 180.153C34.9521 181.611 32.7163 181.66 30.7518 181.606C30.106 181.589 29.4277 181.557 28.8905 181.205C27.74 180.457 27.8539 178.793 27.5121 177.465C26.8988 175.059 24.4948 173.482 22.069 172.951C19.6433 172.42 17.1253 172.702 14.6398 172.707C11.5357 172.713 8.36108 172.252 5.626 170.789C4.55151 170.215 3.55298 169.467 2.70641 168.589C-2.18309 198.476 3.33049 238.908 3.33049 238.908Z" fill="#8EC3CB"/>
<path d="M30.752 110.647C29.3791 104.707 30.866 95.3265 34.8438 91.8257C36.4066 90.4492 38.192 90.1999 40.1836 90.1837C41.1279 90.1783 41.4426 90.4221 41.9256 90.3354C43.4071 92.2376 44.4002 94.5624 44.2211 96.7572C44.0692 98.6051 43.0001 100.014 42.9133 102.003C42.745 105.618 37.568 109.248 39.5541 112.836C38.1323 113.297 36.7865 113.394 35.5329 113.194L31.3544 111.205C31.1482 111.031 30.9474 110.842 30.752 110.647Z" fill="#C1796B"/>
<path d="M35.5383 113.194C33.9754 112.944 32.5698 112.234 31.3596 111.205L35.5383 113.194Z" fill="#E1CFB5"/>
<path d="M42.9132 102.003C43 100.02 44.0637 98.6052 44.2211 96.7572C44.4056 94.5624 43.4125 92.2376 41.9255 90.3355C42.1426 90.2975 42.3976 90.1946 42.7558 89.9669C43.4667 89.5226 44.1071 88.3629 44.4381 87.4199C46.2833 88.5851 47.6291 90.6931 47.9981 93.9013C48.3997 97.3913 48.3943 101.071 47.195 104.561C45.9956 108.051 43.4396 111.335 40.1238 112.63C39.9284 112.706 39.7385 112.771 39.5485 112.836C37.5677 109.248 42.745 105.618 42.9132 102.003Z" fill="#C1796B"/>
<path d="M0.123308 163.695C0.438059 165.549 1.39859 167.229 2.71186 168.589C2.81497 167.949 2.92351 167.315 3.0429 166.681C2.92893 167.31 2.8204 167.944 2.71186 168.589C3.56386 169.467 4.55696 170.214 5.63145 170.789C8.36653 172.252 11.5412 172.707 14.6453 172.707C17.1307 172.702 19.6487 172.42 22.0745 172.951C24.5002 173.482 26.9043 175.059 27.5175 177.465C27.854 178.793 27.7454 180.457 28.8959 181.205C29.4331 181.557 30.1169 181.584 30.7573 181.606C32.7217 181.66 34.9521 181.611 36.2763 180.153C38.3167 177.899 37.1283 173.379 39.885 172.1C40.6936 171.726 41.627 171.781 42.5062 171.634C46.2398 171.006 48.0686 166.784 47.7104 162.909C47.6344 162.107 47.4716 161.316 47.2057 160.579C45.6645 156.282 42.0883 153.09 39.3804 149.41C34.0947 142.224 30.5185 132.627 33.7691 124.124C34.073 123.322 34.4203 122.52 34.632 121.696C34.7513 121.241 34.8273 120.781 34.8382 120.309C34.887 117.773 32.9985 115.686 31.7721 113.465C31.6581 113.259 31.5496 113.036 31.4519 112.809C31.2077 112.251 31.0015 111.622 30.8278 110.95C30.8007 110.847 30.779 110.75 30.7518 110.647C27.002 106.913 25.4988 99.9762 27.9679 94.79C28.109 94.4974 28.2555 94.2047 28.4129 93.9229C28.2555 94.2047 28.109 94.492 27.9679 94.79C25.4988 99.9762 27.002 106.913 30.7518 110.647C29.3789 104.707 30.8658 95.3265 34.8436 91.8257C36.4065 90.4492 38.1919 90.1999 40.1835 90.1837C41.1278 90.1783 41.4425 90.4221 41.9255 90.3354C42.1426 90.2975 42.3976 90.1945 42.7558 89.9669C43.4667 89.5225 44.107 88.3628 44.4381 87.4199C46.2832 88.585 47.629 90.6931 47.998 93.9013C48.3996 97.3912 48.3942 101.071 47.1949 104.561C45.9956 108.051 43.4396 111.335 40.1238 112.63C39.9285 112.706 39.7385 112.771 39.5486 112.836C39.7114 113.134 39.923 113.432 40.1944 113.73C42.0123 115.724 44.9211 116.19 47.6019 116.532C47.9275 116.575 48.2694 116.613 48.5733 116.494C49.0779 116.299 49.333 115.719 49.3384 115.182C49.3438 114.646 49.1485 114.126 49.002 113.611C47.4445 108.203 50.2013 102.025 50.6625 96.5729C51.1238 91.132 49.9951 85.2089 45.6211 81.5292C44.8776 81.7352 44.1559 82.0115 43.4721 82.3529C43.4016 82.2608 43.331 82.1741 43.2605 82.0874C36.9275 74.4951 27.9896 80.9873 23.1815 86.7858C19.2146 91.5656 15.9097 97.0552 14.3956 103.119C12.9793 108.793 12.5071 117.128 13.1041 122.927C13.4514 126.314 14.7972 129.635 15.5027 132.947C15.9423 135.011 16.143 137.071 15.6981 139.141C14.7809 143.454 11.3621 146.619 8.02464 149.611C7.72075 150.391 7.41685 151.177 7.11838 151.979C6.81991 152.781 6.52144 153.588 6.22297 154.412C6.03303 154.943 5.84852 155.48 5.66944 156.032C5.84852 155.485 6.03303 154.943 6.22297 154.412C6.52144 153.588 6.81991 152.775 7.11838 151.979C7.41685 151.177 7.72075 150.391 8.02464 149.611C7.56337 150.023 7.1021 150.434 6.65168 150.846C2.93436 154.222 -0.723264 158.747 0.123308 163.695ZM33.4164 88.5362C33.9102 88.2111 34.4149 87.9185 34.9304 87.6583C34.4149 87.9185 33.9102 88.2111 33.4164 88.5362Z" fill="#3B455A"/>
<path d="M147.375 135.935L62.8846 122.145L44.5657 234.072L129.056 247.862L147.375 135.935Z" fill="#3B455A"/>
<g opacity="0.26">
<path opacity="0.26" d="M51.6664 230.292L52.9308 230.498L127.174 244.972L142.537 138.805L138.907 139.227L51.6664 230.292Z" fill="#040909"/>
</g>
<path d="M142.536 138.805L66.5658 126.405L49.6176 229.957L125.587 242.357L142.536 138.805Z" fill="#F7F7F7"/>
<g opacity="0.05">
<path opacity="0.05" d="M66.2156 125.945L120.857 134.86L58.6561 171.591L66.2156 125.945Z" fill="black"/>
</g>
<g opacity="0.12">
<path opacity="0.12" d="M121.137 134.751L88.1403 129.365L87.6369 132.44L120.633 137.826L121.137 134.751Z" fill="black"/>
</g>
<path d="M115.897 124.346L115.387 124.265L115.442 123.924C115.968 120.694 113.369 117.583 109.635 116.976L104.713 116.174C100.979 115.567 97.5225 117.686 96.9961 120.916L96.9419 121.257L96.4317 121.176C92.6982 120.569 89.2413 122.688 88.7149 125.918L87.6459 132.448L120.64 137.835L121.709 131.305C122.23 128.069 119.631 124.953 115.897 124.346ZM110.487 123.604L101.793 122.184C100.903 122.038 100.296 121.198 100.442 120.314C100.589 119.431 101.43 118.83 102.32 118.976L111.013 120.396C111.903 120.542 112.511 121.382 112.365 122.265C112.218 123.143 111.372 123.745 110.487 123.604Z" fill="#BEC6CC"/>
<g opacity="0.47">
<g opacity="0.47">
<path opacity="0.47" d="M83.0547 158.818C79.3374 158.211 75.62 157.604 71.9027 156.997C71.588 156.948 71.2786 157.165 71.2298 157.479C70.6274 161.17 70.0196 164.86 69.4173 168.551C69.3684 168.865 69.5909 169.169 69.9057 169.223C73.623 169.83 77.3403 170.437 81.0577 171.044C81.2259 171.071 81.367 171.033 81.4755 170.951C81.4809 170.946 81.4918 170.941 81.4972 170.935C81.5026 170.93 81.5081 170.93 81.5081 170.93C81.622 170.849 81.7034 170.729 81.736 170.561C82.3384 166.871 82.9462 163.18 83.5485 159.49C83.592 159.176 83.3695 158.867 83.0547 158.818ZM80.6615 169.792C77.3295 169.25 74.0029 168.703 70.6708 168.161C71.2135 164.855 71.7508 161.549 72.2934 158.243C75.6255 158.785 78.9521 159.333 82.2841 159.875C81.7469 163.18 81.2042 166.486 80.6615 169.792Z" fill="#C0C4C9"/>
</g>
<g opacity="0.47">
<path opacity="0.47" d="M79.7065 179.286C75.9892 178.679 72.2719 178.072 68.5546 177.465C68.2398 177.417 67.9305 177.633 67.8816 177.948C67.2793 181.638 66.6769 185.329 66.0691 189.019C66.0203 189.333 66.2428 189.637 66.5575 189.691C70.2748 190.298 73.9922 190.905 77.7095 191.512C77.8777 191.539 78.0188 191.501 78.1273 191.42C78.1328 191.414 78.1436 191.409 78.149 191.404C78.1545 191.398 78.1599 191.398 78.1599 191.393C78.2684 191.317 78.3553 191.198 78.3824 191.024C78.9848 187.334 79.5871 183.643 80.1949 179.953C80.2438 179.649 80.0213 179.34 79.7065 179.286ZM77.3133 190.266C73.9813 189.724 70.6547 189.176 67.3227 188.634C67.8654 185.329 68.4026 182.023 68.9453 178.717C72.2773 179.259 75.6039 179.806 78.9359 180.348C78.3987 183.654 77.856 186.96 77.3133 190.266Z" fill="#C0C4C9"/>
</g>
<g opacity="0.47">
<path opacity="0.47" d="M76.3583 199.76C72.6409 199.153 68.9236 198.546 65.2063 197.939C64.8915 197.89 64.5822 198.107 64.5334 198.421C63.931 202.112 63.3286 205.802 62.7208 209.493C62.672 209.807 62.8945 210.111 63.2092 210.165C66.9266 210.772 70.6439 211.379 74.3612 211.986C74.5294 212.013 74.6705 211.975 74.7791 211.894C74.7845 211.888 74.7953 211.883 74.8008 211.877C74.8062 211.872 74.8116 211.872 74.8116 211.866C74.9202 211.791 75.007 211.671 75.0341 211.498C75.6365 207.807 76.2389 204.117 76.8467 200.427C76.8955 200.118 76.673 199.809 76.3583 199.76ZM73.9651 210.739C70.633 210.197 67.3064 209.65 63.9744 209.108C64.5171 205.802 65.0543 202.497 65.597 199.191C68.929 199.733 72.2556 200.28 75.5877 200.822C75.0504 204.122 74.5077 207.428 73.9651 210.739Z" fill="#C0C4C9"/>
</g>
</g>
<path d="M74.9744 161.798L77.6769 161.37L78.6863 164.145L92.3671 157.376L93.7455 157.891L77.6063 167.163L74.9744 161.798Z" fill="#D34E4E"/>
<path d="M70.6113 182.635L73.3138 182.207L74.3232 184.982L88.0039 178.219L89.3823 178.733L73.2433 188L70.6113 182.635Z" fill="#D34E4E"/>
<path d="M67.2086 201.976L69.9111 201.548L70.9205 204.323L84.6013 197.554L85.9797 198.069L69.8406 207.341L67.2086 201.976Z" fill="#D34E4E"/>
<g opacity="0.32">
<path opacity="0.32" d="M122.129 211.847L82.781 205.425L81.875 210.96L121.223 217.382L122.129 211.847Z" fill="#8EC3CB"/>
</g>
<g opacity="0.32">
<path opacity="0.32" d="M125.679 190.165L86.3306 183.743L85.4246 189.278L124.773 195.7L125.679 190.165Z" fill="#8EC3CB"/>
</g>
<g opacity="0.32">
<path opacity="0.32" d="M129.222 168.483L89.8743 162.06L88.9683 167.596L128.316 174.018L129.222 168.483Z" fill="#8EC3CB"/>
</g>
<path d="M173.251 11.5132C173.115 11.8059 172.762 11.9359 172.469 11.795L149.563 1.11919C149.27 0.983706 149.14 0.631457 149.281 0.338819C149.416 0.046182 149.769 -0.0838771 150.062 0.0570223L172.968 10.7329C173.261 10.8683 173.386 11.2152 173.251 11.5132Z" fill="#3B455A"/>
<path d="M177.315 11.7029L176.034 14.4396L163.808 8.74402C163.054 8.39177 162.723 7.49219 163.075 6.73892C163.428 5.98565 164.329 5.65508 165.083 6.00733L177.315 11.7029Z" fill="#8EC3CB"/>
<path d="M276.217 55.2408L274.475 58.552L259.753 50.8405L254.489 60.8606L269.211 68.5721L267.469 71.8832C266.764 73.2217 267.285 74.8746 268.625 75.5791C269.966 76.2836 271.621 75.7633 272.326 74.4248L281.069 57.7824C281.774 56.4439 281.253 54.7911 279.913 54.0866C278.578 53.3821 276.923 53.9023 276.217 55.2408Z" fill="#474EBB"/>
<g opacity="0.12">
<path opacity="0.12" d="M262.906 65.261L268.17 55.2463L272.104 57.3056L263.986 65.83L262.906 65.261Z" fill="black"/>
</g>
<path d="M271.811 48.315L259.286 72.1541C258.901 72.8857 257.989 73.1729 257.256 72.7881L251.466 69.7588L265.386 43.2589L271.176 46.2882C271.909 46.673 272.196 47.578 271.811 48.315Z" fill="#3B455A"/>
<path d="M270.639 36.1164C269.412 35.5691 267.969 36.1381 267.345 37.3249L266.324 39.2704C265.689 40.4843 264.192 40.9504 262.976 40.3109L196.043 5.24865C195.234 4.82595 194.306 4.70131 193.416 4.89098L174.254 8.99332C173.891 9.06919 173.581 9.30763 173.413 9.63279L171.427 13.4371C171.259 13.7622 171.242 14.1524 171.384 14.4884L178.927 32.4747C179.279 33.3093 179.909 33.9975 180.712 34.4148L247.656 69.4825C248.872 70.1165 249.339 71.6122 248.698 72.8261L247.678 74.7716C247.054 75.9584 247.407 77.4649 248.552 78.164C249.811 78.9281 251.428 78.4675 252.101 77.1886L271.854 39.5847C272.527 38.3058 271.985 36.7125 270.639 36.1164Z" fill="#8EC3CB"/>
<g opacity="0.17">
<path opacity="0.17" d="M196.141 9.09631C195.37 8.69529 194.507 8.52729 193.704 8.63026L176.344 10.7871C176.013 10.8305 175.747 11.0039 175.611 11.264L174.032 14.2933C173.896 14.5534 173.907 14.8732 174.059 15.1658L182.167 30.5889C182.541 31.3042 183.171 31.9166 183.936 32.3176L247.798 65.7703L196.141 9.09631Z" fill="#DBE8EB"/>
</g>
<path d="M216.545 41.8554L212.079 50.3527L210.445 49.4965L214.912 40.9992C214.955 40.9125 215.058 40.88 215.145 40.9287L216.474 41.6224C216.556 41.6658 216.588 41.7687 216.545 41.8554Z" fill="#3B455A"/>
<path d="M193.753 29.9169L189.286 38.4142L187.653 37.558L192.119 29.0607C192.163 28.974 192.266 28.9414 192.353 28.9902L193.682 29.6839C193.764 29.7272 193.796 29.8302 193.753 29.9169Z" fill="#3B455A"/>
<path d="M239.332 53.7939L234.866 62.2912L233.232 61.435L237.698 52.9377C237.742 52.851 237.845 52.8184 237.932 52.8672L239.261 53.5609C239.348 53.6042 239.381 53.7072 239.332 53.7939Z" fill="#3B455A"/>
<path d="M225.591 51.9405L223.328 56.2433L221.988 55.5443L224.251 51.236C224.289 51.1656 224.37 51.1385 224.441 51.1764L225.532 51.7454C225.597 51.7834 225.624 51.8701 225.591 51.9405Z" fill="#3B455A"/>
<path d="M202.799 40.002L200.536 44.3103L199.196 43.6112L201.459 39.3084C201.497 39.2379 201.578 39.2108 201.648 39.2487L202.739 39.8178C202.81 39.8449 202.837 39.9316 202.799 40.002Z" fill="#3B455A"/>
<path d="M199.657 205.19L230.519 193.859L224.159 247.85L227.843 294.428L228.169 297.393L222.107 297.55L207.971 253.947L200.775 209.737L199.657 205.19Z" fill="#EFBFA5"/>
<path d="M222.107 297.55L228.418 297.393L230.036 302.714L229.873 302.758L229.916 302.763L219.475 308.941L214.51 309.494L213.88 303.825L215.221 302.844L222.107 297.55Z" fill="#3B455A"/>
<path d="M178.634 206.117L188.114 300.731L194.214 301.625L200.145 248.923L210.782 199.213L178.634 206.117Z" fill="#EFBFA5"/>
<path d="M187.913 300.709L179.822 305.288L180.576 309.103L195.039 306.925L194.187 301.435L187.913 300.709Z" fill="#3B455A"/>
<path d="M164.166 229.333C162.212 227.978 162.169 225.621 162.174 223.258C162.18 218.825 162.978 214.289 163.998 209.981C165.935 201.895 168.133 192.162 169.099 181.687C171.595 154.613 180.159 136.448 180.159 136.448L182.921 129.088C183.469 128.129 184.039 127.186 184.636 126.254C188.087 120.846 194.078 111.66 200.482 110.154C200.617 110.121 200.748 110.094 200.883 110.061C207.618 108.587 216.252 109.27 222.341 112.538C223.497 113.161 224.522 113.985 225.542 114.809C228.522 117.204 230.948 118.505 232.228 122.157C233.341 125.327 233.601 128.79 234.214 132.08C235.463 138.762 236.206 145.519 237.205 152.239C239.071 164.839 240.661 177.482 242.658 190.06C243.69 196.536 244.726 203.022 245.209 209.563C245.638 215.346 250.864 221.22 253.8 226.406C254.82 228.211 240.146 232.882 238.833 233.191C232.744 234.606 226.27 234.242 219.991 234.275C206.24 234.335 192.483 233.912 178.759 233.007C174.2 232.703 168.578 231.836 164.535 229.571C164.41 229.495 164.285 229.414 164.166 229.333Z" fill="#D34E4E"/>
<path d="M208.437 109.324C208.437 109.324 216.187 107.238 217.256 124.693C218.325 142.149 220.11 186.32 222.607 198.432C225.103 210.544 228.847 234.302 228.847 234.302L205.127 235.126L178.015 232.991C178.015 232.991 187.289 215.893 188.717 203.781C190.144 191.669 187.647 146.072 193.709 128.974C199.771 111.877 201.046 109.633 208.437 109.324Z" fill="white"/>
<path d="M173.375 148.202L161.008 146.3V135.656L190.855 112.939L200.487 110.089L195.853 122.553L173.375 148.202Z" fill="#D34E4E"/>
<path d="M197.633 95.4946C196.461 99.0117 198.159 102.756 199.646 105.959C200.965 108.799 201.426 110.668 198.072 111.433C196.184 111.866 192.83 112.668 191.175 111.227C189.921 110.132 190.627 106.756 191.235 105.412C191.701 104.388 192.933 103.867 193.373 102.827C193.552 102.399 193.579 101.922 193.584 101.461C193.611 99.5645 193.346 97.6677 192.808 95.8523C192.439 94.6167 191.945 93.4082 191.837 92.1239C191.674 90.2651 192.993 88.0974 193.682 86.3904C194.968 83.2147 199.451 78.9498 203.201 81.4426C204.053 82.0117 204.552 82.9709 204.97 83.9084C205.219 84.4666 205.453 85.0518 205.463 85.6642C205.491 88.1028 203.26 88.5147 201.719 89.6744C199.82 91.1159 198.382 93.2511 197.633 95.4946Z" fill="#3B455A"/>
<path d="M204.769 109.211C201.513 108.447 198.973 105.715 197.747 102.61C196.526 99.5048 196.461 96.0582 196.797 92.7363C197.92 81.6865 211.688 82.3964 216.35 90.8666C220.414 98.2476 214.228 111.438 204.769 109.211Z" fill="#EFBFA5"/>
<path d="M204.769 108.018C204.823 109.276 204.877 110.538 204.932 111.796C204.937 111.98 204.953 112.18 205.084 112.316C205.23 112.468 205.469 112.468 205.675 112.462C206.701 112.424 207.732 112.392 208.758 112.354C209.268 112.338 209.794 112.316 210.244 112.072C211.227 111.546 211.428 110.213 211.276 109.113C211.118 108.013 210.722 106.902 210.955 105.813C208.834 106.859 206.82 104.496 204.698 105.542L204.769 108.018Z" fill="#EFBFA5"/>
<path d="M209.208 73.5794C212.822 74.8041 215.139 78.4567 218.667 79.9144C220.691 80.749 223.084 80.8574 224.734 82.2935C228.435 85.5125 225.461 92.2648 228.5 96.1125C229.129 96.9145 229.982 97.516 230.616 98.3127C231.984 100.036 232.163 102.382 232.288 104.577C232.315 105.07 232.32 105.607 232.234 106.105C231.756 111.172 224.392 110.847 221.467 110.528C218.254 110.17 219.329 108.392 219.329 108.392L219.443 108.251C219.752 106.192 218.906 104.003 217.283 102.691C216.681 102.204 215.97 101.819 215.546 101.174C214.597 99.7216 215.503 97.8032 215.362 96.0745C214.797 89.1163 203.108 90.6065 199.809 85.6534C195.771 79.5784 202.381 71.2654 209.208 73.5794Z" fill="#3B455A"/>
<path d="M237.948 64.047L233.476 57.7932L230.714 59.587L232.831 64.551L231.132 64.7948L235.615 69.6776L238.735 68.1981L237.948 64.047Z" fill="#EFBFA5"/>
<path d="M219.003 117.41L242.414 98.5294L233.726 69.6775L242.36 66.1659L258.461 104.209L235.012 133.743L219.003 117.41Z" fill="#D34E4E"/>
<path d="M168.024 138.68L167.987 139.287L185.103 144.517L184.69 150.814L161.008 144.75L168.024 138.68Z" fill="#D34E4E"/>
<path d="M203.597 196.812L165.29 206.095C151.12 209.526 136.881 200.979 133.483 186.998C130.086 173.016 138.818 158.899 152.982 155.469L191.197 146.208L203.597 196.812Z" fill="#E0E0E0"/>
<path d="M204.948 196.487L248.02 185.963C261.039 182.809 269.032 169.711 265.874 156.71L265.011 153.155C261.853 140.154 248.736 132.177 235.723 135.331L192.646 145.855L204.948 196.487Z" fill="#3B455A"/>
<path d="M182.356 170.778C179.111 171.564 175.866 172.35 172.621 173.136C172.317 173.211 172.013 173.282 171.709 173.358C171.145 171.028 170.575 168.692 170.011 166.362C169.728 165.191 169.441 164.02 169.159 162.85C169.066 162.46 168.649 162.21 168.252 162.308C166.234 162.796 164.22 163.283 162.202 163.771C161.805 163.869 161.55 164.281 161.648 164.671C162.424 167.874 163.206 171.076 163.982 174.279C164.052 174.577 164.128 174.881 164.199 175.179C161.838 175.753 159.472 176.322 157.111 176.896C155.928 177.184 154.74 177.471 153.557 177.758C153.161 177.856 152.906 178.268 153.003 178.658C153.486 180.647 153.969 182.635 154.452 184.63C154.507 184.852 154.631 184.998 154.783 185.085C154.93 185.188 155.125 185.231 155.359 185.177C158.604 184.391 161.849 183.605 165.094 182.82C165.398 182.744 165.702 182.673 166.006 182.597C166.57 184.928 167.14 187.263 167.704 189.594C167.987 190.764 168.274 191.935 168.556 193.105C168.649 193.496 169.066 193.745 169.463 193.647C171.481 193.16 173.495 192.672 175.513 192.184C175.736 192.13 175.888 192.005 175.975 191.853C176.078 191.707 176.127 191.512 176.067 191.284C175.291 188.082 174.509 184.879 173.733 181.676C173.663 181.378 173.587 181.075 173.516 180.777C175.877 180.202 178.243 179.633 180.604 179.059C181.787 178.772 182.975 178.484 184.158 178.197C184.554 178.1 184.809 177.688 184.712 177.298C184.229 175.309 183.746 173.32 183.263 171.326C183.165 170.935 182.753 170.681 182.356 170.778Z" fill="#3B455A"/>
<path d="M80.0699 171.77C81.025 171.472 88.1123 173.249 87.6402 173.867C87.1301 174.544 86.4897 175.075 85.8439 175.655C87.8627 176.885 94.1847 179.026 89.6752 181.313C87.7216 182.305 82.5174 180.912 80.9762 179.59C80.9436 179.557 80.9057 179.53 80.8731 179.498L78.366 172.805C78.7458 172.371 79.2668 172.019 80.0699 171.77Z" fill="#C1796B"/>
<path d="M50.2012 152.326L78.3279 172.724L78.3604 172.81L80.8676 179.503L81.5188 181.243C66.3728 179.281 65.0541 175.26 50.7547 169.087L50.2012 152.326Z" fill="#8EC3CB"/>
</svg>
