<svg width="272" height="316" viewBox="0 0 272 316" fill="none" xmlns="http://www.w3.org/2000/svg">
<path d="M69.7998 0.21517C60.6169 1.26602 50.2029 8.32955 49.0166 16.5678C44.7775 9.40023 29.9756 7.39766 21.0855 9.91574C-2.37813 16.5678 -5.18761 44.7178 8.46271 60.5748C15.8091 69.1106 25.2948 75.9708 35.3166 81.8299C43.7103 86.7371 64.7963 96.4972 64.841 96.4427C64.9055 96.4774 80.6803 79.4357 86.5723 71.703C93.6109 62.4733 99.766 52.5249 103.3 41.8379C109.867 21.9907 94.0279 -2.55571 69.7998 0.21517Z" fill="#D34E4E"/>
<g opacity="0.12">
<g opacity="0.12">
<path opacity="0.12" d="M99.1057 45.0152C94.5838 53.3576 89.0343 61.4472 82.7105 68.7041C76.5951 75.718 69.09 82.2611 60.0956 85.7309C55.7772 87.3964 51.3694 88.1548 47.036 88.0209C55.802 92.378 65.2579 96.74 65.2877 96.7004C65.3522 96.7351 81.1271 79.6934 87.019 71.9607C94.0576 62.731 100.213 52.7826 103.747 42.0957C104.893 38.6358 105.355 35.0371 105.211 31.4632C103.563 36.1177 101.478 40.6433 99.1057 45.0152Z" fill="black"/>
</g>
</g>
<path d="M97.2146 37.5452C91 38.9381 84.7904 40.331 78.5758 41.7189C74.6941 33.9812 70.8125 26.2386 66.9308 18.501C66.3699 17.3807 64.6276 17.8169 64.4737 18.9867C62.4634 34.1894 60.4531 49.3971 58.4378 64.5998C58.3237 65.4821 58.2045 66.3594 58.0904 67.2418C52.9429 58.5127 47.8005 49.7787 42.6531 41.0497C41.8291 39.6519 41.0002 38.2491 40.1762 36.8513C39.6798 36.0086 38.1113 35.9442 37.7886 37.0247C36.2995 42.056 34.8153 47.0822 33.3262 52.1134C26.3372 53.4914 19.3483 54.8744 12.3643 56.2524C10.7213 56.5746 11.1978 58.9737 12.8408 58.6515C20.0928 57.219 27.3449 55.7865 34.592 54.3539C35.0139 54.2697 35.4557 53.9524 35.5748 53.541C36.8505 49.2335 38.1212 44.921 39.3969 40.6135C44.6783 49.5706 49.9548 58.5276 55.2362 67.4846C56.0602 68.8825 56.8891 70.2853 57.7131 71.6831C58.3336 72.734 60.0113 72.4217 60.1702 71.1973C62.1805 55.9946 64.1908 40.787 66.2061 25.5843C66.3004 24.8557 66.3997 24.132 66.494 23.4033C69.8842 30.1694 73.2794 36.9355 76.6746 43.7016C76.9079 44.1725 77.5284 44.46 78.0794 44.3361C84.6167 42.8738 91.1539 41.4066 97.6912 39.9443C99.3193 39.5775 98.8527 37.1834 97.2146 37.5452Z" fill="white"/>
<path d="M113.664 210.763L111.083 246.011L102.546 304.373H95.9785L91.8288 250.522L89.9922 206.956L113.664 210.763Z" fill="#CCD2D9"/>
<path d="M96.0132 303.59V307.139L103.116 310.683L106.665 307.139L103.116 303.59H96.0132Z" fill="#3B455A"/>
<path d="M67.144 202.455L69.6408 251.865L75.3541 308.586H82.08L87.55 254.844L95.5367 198.281L67.144 202.455Z" fill="#CCD2D9"/>
<path d="M82.0452 307.788V311.422L74.7683 315.055L71.1299 311.422L74.7683 307.788H82.0452Z" fill="#3B455A"/>
<path d="M90.0718 123.229C87.7786 123.006 85.4804 122.783 83.1871 122.555C83.1623 120.721 83.2864 118.882 83.5544 117.063C81.6434 116.394 79.4295 115.388 79.092 113.395C78.9878 112.766 79.092 112.121 79.2012 111.497C79.6479 108.899 80.0947 106.302 80.5414 103.704C80.6953 102.807 80.8591 101.88 81.3455 101.112C82.2043 99.7588 83.8671 99.1689 85.4456 98.8913C89.4712 98.1874 93.8641 99.0549 96.9913 101.682C97.8252 102.381 98.5748 103.224 98.9421 104.245C99.5079 105.821 99.091 107.561 98.6641 109.182C98.272 110.679 97.8798 112.176 97.4926 113.668C97.0409 115.388 96.3907 117.346 94.7328 117.99C93.8542 118.332 92.8118 118.233 92.0127 118.744C90.6079 119.646 90.8015 121.733 90.0718 123.229Z" fill="#EFBFA5"/>
<path d="M106.184 96.6706C106.388 94.5491 106.492 92.7944 106.055 90.7175C105.797 89.4981 104.238 85.6664 104.715 84.5858C103.826 86.4645 101.439 86.98 99.3688 87.1882C91.6254 87.9614 82.9785 86.0481 75.8555 90.0185C74.555 90.7422 73.5176 91.8774 72.7085 93.1265C69.909 97.4538 69.904 103.417 72.6887 107.754C73.3141 108.726 74.0636 109.618 74.8479 110.466C76.476 112.22 78.4218 114.391 80.6555 115.041C80.7051 113.043 78.8785 106.753 80.4123 105.117C82.5665 102.817 86.478 103.268 89.2726 103.665C92.8614 104.175 96.3559 104.141 99.9794 103.719C101.146 103.585 102.332 103.442 103.414 102.991C106.005 101.91 105.916 99.501 106.149 97.0474C106.159 96.9185 106.174 96.7946 106.184 96.6706Z" fill="#3B455A"/>
<path d="M44.559 93.6915L43.7251 89.4237L45.9191 86.276L45.4873 85.473L44.4747 85.9638L45.5468 82.831L44.5938 80.3179L41.1341 79.4009L37.7289 80.8532L37.1879 84.3825L38.7316 88.3431L39.6201 94.2318L44.559 93.6915Z" fill="#EFBFA5"/>
<path d="M45.1052 90.6777L38.5431 90.2663L41.4717 126.025L69.3332 140.737L75.7514 123.373L53.7272 113.256L45.1052 90.6777Z" fill="#EBB044"/>
<path d="M120.271 78.1518L120.495 73.8096L117.879 71.004L118.191 70.1465L119.264 70.4885L117.76 67.5392L118.345 64.917L121.646 63.5241L125.22 64.4857L126.257 67.901L125.29 72.0351L125.24 77.9932L120.271 78.1518Z" fill="#EFBFA5"/>
<path d="M119.308 75.2471L125.746 73.9187L126.258 98.6534L123.726 117.772L107.261 141.902L93.7847 122.426L109.435 110.941L119.308 75.2471Z" fill="#EBB044"/>
<path d="M95.5218 121.46L73.7707 122.382L62.7909 164.114L53.7271 221.965L123.726 223.665L107.261 141.902L95.5218 121.46Z" fill="#EBB044"/>
<path d="M203.384 106.535L202.585 102.361L204.739 99.2978L204.317 98.5096L203.33 98.9855L204.387 95.9321L203.469 93.4735L200.088 92.5713L196.763 93.9741L196.222 97.4191L197.711 101.29L198.559 107.045L203.384 106.535Z" fill="#C1796B"/>
<path d="M203.608 102.158L197.036 107.734L197.969 136.37L209.018 144.053L230.139 141.352L227.324 123.229L209.683 126.625L203.608 102.158Z" fill="#474EBB"/>
<path d="M270.926 301.746L271.75 305.528L265.203 310.916L260.691 307.937L263.55 303.347L270.097 297.959L270.926 301.746Z" fill="#3B455A"/>
<path d="M248.033 185.389L255.335 202.207L256.025 249.535L271.045 300.442L264.061 303.53L233.41 244.425L229.92 225.703L228.536 186.271L248.033 185.389Z" fill="#474EBB"/>
<path d="M212.666 189.156L212.091 238.754L221.447 302.702H228.645L233.191 243.696L243.04 184.69L212.666 189.156Z" fill="#474EBB"/>
<path d="M228.605 301.85V305.736L220.822 309.622L216.93 305.736L220.822 301.85H228.605Z" fill="#3A332D"/>
<path d="M226.838 122L245.953 121.291C245.953 121.291 257.39 131.314 263.302 157.353C269.318 183.867 262.19 222.035 262.19 222.035C262.19 222.035 210.904 215.209 202.491 214.153L215.322 161.804L226.838 122Z" fill="#474EBB"/>
<path d="M233.688 123.948C235.922 123.73 238.15 123.512 240.384 123.294C240.409 121.509 240.29 119.72 240.027 117.95C241.888 117.301 244.037 116.325 244.365 114.382C244.469 113.772 244.365 113.142 244.256 112.533C243.824 110.005 243.387 107.477 242.955 104.949C242.806 104.076 242.647 103.174 242.171 102.426C241.337 101.112 239.719 100.532 238.18 100.264C234.264 99.5804 229.99 100.423 226.952 102.981C226.143 103.66 225.408 104.483 225.051 105.474C224.5 107.006 224.907 108.701 225.319 110.277C225.701 111.735 226.078 113.187 226.461 114.644C226.897 116.32 227.533 118.223 229.146 118.853C230.005 119.185 231.017 119.091 231.792 119.586C233.167 120.459 232.978 122.491 233.688 123.948Z" fill="#C1796B"/>
<path d="M211.877 98.6881C211.833 96.9532 212.076 95.2035 212.423 93.6222C213.019 90.9059 216.225 89.6865 219.005 89.4932C225.001 89.0768 230.789 86.3604 236.646 88.4572C239.992 89.6567 244.489 89.9442 247.517 91.6296C248.783 92.3334 249.79 93.4339 250.575 94.6532C253.295 98.8666 253.305 104.666 250.594 108.884C249.984 109.831 249.259 110.694 248.495 111.521C246.911 113.232 245.02 115.343 242.846 115.973C242.796 114.03 244.578 107.913 243.084 106.317C240.717 103.789 235.361 104.661 232.417 105.281C229.211 105.955 226.347 108.22 223.17 108.701C220.881 109.048 217.963 107.923 216.022 106.738C212.974 104.884 211.957 101.821 211.877 98.6881Z" fill="#3B455A"/>
<path d="M232.11 124.36L212.011 204.636L210.363 215.164L235.401 218.456C235.401 218.456 234.413 180.015 234.74 174.89C235.068 169.764 238.781 158.681 239.352 146.735C239.679 139.825 241.878 127.418 240.339 123.378L232.11 124.36Z" fill="white"/>
<path d="M242.26 311.496H180.179C175.274 311.496 171.298 307.525 171.298 302.628V260.599C171.298 255.701 175.274 251.731 180.179 251.731H242.265C247.169 251.731 251.145 255.701 251.145 260.599V302.628C251.14 307.525 247.164 311.496 242.26 311.496Z" fill="#D34E4E"/>
<path d="M228.704 248.484C228.704 244.663 228.704 240.846 228.704 237.024C228.704 235.988 227.716 235.111 226.55 235.111C217.481 235.111 208.417 235.111 199.349 235.111C198.053 235.111 196.753 235.111 195.457 235.111C194.295 235.111 193.303 235.988 193.303 237.024C193.303 240.836 193.303 244.648 193.303 248.455C191.56 248.504 190.166 249.952 190.166 251.731H200.714C200.714 249.962 199.334 248.524 197.606 248.455C197.606 245.282 197.606 242.11 197.606 238.937C205.955 238.937 214.304 238.937 222.653 238.937C223.234 238.937 223.81 238.937 224.391 238.937C224.391 242.11 224.391 245.277 224.391 248.45H224.177C222.395 248.45 220.946 249.917 220.946 251.731H231.494C231.504 250.071 230.283 248.698 228.704 248.484Z" fill="#D34E4E"/>
<path d="M229.727 275.608C225.403 275.608 221.08 275.608 216.757 275.608C216.349 275.608 215.947 275.608 215.54 275.608C215.54 272.411 215.54 269.209 215.54 266.012C215.54 264.406 215.54 262.8 215.54 261.194C215.54 260.658 215.094 260.202 214.567 260.202C211.882 260.202 209.192 260.202 206.506 260.202C205.98 260.202 205.533 260.653 205.533 261.194C205.533 265.585 205.533 269.982 205.533 274.374C205.533 274.785 205.533 275.197 205.533 275.608C202.386 275.608 199.234 275.608 196.087 275.608C194.509 275.608 192.93 275.608 191.347 275.608C190.821 275.608 190.374 276.059 190.374 276.6C190.374 279.331 190.374 282.062 190.374 284.788C190.374 285.091 190.483 285.324 190.652 285.482C190.811 285.661 191.039 285.78 191.347 285.78C195.67 285.78 199.994 285.78 204.317 285.78C204.724 285.78 205.126 285.78 205.533 285.78C205.533 288.977 205.533 292.179 205.533 295.376C205.533 296.982 205.533 298.588 205.533 300.194C205.533 300.73 205.98 301.186 206.506 301.186C209.192 301.186 211.882 301.186 214.567 301.186C214.865 301.186 215.094 301.072 215.248 300.903C215.421 300.744 215.54 300.512 215.54 300.199C215.54 295.807 215.54 291.411 215.54 287.019C215.54 286.608 215.54 286.196 215.54 285.785C218.687 285.785 221.839 285.785 224.986 285.785C226.565 285.785 228.143 285.785 229.727 285.785C230.253 285.785 230.7 285.334 230.7 284.793C230.7 282.062 230.7 279.331 230.7 276.605C230.7 276.059 230.253 275.608 229.727 275.608Z" fill="white"/>
<path d="M67.7298 151.608C69.9188 161.695 79.8563 168.099 89.9178 165.918C99.9793 163.737 106.363 153.793 104.169 143.706C101.98 133.619 92.0423 127.215 81.9808 129.396C71.9192 131.577 65.5408 141.52 67.7298 151.608Z" fill="#3B455A"/>
<path d="M73.4282 150.373C74.9322 157.308 81.7623 161.71 88.6768 160.213C95.5913 158.716 99.9793 151.88 98.4753 144.945C96.9713 138.011 90.1411 133.609 83.2266 135.106C76.3071 136.603 71.9192 143.439 73.4282 150.373Z" fill="#CCD2D9"/>
<path d="M97.8203 214.006L102.7 212.948L90.0494 154.744L85.1697 155.802L97.8203 214.006Z" fill="#CCD2D9"/>
<path d="M81.8616 149.015C82.3778 151.389 84.7157 152.896 87.0834 152.381C89.4511 151.865 90.9502 149.526 90.4389 147.156C89.9227 144.782 87.5848 143.275 85.2171 143.791C82.8444 144.301 81.3454 146.641 81.8616 149.015Z" fill="#3B455A"/>
<g opacity="0.13">
<path opacity="0.13" d="M84.3584 152.093L87.4409 166.28C87.4409 166.28 84.5768 166.438 82.9536 166.096L83.579 151.642L84.3584 152.093Z" fill="black"/>
</g>
<path d="M183.321 197.077C182.234 197.27 181.305 198.202 180.104 198.088C180.372 199.798 179.767 195.823 179.93 197.553C180.154 199.863 180.298 202.187 180.352 204.512C180.382 205.831 180.387 207.154 180.357 208.473C180.352 208.701 180.303 209.94 180.347 209.003C180.332 209.35 180.318 209.702 180.303 210.049C180.268 210.723 180.228 211.392 180.179 212.066C179.96 214.991 179.578 217.92 178.982 220.835C178.68 222.317 178.317 223.794 177.895 225.261C177.672 226.03 177.434 226.798 177.171 227.561C177.061 227.889 176.942 228.216 176.828 228.538C176.808 228.597 176.769 228.697 176.739 228.776C176.714 228.835 176.689 228.9 176.669 228.959C175.528 231.78 174.148 234.546 172.336 237.183C172.112 237.505 171.884 237.822 171.651 238.139C171.894 237.807 171.284 238.615 171.159 238.764C170.713 239.314 170.241 239.859 169.755 240.39C168.732 241.5 167.615 242.541 166.424 243.547C166.652 243.349 165.709 244.102 165.531 244.231C165.188 244.479 164.846 244.722 164.488 244.96C163.848 245.391 163.188 245.808 162.513 246.199C162.056 246.467 161.589 246.72 161.118 246.968C160.959 247.052 160.795 247.131 160.641 247.215C160.626 247.225 160.611 247.23 160.597 247.24C160.582 247.245 160.567 247.255 160.547 247.26C159.783 247.597 159.028 247.944 158.244 248.251C157.256 248.638 156.253 248.985 155.226 249.297C154.794 249.431 154.362 249.555 153.925 249.674C153.732 249.728 153.533 249.778 153.34 249.828C153.325 249.833 153.315 249.833 153.3 249.838C151.2 250.274 149.12 250.675 146.981 250.888C146.37 250.948 145.76 250.992 145.149 251.037C145.11 251.042 145.07 251.042 145.03 251.042C145.04 251.042 145.005 251.042 144.956 251.047C144.817 251.052 144.683 251.062 144.544 251.067C144.643 251.062 144.722 251.057 144.787 251.052C144.703 251.057 144.608 251.057 144.549 251.057C143.63 251.062 142.712 251.062 141.799 251.017C140.821 250.968 139.848 250.883 138.885 250.764C138.478 250.715 138.081 250.646 137.674 250.591C137.664 250.591 137.654 250.586 137.649 250.586C137.629 250.581 137.609 250.576 137.59 250.571C137.416 250.531 137.242 250.502 137.068 250.467C135.351 250.11 133.688 249.629 132.105 249.044C131.866 248.955 130.397 248.331 131.32 248.747C130.978 248.593 130.635 248.445 130.298 248.286C129.583 247.954 128.888 247.597 128.208 247.22C126.833 246.462 125.548 245.624 124.312 244.737C124.217 244.668 124.088 244.568 124.029 244.524C123.84 244.375 123.646 244.226 123.463 244.073C123.18 243.845 122.902 243.612 122.629 243.379C122.043 242.883 121.477 242.373 120.926 241.852C119.75 240.737 118.653 239.577 117.62 238.377C117.069 237.738 116.543 237.089 116.027 236.434C115.883 236.251 115.357 235.542 115.65 235.943C115.441 235.656 115.228 235.368 115.024 235.076C111.416 229.995 108.696 224.513 106.512 218.917C106.01 217.633 105.539 216.334 105.092 215.035C104.973 214.693 104.864 214.346 104.744 214.004C104.735 213.97 104.725 213.945 104.715 213.92C104.7 213.88 104.685 213.831 104.665 213.762C104.481 213.167 104.293 212.577 104.114 211.982C103.499 209.925 102.948 207.858 102.466 205.776C102.019 203.863 101.597 201.934 101.324 199.986C100.778 196.16 93.03 197.26 93.576 201.082C93.5959 201.216 93.6207 201.35 93.6405 201.488C94.0327 204.413 94.7822 207.308 95.5466 210.163C97.006 215.61 98.8475 220.994 101.22 226.193C106.402 237.545 114.588 249.55 129.156 254.809C144.415 260.321 164.488 255.459 175.155 244.509C185.232 234.159 187.694 220.637 188.076 208.497C188.26 202.648 188.87 202.4 187.877 196.636C186.517 197.23 184.73 196.824 183.321 197.077ZM153.359 249.833C153.896 249.694 153.558 249.788 153.359 249.833V249.833ZM176.699 228.87C176.689 228.9 176.689 228.905 176.699 228.87V228.87Z" fill="#7FC5A3"/>
<path d="M184.686 78.935C190.265 78.0032 195.844 77.0663 201.424 76.1344C202.615 75.9361 203.796 76.7788 203.995 77.9734C206.129 90.7026 208.264 103.437 210.398 116.166C210.701 117.96 210.999 119.76 211.301 121.554C211.778 124.394 207.375 125.138 206.899 122.293C204.764 109.563 202.63 96.8293 200.495 84.1001C200.317 83.0393 200.138 81.9786 199.959 80.9178C195.115 81.7307 190.27 82.5387 185.425 83.3516C182.591 83.8225 181.846 79.4109 184.686 78.935Z" fill="#CCD2D9"/>
<path d="M179.444 86.4744L184.527 85.6218L183.048 76.7936L177.965 77.6462C175.905 77.9882 174.515 79.9363 174.862 81.9884L175.096 83.3764C175.438 85.4335 177.384 86.8214 179.444 86.4744Z" fill="#3B455A"/>
<path d="M183.956 86.4298L188.265 85.711C190.642 85.3145 192.251 83.0641 191.848 80.6897L191.58 79.0837C191.183 76.7094 188.93 75.1083 186.552 75.5049L182.249 76.2236L183.956 86.4298Z" fill="#CCD2D9"/>
<path d="M140.98 85.944C135.401 86.8759 129.821 87.8127 124.242 88.7446C123.051 88.9429 122.212 90.1226 122.41 91.3222C124.545 104.051 126.679 116.786 128.814 129.515C129.116 131.309 129.414 133.108 129.717 134.903C130.194 137.743 134.596 137.01 134.12 134.164C131.986 121.435 129.851 108.701 127.717 95.9717C127.538 94.9109 127.359 93.8502 127.186 92.7894C132.03 91.9765 136.875 91.1685 141.719 90.3556C144.559 89.8847 143.819 85.4731 140.98 85.944Z" fill="#CCD2D9"/>
<path d="M148.401 91.3717L143.318 92.2243L141.839 83.3962L146.922 82.5485C148.981 82.2015 150.927 83.5895 151.275 85.6466L151.508 87.0345C151.846 89.0817 150.456 91.0247 148.401 91.3717Z" fill="#3B455A"/>
<path d="M144.117 92.7953L139.813 93.514C137.436 93.9106 135.182 92.3095 134.785 89.9352L134.517 88.3292C134.12 85.9549 135.723 83.7094 138.101 83.3079L142.41 82.5892L144.117 92.7953Z" fill="#CCD2D9"/>
<g opacity="0.13">
<path opacity="0.13" d="M180.119 201.538C180.119 201.538 180.437 204.274 180.65 207.452L188.106 202.653L187.589 199.362L180.119 201.538Z" fill="black"/>
</g>
<path d="M212.89 121.643C214.707 129.579 215.521 137.847 215.799 145.967C216.29 160.371 214.965 176.382 206.417 188.511C197.373 201.35 179.26 206.807 164.851 200.036C151.096 193.567 142.742 179.197 137.193 165.645C134.646 159.434 132.581 153.015 130.864 146.532C129.965 143.131 129.072 139.681 128.511 136.207C128.486 136.048 128.451 135.884 128.427 135.726C127.662 131.18 134.711 129.996 135.475 134.546C135.862 136.856 136.384 139.151 136.93 141.431C137.52 143.91 138.17 146.378 138.875 148.827C139.079 149.536 139.292 150.244 139.506 150.948C139.789 151.885 139.337 150.433 139.595 151.236C139.724 151.647 139.853 152.054 139.982 152.465C140.484 154.017 141.005 155.558 141.556 157.095C143.948 163.777 146.832 170.325 150.5 176.407C150.734 176.793 150.972 177.18 151.21 177.562C150.764 176.838 151.359 177.795 151.518 178.033C152.034 178.821 152.565 179.599 153.116 180.362C154.149 181.8 155.236 183.198 156.397 184.541C156.938 185.165 157.494 185.78 158.065 186.38C158.333 186.662 158.606 186.94 158.879 187.213C159.063 187.396 159.247 187.574 159.43 187.753C159.579 187.902 160.185 188.447 159.51 187.837C160.765 188.972 162.071 190.048 163.456 191.019C164.106 191.475 164.771 191.907 165.451 192.313C165.774 192.507 166.102 192.685 166.424 192.873C165.546 192.368 166.94 193.131 167.169 193.24C168.668 193.959 170.231 194.554 171.83 195.005C171.989 195.049 172.157 195.089 172.316 195.139C173.145 195.391 171.542 194.995 172.396 195.158C172.773 195.233 173.145 195.317 173.517 195.382C174.411 195.54 175.309 195.654 176.213 195.728C177.057 195.793 177.895 195.808 178.739 195.818C178.963 195.818 179.608 195.778 178.734 195.823C178.918 195.813 179.102 195.808 179.285 195.793C179.846 195.748 180.402 195.709 180.958 195.649C182.909 195.426 184.795 194.98 186.691 194.494C186.86 194.45 187.366 194.276 186.587 194.529C186.81 194.455 187.029 194.385 187.252 194.311C187.644 194.177 188.031 194.033 188.419 193.885C189.337 193.528 190.24 193.131 191.119 192.685C191.819 192.333 192.484 191.932 193.169 191.545C193.933 191.109 192.538 192.001 193.253 191.49C193.392 191.391 193.536 191.302 193.675 191.208C194.092 190.92 194.504 190.623 194.901 190.316C195.497 189.86 196.073 189.379 196.634 188.873C196.941 188.596 197.244 188.313 197.537 188.021C197.716 187.847 198.798 186.677 198.118 187.441C199.215 186.201 200.237 184.908 201.151 183.53C201.563 182.905 201.955 182.271 202.332 181.621C202.451 181.418 203.076 180.233 202.625 181.111C202.853 180.665 203.086 180.214 203.305 179.758C204.789 176.655 205.866 173.393 206.72 170.067C206.765 169.898 206.804 169.73 206.844 169.556C206.64 170.389 206.794 169.774 206.839 169.566C206.923 169.18 207.008 168.798 207.087 168.411C207.276 167.509 207.44 166.602 207.594 165.69C207.881 163.95 208.11 162.205 208.288 160.451C208.636 157.001 208.785 153.531 208.78 150.061C208.78 149.263 208.77 148.465 208.755 147.672C208.745 147.26 208.735 146.844 208.725 146.433C208.755 147.543 208.71 146.076 208.7 145.803C208.636 144.232 208.542 142.665 208.422 141.099C208.209 138.338 207.921 135.577 207.554 132.831C207.127 129.624 206.531 126.461 205.946 123.279C205.916 123.125 205.881 122.972 205.846 122.818C205.414 120.93 206.953 119.001 208.78 118.699C210.775 118.367 212.458 119.75 212.89 121.643Z" fill="#7FC5A3"/>
<path d="M148.043 258.309L148.038 258.284C148.257 258.23 148.361 258.2 148.371 258.2H148.386L148.391 258.215C148.391 258.22 148.391 258.225 148.381 258.23C148.381 258.23 148.376 258.23 148.371 258.23C148.332 258.24 148.247 258.264 148.043 258.309Z" fill="#A0A2A5"/>
<path d="M174.758 234.337L174.734 234.328L174.744 234.298L174.768 234.313L174.758 234.337Z" fill="#A0A2A5"/>
<path d="M177.861 188.665V188.635C177.926 188.63 177.971 188.625 177.986 188.625V188.655L177.861 188.665Z" fill="#A0A2A5"/>
<path d="M184.865 190.261L184.855 190.236C184.909 190.221 185.083 190.162 185.093 190.162H185.107L185.112 190.177C185.112 190.182 185.112 190.187 185.102 190.192C185.102 190.192 185.102 190.192 185.097 190.192C185.068 190.202 185.008 190.221 184.865 190.261Z" fill="#A0A2A5"/>
<path d="M202.59 168.511L202.565 168.506C202.565 168.506 202.565 168.506 202.565 168.501C202.565 168.496 202.565 168.496 202.565 168.491C202.575 168.451 202.585 168.402 202.605 168.327C202.605 168.317 202.61 168.307 202.61 168.302L202.635 168.198V168.193L202.66 168.198C202.645 168.248 202.635 168.292 202.625 168.332C202.62 168.392 202.605 168.451 202.59 168.511Z" fill="#A0A2A5"/>
<path d="M202.575 168.575L202.55 168.57C202.55 168.57 202.55 168.56 202.555 168.545L202.58 168.55C202.575 168.565 202.575 168.575 202.575 168.575Z" fill="#A0A2A5"/>
<path d="M177.97 191.441V191.411H177.99C178.109 191.406 178.158 191.401 178.163 191.401V191.431C178.143 191.431 178.124 191.431 178.104 191.436C178.069 191.436 178.02 191.436 177.97 191.441Z" fill="#A0A2A5"/>
<path d="M213.441 166.706L208.963 168.124L205.315 166.156L204.506 166.716L205.156 167.737L201.662 166.974L199.08 168.302L198.525 172.119L200.495 175.584L204.352 175.732L208.412 173.601L214.627 171.931L213.441 166.706Z" fill="#C1796B"/>
<path d="M209.633 167.018C216.593 165.388 223.547 163.762 230.506 162.131C232.377 161.695 234.323 161.6 236.194 161.144C238.934 160.485 239.684 160.252 240.066 157.645C241.183 150.086 239.763 142.244 240.905 134.799C243.655 134.526 246.306 133.877 249.11 133.911C253.692 133.971 253.295 137.119 253.553 140.623C253.86 144.782 254.039 148.951 254.069 153.119C254.094 156.574 255.235 171.559 250.153 172.654C246.509 173.452 209.812 175.4 209.827 176.154C209.817 175.856 209.633 167.018 209.633 167.018Z" fill="#474EBB"/>
</svg>
