<svg width="51" height="60" viewBox="0 0 51 60" fill="none" xmlns="http://www.w3.org/2000/svg">
<g clip-path="url(#clip0)">
<path d="M22.3294 0.523086C19.2909 1.7575 17.4168 4.55618 17.4201 7.84629C17.4218 10.7216 17.4218 13.5969 17.4218 16.4739C17.4218 17.1436 17.3151 17.2502 16.6471 17.2502C15.0929 17.2502 13.5386 17.2502 11.9843 17.2502V17.2435C10.5667 17.2435 9.14733 17.2535 7.72967 17.2402C6.98169 17.2335 6.25037 17.3485 5.55736 17.6C2.46216 18.7262 0.611365 20.9468 0.236542 24.2019C-0.0982997 27.1155 1.12279 29.4594 3.44336 31.2219C5.1259 32.4997 7.0983 32.6962 9.12901 32.7362C10.7699 32.7695 12.1542 32.3864 13.5219 31.3535C18.1181 27.8852 22.3594 24.0753 25.8894 19.5058C29.0479 15.4194 31.4068 10.9748 32.1265 5.7806C32.2098 5.17256 32.2697 4.56451 31.9149 4.03143C31.5118 3.42505 31.1086 2.80034 30.6089 2.27559C29.2045 0.801288 27.1322 0 25.0815 0C24.1369 0 23.1974 0.16992 22.3294 0.523086Z" fill="#00AE4D"/>
<path d="M12.016 19.1543C7.68972 20.4204 4.991 23.5289 2.59713 27.1405C2.28394 24.8183 2.5838 22.7543 4.28633 21.11C5.52242 19.9156 7.12166 19.4975 8.76089 19.2442C9.54052 19.1243 10.3318 19.071 11.1198 19.016C11.393 18.996 11.6928 18.9227 12.016 19.1543Z" fill="white"/>
<path d="M10.5017 56.6115H10.1419H9.85369C9.83537 56.4649 9.79539 56.3234 9.73208 56.1867C9.66878 56.0501 9.58049 55.9252 9.46721 55.8119C9.36559 55.6986 9.25064 55.612 9.1257 55.552C8.9991 55.4921 8.86749 55.4521 8.72922 55.4321C8.72256 55.4321 8.71756 55.4321 8.7109 55.4321C8.70424 55.4321 8.69924 55.4321 8.69257 55.4321C8.59595 55.4521 8.50433 55.4804 8.4177 55.5171C8.33108 55.5537 8.24445 55.5987 8.16116 55.652C8.07787 55.7053 8.0079 55.7719 7.95459 55.8519C7.90128 55.9319 7.85797 56.0252 7.82798 56.1318C7.80466 56.2184 7.79966 56.2967 7.81466 56.3667C7.82965 56.4366 7.8613 56.4916 7.90961 56.5316C7.95792 56.5782 8.0079 56.6182 8.06287 56.6515C8.11618 56.6848 8.17615 56.7115 8.24279 56.7315C8.25445 56.7382 8.26611 56.7432 8.27944 56.7465C8.2911 56.7498 8.30276 56.7515 8.31609 56.7515C8.32775 56.7581 8.33941 56.7631 8.35274 56.7665C8.3644 56.7698 8.37606 56.7715 8.38938 56.7715C8.40105 56.7781 8.41104 56.7831 8.42104 56.7865C8.42937 56.7898 8.44103 56.7915 8.45269 56.7915C8.46435 56.7981 8.47434 56.8031 8.48434 56.8065C8.49267 56.8098 8.50433 56.8115 8.51599 56.8115L9.46887 57.0613C9.62547 57.1146 9.76707 57.1746 9.89701 57.2412C10.0253 57.3079 10.1419 57.3878 10.2435 57.4811C10.3451 57.5678 10.4101 57.6894 10.4368 57.846C10.4634 58.0026 10.4501 58.1908 10.3968 58.4107C10.3368 58.6572 10.2418 58.8738 10.1136 59.0604C9.9853 59.247 9.82371 59.4069 9.63213 59.5402C9.44056 59.6668 9.24565 59.7651 9.04741 59.835C8.84917 59.905 8.65093 59.9533 8.45435 59.98C8.44269 59.98 8.42937 59.98 8.41437 59.98C8.39938 59.98 8.38605 59.9833 8.37439 59.99C8.36273 59.99 8.3494 59.99 8.33441 59.99C8.31942 59.99 8.30609 59.99 8.29443 59.99C8.28277 59.99 8.26944 59.99 8.25445 59.99C8.23946 59.99 8.22613 59.9933 8.21447 60C8.20281 60 8.18948 60 8.17449 60C8.15949 60 8.14617 60 8.13451 60H7.77467C7.64307 60 7.5148 59.99 7.39319 59.97C7.26991 59.95 7.15164 59.9267 7.03836 59.9C6.97838 59.88 6.92175 59.855 6.86677 59.825C6.81346 59.795 6.76182 59.7667 6.71351 59.7401L6.62355 59.92H6.26372H5.97552L6.08381 58.1408H6.44364H6.75849C6.77015 58.3741 6.81013 58.579 6.8801 58.7555C6.9484 58.9321 7.05502 59.087 7.19995 59.2203C7.31323 59.3269 7.4415 59.4119 7.58143 59.4752C7.72303 59.5385 7.87629 59.5768 8.04455 59.5901H8.05288C8.08286 59.5901 8.11285 59.5851 8.14283 59.5751C8.17282 59.5652 8.20614 59.5568 8.24112 59.5502C8.34274 59.5302 8.44269 59.4969 8.54265 59.4502C8.64093 59.4036 8.73922 59.3469 8.83417 59.2803C8.93579 59.207 9.01742 59.1254 9.07739 59.0354C9.13737 58.9454 9.18234 58.8405 9.21233 58.7206C9.24232 58.6139 9.24731 58.524 9.23065 58.4507C9.21233 58.3774 9.17735 58.3174 9.12237 58.2708C9.0624 58.2241 9.00076 58.1841 8.93746 58.1508C8.87416 58.1175 8.81085 58.0875 8.74422 58.0609C8.73256 58.0609 8.7209 58.0592 8.70757 58.0559C8.69591 58.0525 8.68425 58.0475 8.67092 58.0409L8.62594 58.0109L7.77134 57.731C7.74802 57.7377 7.72303 57.7377 7.69971 57.731C7.67639 57.7244 7.65473 57.7177 7.63641 57.711C7.62475 57.711 7.61309 57.7094 7.60476 57.706C7.59643 57.7027 7.58476 57.6977 7.5731 57.691C7.56144 57.691 7.54978 57.6894 7.54145 57.686C7.53312 57.6827 7.52146 57.6777 7.5098 57.671C7.37153 57.6244 7.24493 57.5694 7.12665 57.5061C7.01004 57.4428 6.90009 57.3679 6.79847 57.2812C6.69019 57.1946 6.62522 57.0797 6.60023 56.9364C6.57691 56.7931 6.58857 56.6182 6.63688 56.4116C6.68519 56.2184 6.75849 56.0468 6.85678 55.8969C6.95506 55.747 7.08334 55.6154 7.23993 55.5021C7.39652 55.3888 7.55311 55.2955 7.71137 55.2222C7.86963 55.1489 8.03122 55.0923 8.19281 55.0523C8.23446 55.0456 8.27444 55.0406 8.30942 55.0373C8.34607 55.034 8.38106 55.029 8.4177 55.0223C8.45269 55.0156 8.48934 55.0106 8.52599 55.0073C8.56264 55.004 8.59762 55.0023 8.63427 55.0023L8.9941 54.9923C9.00076 54.999 9.00743 55.0023 9.01576 55.0023C9.02408 55.0023 9.03241 55.0023 9.03741 55.0023H9.05574C9.0674 55.009 9.07906 55.0123 9.09239 55.0123C9.10405 55.0123 9.11571 55.0123 9.12904 55.0123C9.14236 55.0123 9.15236 55.0123 9.16568 55.0123C9.17901 55.0123 9.19234 55.0123 9.21066 55.0123C9.22232 55.019 9.23399 55.0223 9.24731 55.0223C9.25897 55.0223 9.27064 55.0223 9.28396 55.0223C9.36726 55.0356 9.44888 55.0556 9.52718 55.0823C9.60548 55.1089 9.68377 55.1389 9.7604 55.1722C9.77207 55.1789 9.78373 55.1856 9.79705 55.1922C9.80871 55.1989 9.82038 55.2022 9.8337 55.2022C9.84536 55.2089 9.85702 55.2155 9.87035 55.2222C9.88201 55.2289 9.89201 55.2355 9.89701 55.2422L9.97863 55.0823H10.3385H10.59L10.5017 56.6115Z" fill="black"/>
<path d="M16.214 58.6606C16.184 58.8072 16.1624 58.9388 16.1507 59.0554C16.139 59.172 16.1357 59.277 16.1424 59.3703C16.1424 59.4369 16.1607 59.4935 16.1957 59.5402C16.2323 59.5868 16.2856 59.6168 16.3573 59.6301L16.3656 59.6201H16.7254L16.6538 59.92H16.294H14.693L14.8097 59.4302C14.713 59.5035 14.6164 59.5668 14.5181 59.6201C14.4198 59.6734 14.3182 59.7234 14.2166 59.7701C14.0367 59.85 13.8518 59.9083 13.6635 59.945C13.4753 59.9816 13.2837 60 13.0921 60H12.7323C12.7206 60 12.709 60 12.6957 60C12.684 60 12.6723 60 12.6607 60C12.649 59.9933 12.6374 59.99 12.624 59.99C12.6124 59.99 12.6007 59.99 12.5874 59.99C12.5757 59.99 12.5641 59.99 12.5507 59.99C12.5391 59.99 12.5274 59.99 12.5141 59.99C12.4958 59.9833 12.4808 59.98 12.4691 59.98C12.4574 59.98 12.4458 59.98 12.4324 59.98C12.3658 59.9666 12.3008 59.95 12.2342 59.93C12.1676 59.91 12.1026 59.8867 12.036 59.86C11.976 59.8267 11.9227 59.7884 11.8744 59.7451C11.8261 59.7018 11.7878 59.6501 11.7578 59.5901C11.7095 59.5102 11.6761 59.4252 11.6595 59.3353C11.6412 59.2453 11.6362 59.1537 11.6412 59.0604C11.6528 58.9671 11.6678 58.8705 11.6861 58.7705C11.7045 58.6706 11.7244 58.5673 11.7494 58.4607L12.1992 56.5716C12.2292 56.445 12.2475 56.325 12.2525 56.2117C12.2592 56.0985 12.2559 55.9985 12.2442 55.9119C12.2259 55.8253 12.1776 55.757 12.1009 55.707C12.0226 55.657 11.9144 55.6287 11.7778 55.622L11.6345 55.602L11.7061 55.3022L13.1371 55.0823H13.4969H13.7851L13.0122 58.3108L13.0038 58.3507L12.9938 58.3807C12.9872 58.414 12.9822 58.4424 12.9755 58.4657C12.9689 58.489 12.9639 58.514 12.9572 58.5406C12.9505 58.5673 12.9455 58.5923 12.9389 58.6156C12.9322 58.6389 12.9272 58.6672 12.9206 58.7006C12.9139 58.7206 12.9106 58.7405 12.9072 58.7605C12.9039 58.7805 12.9006 58.8005 12.8939 58.8205C12.8939 58.8472 12.8922 58.8705 12.8889 58.8905C12.8856 58.9105 12.8839 58.9305 12.8839 58.9504C12.8839 58.9904 12.8856 59.0271 12.8889 59.0604C12.8922 59.0937 12.8956 59.127 12.9022 59.1603C12.9139 59.207 12.9339 59.2503 12.9605 59.2903C12.9872 59.3303 13.0222 59.3669 13.0638 59.4002C13.1005 59.4269 13.1404 59.4485 13.1854 59.4652C13.2304 59.4819 13.2804 59.4969 13.3337 59.5102H13.342V59.5202C13.4686 59.5069 13.5936 59.4802 13.7202 59.4402C13.8468 59.4002 13.9751 59.3469 14.1067 59.2803C14.2682 59.1937 14.4232 59.1004 14.5698 59.0004C14.7164 58.9005 14.8563 58.7939 14.9879 58.6806L15.491 56.5716C15.521 56.445 15.5393 56.325 15.5443 56.2117C15.551 56.0985 15.5476 55.9985 15.536 55.9119C15.5177 55.8253 15.4693 55.757 15.3927 55.707C15.3144 55.657 15.2061 55.6287 15.0695 55.622L14.9263 55.602L14.9979 55.3022L16.4289 55.0823H16.7887H17.0769L16.214 58.6606Z" fill="black"/>
<path d="M18.8311 59.5802L18.6246 59.92H18.2647H17.77L19.0377 54.6425L19.056 54.5826C19.056 54.5692 19.0594 54.5592 19.0643 54.5526C19.0643 54.5392 19.0643 54.5292 19.0643 54.5226C19.101 54.3693 19.1277 54.2311 19.146 54.1078C19.1643 53.9845 19.1726 53.8696 19.1726 53.7629C19.166 53.663 19.121 53.583 19.0377 53.5231C18.9544 53.4631 18.8278 53.4264 18.6595 53.4131L18.5429 53.3831L18.6146 53.0833C18.7228 53.0766 18.8345 53.0649 18.9511 53.0483C19.0677 53.0316 19.1826 53.01 19.2976 52.9833C19.4109 52.9633 19.5275 52.935 19.6441 52.8983C19.7607 52.8617 19.8756 52.8201 19.9906 52.7734L20.3587 52.7534H20.7186L20.0805 55.3822C20.1472 55.3489 20.2138 55.3139 20.2821 55.2772C20.3504 55.2406 20.422 55.2089 20.4937 55.1823C20.6369 55.1223 20.7869 55.0773 20.9385 55.0473C21.0917 55.0173 21.245 55.0024 21.4016 55.0024L21.7614 54.9924C22.0796 54.999 22.3478 55.064 22.566 55.1873C22.7843 55.3105 22.9508 55.4955 23.0658 55.742C23.1791 55.9886 23.2457 56.2551 23.264 56.5416C23.2824 56.8282 23.249 57.138 23.1657 57.4712C23.0874 57.8177 22.9642 58.1392 22.7976 58.4357C22.631 58.7323 22.4228 59.0071 22.1762 59.2603C21.9297 59.5069 21.6631 59.6918 21.3749 59.8151C21.0867 59.9384 20.7785 60 20.4487 60H20.0889C19.9389 60 19.794 59.9867 19.6524 59.96C19.5108 59.9334 19.3775 59.9 19.2526 59.8601C19.1743 59.8267 19.101 59.7884 19.0327 59.7451C18.9644 59.7018 18.8961 59.6502 18.8311 59.5902V59.5802ZM19.2193 58.9705C19.2676 59.0704 19.3276 59.1554 19.3992 59.2254C19.4708 59.2953 19.5558 59.357 19.6507 59.4103C19.6807 59.4236 19.7107 59.4369 19.7407 59.4503C19.7707 59.4636 19.8007 59.4736 19.8307 59.4802C19.8723 59.4936 19.9156 59.5052 19.9606 59.5152C20.0056 59.5252 20.0522 59.5336 20.1005 59.5402C20.3288 59.5202 20.532 59.4603 20.7119 59.3603C20.8918 59.2603 21.0501 59.1171 21.1883 58.9305C21.3449 58.7239 21.4799 58.504 21.5982 58.2708C21.7148 58.0376 21.8031 57.791 21.863 57.5312C21.8697 57.4978 21.8747 57.4645 21.8814 57.4312C21.888 57.3979 21.893 57.3646 21.8997 57.3313C21.9063 57.3113 21.9097 57.2929 21.913 57.2763C21.9163 57.2596 21.9197 57.2413 21.9263 57.2213C21.9263 57.208 21.928 57.193 21.9313 57.1763C21.9347 57.1597 21.938 57.1413 21.9447 57.1214C21.9746 56.9148 21.9813 56.7165 21.9663 56.5266C21.9513 56.3367 21.9163 56.1551 21.863 55.9819C21.8214 55.8353 21.7464 55.7187 21.6381 55.6321C21.5299 55.5454 21.3899 55.4921 21.215 55.4721C21.1134 55.4788 21.0151 55.4971 20.9235 55.5271C20.8302 55.5571 20.7419 55.5954 20.6586 55.6421C20.5503 55.702 20.442 55.7737 20.3354 55.857C20.2271 55.9402 20.1188 56.0319 20.0122 56.1318C20.0056 56.1385 20.0006 56.1452 19.9939 56.1518C19.9872 56.1585 19.9822 56.1618 19.9756 56.1618C19.9689 56.1685 19.9639 56.1751 19.9573 56.1818C19.9506 56.1885 19.9456 56.1951 19.9389 56.2018L19.8756 56.2518L19.2193 58.9705Z" fill="black"/>
<path d="M25.5246 58.6506C25.488 58.7972 25.4663 58.9272 25.4563 59.0405C25.448 59.1537 25.4496 59.2537 25.4613 59.3403C25.473 59.4269 25.5196 59.4952 25.6012 59.5452C25.6829 59.5952 25.7878 59.6268 25.9211 59.6402L25.5612 59.6302L25.6779 59.6202H26.0377L25.9661 59.92H25.6062H23.2307L23.3023 59.6202H23.3839C23.5339 59.6202 23.6605 59.5985 23.7654 59.5552C23.8704 59.5119 23.952 59.4503 24.0136 59.3703C24.067 59.2903 24.1186 59.192 24.1669 59.0754C24.2152 58.9588 24.2569 58.8239 24.2935 58.6706L24.7966 56.5716C24.8266 56.445 24.8449 56.3251 24.8499 56.2118C24.8566 56.0985 24.8532 55.9986 24.8416 55.9119C24.8233 55.8253 24.775 55.757 24.6983 55.707C24.62 55.6571 24.5117 55.6287 24.3751 55.6221L24.2319 55.6021L24.3035 55.3022L25.7345 55.0823H26.0943H26.3825L25.5246 58.6506ZM26.7573 54.0028C26.734 54.0961 26.699 54.1794 26.6541 54.2527C26.6091 54.326 26.5541 54.3893 26.4875 54.4426C26.4208 54.4959 26.3525 54.5359 26.2809 54.5626C26.2093 54.5892 26.1376 54.6026 26.0643 54.6026L25.7045 54.5926C25.6262 54.5992 25.5596 54.5876 25.5013 54.5576C25.443 54.5276 25.398 54.4826 25.3613 54.4226C25.3247 54.3627 25.3047 54.296 25.298 54.2227C25.2914 54.1494 25.3014 54.0695 25.3247 53.9828C25.343 53.9095 25.373 53.8396 25.4147 53.7729C25.4563 53.7063 25.5129 53.643 25.5862 53.583C25.6529 53.5231 25.7195 53.4781 25.7878 53.4481C25.8561 53.4181 25.9277 53.4031 25.9994 53.4031L26.3592 53.3931C26.4375 53.3998 26.5041 53.4181 26.5608 53.4481C26.6174 53.4781 26.6674 53.5231 26.709 53.583C26.739 53.643 26.759 53.7096 26.7673 53.7829C26.7757 53.8562 26.7723 53.9329 26.754 54.0128V54.0028H26.7573Z" fill="black"/>
<path d="M31.1203 55.2822L31.2736 54.6425L31.2919 54.5826C31.2919 54.5692 31.2952 54.5592 31.3002 54.5526C31.3002 54.5392 31.3002 54.5292 31.3002 54.5226C31.3369 54.3693 31.3635 54.2311 31.3818 54.1078C31.4002 53.9845 31.4085 53.8696 31.4085 53.7629C31.4018 53.663 31.3569 53.583 31.2736 53.5231C31.1903 53.4631 31.0637 53.4264 30.8954 53.4131L30.7788 53.3831L30.8504 53.0833C30.9587 53.0766 31.0703 53.0649 31.1886 53.0483C31.3052 53.0316 31.4202 53.01 31.5351 52.9833C31.6484 52.9633 31.765 52.935 31.8816 52.8983C31.9982 52.8617 32.1148 52.8201 32.2281 52.7734L32.5963 52.7534H32.9561L31.5351 58.6506C31.5051 58.7839 31.4835 58.9055 31.4718 59.0155C31.4601 59.1254 31.4568 59.227 31.4635 59.3203C31.4701 59.4136 31.5101 59.4869 31.5851 59.5402C31.6601 59.5935 31.7667 59.6268 31.9049 59.6402L31.8416 59.92H31.4818H30.0058L30.0775 59.5902C30.0175 59.6435 29.9542 59.6868 29.8892 59.7201C29.8226 59.7534 29.7576 59.7868 29.691 59.8201C29.5477 59.8801 29.4028 59.925 29.2595 59.955C29.1163 59.985 28.9713 60 28.8281 60H28.4682C28.15 60 27.8835 59.9417 27.6669 59.8251C27.4504 59.7085 27.2855 59.5269 27.1722 59.2803C27.0589 59.0405 26.9923 58.7756 26.9739 58.4857C26.9556 58.1958 26.9856 57.8843 27.0639 57.5512C27.1472 57.198 27.2721 56.8715 27.437 56.5716C27.602 56.2718 27.8069 55.9986 28.0534 55.752C28.2933 55.4988 28.5582 55.3105 28.8497 55.1873C29.1412 55.064 29.4511 55.0024 29.7809 55.0024L30.1408 54.9924C30.2241 54.999 30.3057 55.0074 30.384 55.0173C30.4623 55.0273 30.5372 55.0423 30.6089 55.0623C30.6755 55.0823 30.7422 55.1056 30.8105 55.1323C30.8788 55.1589 30.9471 55.1889 31.0137 55.2222C31.0204 55.2289 31.027 55.2356 31.0353 55.2422C31.0437 55.2489 31.052 55.2522 31.057 55.2522C31.0687 55.2589 31.0787 55.2656 31.0887 55.2722C31.097 55.2789 31.1086 55.2856 31.1203 55.2922V55.2822ZM30.9487 55.9919C30.8821 55.9186 30.8105 55.8486 30.7322 55.782C30.6539 55.7154 30.5706 55.6587 30.4806 55.6121C30.4323 55.5854 30.3823 55.5638 30.3273 55.5471C30.274 55.5304 30.2191 55.5154 30.1658 55.5021C30.1474 55.4955 30.1291 55.4905 30.1124 55.4871C30.0941 55.4838 30.0758 55.4821 30.0591 55.4821C29.8376 55.5088 29.641 55.5721 29.4694 55.672C29.2978 55.772 29.1462 55.9119 29.0146 56.0918C28.8647 56.2984 28.7364 56.515 28.6315 56.7415C28.5265 56.9681 28.4449 57.2046 28.3849 57.4512L28.3766 57.4812L28.3683 57.5012C28.3683 57.5212 28.3666 57.5378 28.3633 57.5512C28.3599 57.5645 28.3549 57.5778 28.3499 57.5911C28.3433 57.6111 28.34 57.6278 28.3366 57.6411C28.3333 57.6544 28.3316 57.6678 28.3316 57.6811C28.325 57.7011 28.3216 57.7194 28.3183 57.7361C28.315 57.7527 28.3133 57.771 28.3133 57.791C28.3133 57.7977 28.3116 57.806 28.3083 57.816C28.305 57.826 28.3033 57.8344 28.3033 57.841C28.2667 58.0542 28.2533 58.2592 28.2633 58.4557C28.2717 58.6523 28.3033 58.8405 28.3583 59.0205C28.4066 59.1737 28.4849 59.2937 28.5915 59.3803C28.6998 59.4669 28.8397 59.5202 29.0146 59.5402C29.0813 59.5269 29.1446 59.5119 29.2079 59.4952C29.2712 59.4786 29.3328 59.4569 29.3928 59.4303C29.4228 59.4169 29.4544 59.4036 29.4877 59.3903C29.5211 59.377 29.5527 59.3603 29.5827 59.3403C29.7026 59.267 29.8209 59.1854 29.9375 59.0954C30.0541 59.0055 30.1674 58.9038 30.2757 58.7906V58.7706L30.9487 55.9919Z" fill="black"/>
<path d="M37.9021 58.6506C37.8655 58.7972 37.8438 58.9272 37.8338 59.0404C37.8255 59.1537 37.8271 59.2537 37.8388 59.3403C37.8505 59.4269 37.8954 59.4952 37.9737 59.5452C38.052 59.5952 38.157 59.6268 38.2886 59.6402L37.9288 59.6302L38.0454 59.6202H38.4052L38.3336 59.92H37.9737H35.5632L35.6348 59.6202H35.7431C35.8931 59.6268 36.0197 59.6102 36.1246 59.5702C36.2296 59.5302 36.3112 59.4702 36.3728 59.3903C36.4328 59.3103 36.4878 59.2104 36.5394 59.0904C36.5911 58.9705 36.6344 58.8305 36.6694 58.6706L37.1725 56.5916V56.5816L37.1808 56.5616C37.1874 56.5483 37.1908 56.5316 37.1941 56.5116C37.1974 56.4917 37.2008 56.4717 37.2074 56.4517C37.2141 56.4317 37.2174 56.4117 37.2208 56.3917C37.2241 56.3717 37.2274 56.3517 37.2341 56.3317C37.2341 56.3184 37.2358 56.3034 37.2391 56.2867C37.2424 56.2701 37.2441 56.2551 37.2441 56.2418C37.2507 56.2084 37.2541 56.1768 37.2574 56.1468C37.2607 56.1168 37.2624 56.0852 37.2624 56.0519C37.2691 56.0052 37.2674 55.9619 37.2574 55.9219C37.2491 55.8819 37.2341 55.842 37.2174 55.802C37.1991 55.7687 37.1774 55.737 37.1508 55.707C37.1241 55.677 37.0925 55.652 37.0558 55.6321C37.0442 55.6254 37.0325 55.6204 37.0192 55.6171C37.0075 55.6137 36.9959 55.6087 36.9825 55.6021C36.9642 55.5887 36.9442 55.5771 36.9242 55.5671C36.9026 55.5571 36.8809 55.5488 36.8576 55.5421C36.8509 55.5421 36.8443 55.5438 36.8343 55.5471C36.8259 55.5504 36.8143 55.5521 36.8026 55.5521C36.796 55.5521 36.7893 55.5538 36.781 55.5571C36.7726 55.5604 36.761 55.5621 36.7493 55.5621C36.696 55.5688 36.641 55.5804 36.5877 55.5971C36.5344 55.6137 36.4794 55.6287 36.4261 55.6421C36.3545 55.6687 36.2845 55.697 36.2146 55.727C36.1463 55.757 36.078 55.7886 36.013 55.822C35.9763 55.8353 35.943 55.852 35.9097 55.8719C35.8764 55.8919 35.8414 55.9119 35.8064 55.9319C35.6981 55.9919 35.6015 56.0535 35.5149 56.1168C35.4283 56.1801 35.345 56.2451 35.2667 56.3117L34.7086 58.6506C34.672 58.7972 34.6486 58.9272 34.637 59.0404C34.6253 59.1537 34.6253 59.257 34.637 59.3503C34.6486 59.4369 34.692 59.5036 34.7669 59.5502C34.8419 59.5968 34.9452 59.6268 35.0768 59.6402L34.7169 59.6302L34.8436 59.6202H35.2034L35.1317 59.92H34.7719H32.3697L32.4414 59.6202H32.5396C32.6896 59.6268 32.8162 59.6102 32.9211 59.5702C33.0261 59.5302 33.1077 59.4702 33.1693 59.3903C33.236 59.3103 33.2943 59.2104 33.3443 59.0904C33.3959 58.9705 33.4392 58.8305 33.4742 58.6706L34.4454 54.6425L34.4637 54.5826C34.4637 54.5692 34.4671 54.5592 34.4721 54.5526C34.4721 54.5392 34.4721 54.5292 34.4721 54.5226C34.5087 54.3693 34.5354 54.231 34.5537 54.1078C34.572 53.9845 34.5803 53.8696 34.5803 53.7629C34.5737 53.663 34.5287 53.583 34.4454 53.5231C34.3621 53.4631 34.2355 53.4264 34.0673 53.4131L33.9506 53.3831L34.0223 53.0833C34.1306 53.0766 34.2422 53.0649 34.3604 53.0483C34.4771 53.0316 34.592 53.01 34.7069 52.9833C34.8202 52.9633 34.9368 52.935 35.0535 52.8983C35.1701 52.8617 35.285 52.8201 35.4 52.7734L35.7681 52.7534H36.1279L35.4533 55.5221C35.5432 55.4755 35.6348 55.4272 35.7281 55.3772C35.8214 55.3272 35.9147 55.2789 36.0113 55.2322C36.1846 55.1589 36.3595 55.1023 36.5328 55.0623C36.706 55.0223 36.8809 55.0024 37.0542 55.0024L37.414 54.9924C37.4257 54.999 37.439 55.0024 37.454 55.0024C37.469 55.0024 37.4823 55.0024 37.494 55.0024C37.5056 55.009 37.519 55.0123 37.5339 55.0123C37.5489 55.0123 37.5656 55.0123 37.5839 55.0123C37.6139 55.019 37.6439 55.024 37.6739 55.0273C37.7039 55.0307 37.7372 55.0357 37.7722 55.0423C37.7905 55.049 37.8072 55.054 37.8221 55.0573C37.8371 55.0607 37.8538 55.0657 37.8721 55.0723C37.9088 55.0856 37.9421 55.099 37.9754 55.1123C38.0087 55.1256 38.0404 55.1423 38.0704 55.1623C38.1187 55.1889 38.1653 55.2173 38.2103 55.2472C38.2553 55.2772 38.2953 55.3089 38.3319 55.3422C38.4035 55.4222 38.4552 55.5071 38.4852 55.5971C38.5152 55.687 38.5268 55.782 38.5218 55.8819C38.5152 55.9819 38.5035 56.0868 38.4852 56.1968C38.4668 56.3067 38.4435 56.4184 38.4135 56.5316L38.4052 56.5416V56.5516H38.0454V56.5416H38.4052L37.9021 58.6506Z" fill="black"/>
<path d="M44.2707 59.6601C44.2408 59.6934 44.2091 59.7217 44.1758 59.7451C44.1425 59.7684 44.1075 59.79 44.0725 59.81C44.0542 59.8234 44.0375 59.8334 44.0225 59.84C44.0075 59.8467 43.9909 59.8533 43.9725 59.86C43.9192 59.8867 43.8643 59.9067 43.811 59.92C43.7576 59.9333 43.7027 59.9466 43.6494 59.96C43.6194 59.9666 43.5911 59.9716 43.5644 59.975C43.5378 59.9783 43.5094 59.9833 43.4794 59.99C43.4678 59.99 43.4545 59.99 43.4395 59.99C43.4245 59.99 43.4111 59.9933 43.3995 60C43.3812 60 43.3645 60 43.3495 60C43.3345 60 43.3212 60 43.3095 60H42.9497H42.9414H42.933H42.9147C42.8064 59.9933 42.7048 59.9766 42.6082 59.95C42.5116 59.9233 42.4249 59.8867 42.3466 59.84C42.2983 59.8067 42.2567 59.7617 42.22 59.7051C42.1834 59.6484 42.1534 59.5868 42.1301 59.5202L42.1218 59.5302C42.1151 59.5302 42.1101 59.5335 42.1034 59.5402C41.9768 59.6201 41.8552 59.6884 41.7353 59.7451C41.6153 59.8017 41.4954 59.85 41.3754 59.89C41.2488 59.9233 41.1239 59.95 40.9973 59.97C40.8707 59.99 40.7391 60 40.6008 60H40.241C40.2293 60 40.2177 60 40.2093 60C40.201 60 40.1893 60 40.1777 60C40.166 59.9933 40.1544 59.99 40.146 59.99C40.1377 59.99 40.126 59.99 40.1144 59.99C40.1027 59.99 40.091 59.99 40.0777 59.99C40.0644 59.99 40.0561 59.99 40.0511 59.99C40.0394 59.9833 40.0277 59.98 40.0194 59.98C40.0111 59.98 39.9994 59.98 39.9878 59.98C39.8562 59.96 39.7329 59.9233 39.6196 59.87C39.5063 59.8167 39.4014 59.7434 39.3048 59.6501C39.2081 59.5568 39.1482 59.4419 39.1248 59.3053C39.1015 59.1687 39.1098 59.0137 39.1515 58.8405C39.1931 58.6672 39.2498 58.5157 39.3231 58.3857C39.3947 58.2558 39.4847 58.1475 39.5929 58.0609C39.6946 57.9676 39.8095 57.8826 39.9345 57.806C40.0611 57.7294 40.196 57.6577 40.3393 57.5911C40.3759 57.5711 40.4126 57.5544 40.4509 57.5411C40.4892 57.5278 40.5275 57.5145 40.5625 57.5011C40.6341 57.4678 40.7074 57.4395 40.7824 57.4162C40.8574 57.3928 40.934 57.3712 41.0123 57.3512C41.0656 57.3379 41.1222 57.3245 41.1789 57.3112C41.2355 57.2979 41.2905 57.2846 41.3455 57.2712C41.3988 57.2646 41.4554 57.2546 41.512 57.2412C41.5687 57.2279 41.6237 57.2179 41.6786 57.2113C41.6903 57.2113 41.702 57.2113 41.7153 57.2113C41.7269 57.2113 41.7386 57.2079 41.7519 57.2013C41.7636 57.2013 41.7753 57.2013 41.7886 57.2013C41.8002 57.2013 41.8119 57.2013 41.8252 57.2013C41.8436 57.2013 41.8619 57.1996 41.8835 57.1963C41.9052 57.1929 41.9268 57.1879 41.9518 57.1813L42.6448 57.0813L42.8164 56.3617C42.8281 56.295 42.8364 56.2284 42.8381 56.1618C42.8414 56.0951 42.8431 56.0285 42.8431 55.9619C42.8364 55.8952 42.8214 55.8336 42.7931 55.7769C42.7665 55.7203 42.7281 55.6687 42.6815 55.622C42.6515 55.5887 42.6182 55.562 42.5832 55.5421C42.5466 55.5221 42.5049 55.5054 42.4583 55.4921C42.4166 55.4787 42.375 55.4671 42.3317 55.4571C42.29 55.4471 42.245 55.4388 42.1967 55.4321C42.1901 55.4321 42.1851 55.4321 42.1784 55.4321C42.1717 55.4321 42.1667 55.4321 42.1601 55.4321C42.1534 55.4321 42.1484 55.4321 42.1417 55.4321C42.1351 55.4321 42.1301 55.4321 42.1234 55.4321C42.1168 55.4321 42.1118 55.4321 42.1051 55.4321C42.0751 55.4388 42.0435 55.4438 42.0101 55.4471C41.9768 55.4504 41.9418 55.4588 41.9069 55.4721C41.8702 55.4787 41.8369 55.4887 41.8036 55.5021C41.7703 55.5154 41.7386 55.5287 41.7086 55.5421C41.6786 55.5554 41.647 55.5704 41.6137 55.587C41.5803 55.6037 41.5454 55.622 41.5104 55.642C41.4504 55.682 41.4021 55.727 41.3671 55.7769C41.3305 55.8269 41.3038 55.8819 41.2855 55.9419L41.2588 56.0518C41.2355 56.1451 41.2055 56.2284 41.1739 56.3017C41.1406 56.375 41.1006 56.4416 41.0523 56.5016C41.0039 56.5616 40.9473 56.6049 40.8807 56.6315C40.814 56.6582 40.7391 56.6715 40.6558 56.6715L40.296 56.6615C40.2426 56.6682 40.1927 56.6615 40.1477 56.6415C40.1027 56.6215 40.0627 56.5916 40.0261 56.5516C39.9894 56.5116 39.9694 56.465 39.9628 56.4116C39.9561 56.3583 39.9628 56.2984 39.9811 56.2317C39.9994 56.1518 40.0311 56.0718 40.0761 55.9918C40.121 55.9119 40.1793 55.8352 40.251 55.762C40.3226 55.6887 40.3976 55.622 40.4759 55.562C40.5542 55.5021 40.6341 55.4488 40.7191 55.4021C40.7307 55.3888 40.7457 55.3771 40.7641 55.3671C40.7824 55.3571 40.8007 55.3488 40.8174 55.3421C40.829 55.3355 40.839 55.3305 40.849 55.3272C40.8574 55.3238 40.869 55.3188 40.8807 55.3122C40.8873 55.3122 40.894 55.3105 40.9023 55.3072C40.9107 55.3038 40.9223 55.2988 40.934 55.2922C40.994 55.2655 41.0539 55.2422 41.1139 55.2222C41.1739 55.2022 41.2372 55.1822 41.3021 55.1622C41.3688 55.1422 41.4354 55.1239 41.5037 55.1073C41.572 55.0906 41.6403 55.0756 41.7053 55.0623C41.7536 55.049 41.8019 55.0406 41.8535 55.0373C41.9052 55.034 41.9502 55.029 41.9935 55.0223C42.0168 55.0223 42.0418 55.0206 42.0651 55.0173C42.0884 55.014 42.1134 55.0123 42.1367 55.0123C42.1551 55.0056 42.1751 55.0023 42.2001 55.0023C42.2234 55.0023 42.2484 55.0023 42.2717 55.0023L42.6315 54.9923H42.6498H42.6582H42.6665C42.6782 54.999 42.6898 55.0023 42.7015 55.0023C42.7131 55.0023 42.7248 55.0023 42.7381 55.0023C42.7615 55.009 42.7864 55.0123 42.8098 55.0123C42.8331 55.0123 42.8581 55.0156 42.8814 55.0223C42.8997 55.0223 42.918 55.024 42.9347 55.0273C42.953 55.0306 42.973 55.0356 42.998 55.0423C43.0163 55.0423 43.0347 55.044 43.0513 55.0473C43.0696 55.0506 43.088 55.0556 43.1046 55.0623C43.1646 55.0756 43.2229 55.0923 43.2795 55.1123C43.3362 55.1322 43.3945 55.1522 43.4545 55.1722C43.4911 55.1856 43.5244 55.2022 43.5577 55.2222C43.5911 55.2422 43.6227 55.2589 43.6527 55.2722C43.671 55.2855 43.6877 55.2955 43.7027 55.3022C43.7177 55.3088 43.7343 55.3188 43.7527 55.3322C43.8543 55.4054 43.9326 55.4854 43.9859 55.572C44.0392 55.6587 44.0692 55.752 44.0758 55.8519C44.0758 55.9519 44.0692 56.0601 44.0542 56.1768C44.0392 56.2934 44.0159 56.4216 43.9859 56.5616L43.5178 58.5007C43.5111 58.534 43.5044 58.5656 43.4961 58.5956C43.4878 58.6256 43.4794 58.6572 43.4728 58.6906C43.4661 58.7039 43.4628 58.7172 43.4595 58.7305C43.4561 58.7439 43.4545 58.7572 43.4545 58.7705C43.4545 58.7772 43.4545 58.7872 43.4545 58.8005C43.4545 58.8138 43.4528 58.8238 43.4495 58.8305C43.4461 58.8372 43.4445 58.8472 43.4445 58.8605C43.4328 58.9471 43.4261 59.0321 43.4261 59.1154C43.4261 59.1987 43.4345 59.277 43.4528 59.3503C43.4645 59.3969 43.4811 59.4352 43.5028 59.4652C43.5244 59.4952 43.5494 59.5168 43.5794 59.5302H43.5877C43.6244 59.5168 43.6594 59.5002 43.696 59.4802C43.7327 59.4602 43.7643 59.4402 43.7943 59.4202V59.4002H44.1541L44.2707 59.6601ZM42.5449 57.4911C42.5382 57.4978 42.5332 57.5011 42.5266 57.5011C42.5199 57.5011 42.5149 57.5011 42.5082 57.5011C42.5016 57.5078 42.4966 57.5111 42.4899 57.5111C42.4833 57.5111 42.4783 57.5111 42.4716 57.5111C42.3933 57.5178 42.3117 57.5294 42.2234 57.5461C42.1367 57.5628 42.0518 57.5811 41.9668 57.6011C41.7986 57.6411 41.6353 57.6927 41.4771 57.756C41.3188 57.8193 41.1639 57.8943 41.0139 57.9809C40.864 58.0675 40.7407 58.1725 40.6458 58.2958C40.5492 58.419 40.4842 58.5606 40.4475 58.7206C40.4176 58.8472 40.4109 58.9604 40.4292 59.0604C40.4475 59.1603 40.4859 59.247 40.5458 59.3203C40.5941 59.3669 40.6475 59.4086 40.7074 59.4452C40.7674 59.4819 40.834 59.5068 40.9057 59.5202C40.9956 59.5068 41.0889 59.4835 41.1839 59.4502C41.2805 59.4169 41.3754 59.3769 41.4721 59.3303C41.6037 59.257 41.7319 59.182 41.8535 59.1054C41.9768 59.0287 42.0951 58.9471 42.2084 58.8605V58.8405L42.5449 57.4911Z" fill="black"/>
<path d="M48.9902 21.0983C47.6775 19.1142 46.0333 17.6533 43.5695 17.2951C42.8764 17.1935 42.1834 17.1702 41.4921 17.1702C41.1772 17.1702 40.8641 17.1752 40.5492 17.1802C40.1061 17.1868 39.6613 17.1935 39.2165 17.1868C38.7684 17.1802 38.5118 17.3201 38.2869 17.7066C37.2041 19.5807 35.8981 21.2932 34.4238 22.8741C31.8966 25.5829 29.048 27.9218 26.0144 30.0391C23.4956 31.7966 20.8502 33.3475 18.1398 34.7868C17.7883 34.9734 17.4185 35.155 17.4251 35.6181C17.4668 38.1802 17.2452 40.7507 17.5317 43.3028C17.9865 47.3642 22.2012 50.4911 26.2226 49.8147C30.1974 49.1467 32.8978 45.9499 32.9012 41.9101C32.9012 40.6274 32.9012 39.3464 32.9012 38.0636C32.9012 36.5677 32.9028 35.0717 32.9012 33.5758C32.9012 32.7128 32.9461 32.6678 33.8307 32.6712C33.9273 32.6712 34.0256 32.6778 34.1222 32.6762C35.1668 32.6612 36.2113 32.6745 37.2541 32.6862C39.2398 32.7095 41.2239 32.7328 43.2046 32.5729C45.0987 32.4196 46.718 31.5934 48.0024 30.2057C50.1913 27.8468 50.9893 24.1186 48.9902 21.0983Z" fill="#00AE4D"/>
<path d="M23.4989 47.1844C26.4959 46.3064 28.365 44.0225 30.0225 41.522C30.2391 43.1296 29.9625 44.469 28.7531 45.7317C27.9302 46.5913 26.889 46.9478 25.7529 47.1227C25.2015 47.2077 24.795 47.2743 24.2186 47.281C24.0303 47.2826 23.7222 47.3443 23.4989 47.1844Z" fill="white"/>
<path d="M12.4225 15.9625H15.5377C15.7376 15.9625 15.9008 15.7992 15.9008 15.5993V11.4879C15.2878 14.9529 14.13 15.3944 12.4225 15.9625Z" fill="#00AE4D"/>
<path d="M37.7322 33.889H34.617C34.4171 33.889 34.2539 34.0523 34.2539 34.2522V38.3636C34.8669 34.9002 36.0247 34.4571 37.7322 33.889Z" fill="#00AE4D"/>
<path d="M12.4225 15.9625H15.5377C15.7376 15.9625 15.9008 15.7992 15.9008 15.5993V11.4879C15.2878 14.9529 14.13 15.3944 12.4225 15.9625Z" stroke="#00AE4D" stroke-width="0.189394"/>
<path d="M37.7322 33.889H34.617C34.4171 33.889 34.2539 34.0523 34.2539 34.2522V38.3636C34.8669 34.9002 36.0247 34.4571 37.7322 33.889Z" stroke="#00AE4D" stroke-width="0.189394"/>
<path d="M14.1466 34.7969C14.1466 35.2533 13.7768 35.6231 13.3204 35.6231C12.8639 35.6231 12.4941 35.2533 12.4941 34.7969C12.4941 34.3404 12.8639 33.9706 13.3204 33.9706C13.7768 33.9706 14.1466 34.3404 14.1466 34.7969Z" fill="#E11B22"/>
<path d="M17.5384 32.6763C17.5384 33.1327 17.1685 33.5025 16.7121 33.5025C16.2556 33.5025 15.8858 33.1327 15.8858 32.6763C15.8858 32.2198 16.2556 31.85 16.7121 31.85C17.1669 31.85 17.5384 32.2198 17.5384 32.6763Z" fill="#E11B22"/>
<path d="M20.5186 30.5389C20.5186 30.9954 20.1488 31.3652 19.6923 31.3652C19.2359 31.3652 18.8661 30.9954 18.8661 30.5389C18.8661 30.0825 19.2359 29.7126 19.6923 29.7126C20.1488 29.7126 20.5186 30.0825 20.5186 30.5389Z" fill="#E11B22"/>
<path d="M22.6476 29.1229C23.127 29.1229 23.5155 28.7344 23.5155 28.255C23.5155 27.7757 23.127 27.3871 22.6476 27.3871C22.1683 27.3871 21.7797 27.7757 21.7797 28.255C21.7797 28.7344 22.1683 29.1229 22.6476 29.1229Z" fill="#E11B22"/>
<path d="M26.3859 25.5929C26.3859 26.0944 25.9794 26.5025 25.4763 26.5025C24.9749 26.5025 24.5667 26.096 24.5667 25.5929C24.5667 25.0915 24.9732 24.6833 25.4763 24.6833C25.9777 24.6833 26.3859 25.0898 26.3859 25.5929Z" fill="#E11B22"/>
<path d="M29.3261 22.8791C29.3261 23.4272 28.883 23.8703 28.3349 23.8703C27.7868 23.8703 27.3437 23.4255 27.3437 22.8791C27.3437 22.3311 27.7885 21.8879 28.3349 21.8879C28.883 21.8879 29.3261 22.3311 29.3261 22.8791Z" fill="#E11B22"/>
<path d="M32.3963 19.7007C32.3963 20.3854 31.8416 20.9401 31.1569 20.9401C30.4722 20.9401 29.9175 20.3854 29.9175 19.7007C29.9175 19.016 30.4722 18.4613 31.1569 18.4613C31.8399 18.4613 32.3963 19.016 32.3963 19.7007Z" fill="#E11B22"/>
<path d="M36.5061 15.3961C36.5061 16.4806 35.6265 17.3602 34.542 17.3602C33.4575 17.3602 32.5779 16.4806 32.5779 15.3961C32.5779 14.3116 33.4575 13.432 34.542 13.432C35.6265 13.432 36.5061 14.3116 36.5061 15.3961Z" fill="#E11B22"/>
<path d="M45.4385 7.96291C45.4385 10.7016 43.2179 12.9206 40.4809 12.9206C37.7422 12.9206 35.5215 10.7016 35.5215 7.96291C35.5215 5.2242 37.7422 3.00525 40.4809 3.00525C43.2179 3.00525 45.4385 5.2242 45.4385 7.96291Z" fill="#E11B22"/>
</g>
<defs>
<clipPath id="clip0">
<rect width="50.1363" height="60" fill="white"/>
</clipPath>
</defs>
</svg>
