<svg width="367" height="334" viewBox="0 0 367 334" fill="none" xmlns="http://www.w3.org/2000/svg">
<path d="M349.634 286.851H52.0876C42.6769 286.851 34.9751 290.375 34.9751 294.683C34.9751 297.666 38.6689 300.273 44.064 301.594H17.8625C8.45179 301.59 0.75 305.114 0.75 309.422C0.75 313.729 8.45179 317.254 17.8625 317.254H26.9936C24.4455 318.621 22.8974 320.394 22.8974 322.322V325.454C22.8974 329.762 30.5992 333.286 40.01 333.286H333.13C342.541 333.286 350.243 329.762 350.243 325.454V322.322C350.243 318.014 342.541 314.49 333.13 314.49L313.201 314.662C314.719 314.662 317.186 314.113 318.838 313.012C321.739 311.08 321.865 308.14 320.447 305.706C319.528 304.128 318.056 302.876 314.408 302.404L349.637 302.511C359.048 302.511 366.75 298.987 366.75 294.679C366.746 290.375 359.044 286.851 349.634 286.851Z" fill="#F1F2F2"/>
<path d="M80.7998 0.21517C71.6169 1.26602 61.2029 8.32955 60.0166 16.5678C55.7775 9.40023 40.9756 7.39766 32.0855 9.91574C8.62187 16.5678 5.81239 44.7178 19.4627 60.5748C26.8091 69.1106 36.2948 75.9708 46.3166 81.8299C54.7103 86.7371 75.7963 96.4972 75.841 96.4427C75.9055 96.4774 91.6803 79.4357 97.5723 71.703C104.611 62.4733 110.766 52.5249 114.3 41.8379C120.867 21.9907 105.028 -2.55571 80.7998 0.21517Z" fill="#D34E4E"/>
<g opacity="0.12">
<g opacity="0.12">
<path opacity="0.12" d="M110.106 45.0152C105.584 53.3576 100.034 61.4472 93.7105 68.7041C87.5951 75.718 80.09 82.2611 71.0956 85.7309C66.7772 87.3964 62.3694 88.1548 58.036 88.0209C66.802 92.378 76.2579 96.74 76.2877 96.7004C76.3522 96.7351 92.1271 79.6934 98.019 71.9607C105.058 62.731 111.213 52.7826 114.747 42.0957C115.893 38.6358 116.355 35.0371 116.211 31.4632C114.563 36.1177 112.478 40.6433 110.106 45.0152Z" fill="black"/>
</g>
</g>
<path d="M108.215 37.5452C102 38.9381 95.7904 40.331 89.5758 41.7189C85.6941 33.9812 81.8125 26.2386 77.9308 18.501C77.3699 17.3807 75.6276 17.8169 75.4737 18.9867C73.4634 34.1894 71.4531 49.3971 69.4378 64.5998C69.3237 65.4821 69.2045 66.3594 69.0904 67.2418C63.9429 58.5127 58.8005 49.7787 53.6531 41.0497C52.8291 39.6519 52.0002 38.2491 51.1762 36.8513C50.6798 36.0086 49.1113 35.9442 48.7886 37.0247C47.2995 42.056 45.8153 47.0822 44.3262 52.1134C37.3372 53.4914 30.3483 54.8744 23.3643 56.2524C21.7213 56.5746 22.1978 58.9737 23.8408 58.6515C31.0928 57.219 38.3449 55.7865 45.592 54.3539C46.0139 54.2697 46.4557 53.9524 46.5748 53.541C47.8505 49.2335 49.1212 44.921 50.3969 40.6135C55.6783 49.5706 60.9548 58.5276 66.2362 67.4846C67.0602 68.8825 67.8891 70.2853 68.7131 71.6831C69.3336 72.734 71.0113 72.4217 71.1702 71.1973C73.1805 55.9946 75.1908 40.787 77.2061 25.5843C77.3004 24.8557 77.3997 24.132 77.494 23.4033C80.8842 30.1694 84.2794 36.9355 87.6746 43.7016C87.9079 44.1725 88.5284 44.46 89.0794 44.3361C95.6167 42.8738 102.154 41.4066 108.691 39.9443C110.319 39.5775 109.853 37.1834 108.215 37.5452Z" fill="white"/>
<path d="M124.664 210.763L122.083 246.011L113.546 304.373H106.978L102.829 250.522L100.992 206.956L124.664 210.763Z" fill="#CCD2D9"/>
<path d="M107.013 303.59V307.139L114.116 310.683L117.665 307.139L114.116 303.59H107.013Z" fill="#3B455A"/>
<path d="M78.144 202.455L80.6408 251.865L86.3541 308.586H93.08L98.55 254.844L106.537 198.281L78.144 202.455Z" fill="#CCD2D9"/>
<path d="M93.0452 307.788V311.422L85.7683 315.055L82.1299 311.422L85.7683 307.788H93.0452Z" fill="#3B455A"/>
<path d="M101.072 123.229C98.7786 123.006 96.4804 122.783 94.1871 122.555C94.1623 120.721 94.2864 118.882 94.5544 117.063C92.6434 116.394 90.4295 115.388 90.092 113.395C89.9878 112.766 90.092 112.121 90.2012 111.497C90.6479 108.899 91.0947 106.302 91.5414 103.704C91.6953 102.807 91.8591 101.88 92.3455 101.112C93.2043 99.7588 94.8671 99.1689 96.4456 98.8913C100.471 98.1874 104.864 99.0549 107.991 101.682C108.825 102.381 109.575 103.224 109.942 104.245C110.508 105.821 110.091 107.561 109.664 109.182C109.272 110.679 108.88 112.176 108.493 113.668C108.041 115.388 107.391 117.346 105.733 117.99C104.854 118.332 103.812 118.233 103.013 118.744C101.608 119.646 101.802 121.733 101.072 123.229Z" fill="#EFBFA5"/>
<path d="M117.184 96.6706C117.388 94.5491 117.492 92.7944 117.055 90.7175C116.797 89.4981 115.238 85.6664 115.715 84.5858C114.826 86.4645 112.439 86.98 110.369 87.1882C102.625 87.9614 93.9785 86.0481 86.8555 90.0185C85.555 90.7422 84.5176 91.8774 83.7085 93.1265C80.909 97.4538 80.904 103.417 83.6887 107.754C84.3141 108.726 85.0636 109.618 85.8479 110.466C87.476 112.22 89.4218 114.391 91.6555 115.041C91.7051 113.043 89.8785 106.753 91.4123 105.117C93.5665 102.817 97.478 103.268 100.273 103.665C103.861 104.175 107.356 104.141 110.979 103.719C112.146 103.585 113.332 103.442 114.414 102.991C117.005 101.91 116.916 99.501 117.149 97.0474C117.159 96.9185 117.174 96.7946 117.184 96.6706Z" fill="#3B455A"/>
<path d="M55.559 93.6915L54.7251 89.4237L56.9191 86.276L56.4873 85.473L55.4747 85.9638L56.5468 82.831L55.5938 80.3179L52.1341 79.4009L48.7289 80.8532L48.1879 84.3825L49.7316 88.3431L50.6201 94.2318L55.559 93.6915Z" fill="#EFBFA5"/>
<path d="M56.1052 90.6777L49.5431 90.2663L52.4717 126.025L80.3332 140.737L86.7514 123.373L64.7272 113.256L56.1052 90.6777Z" fill="#EBB044"/>
<path d="M131.271 78.1518L131.495 73.8096L128.879 71.004L129.191 70.1465L130.264 70.4885L128.76 67.5392L129.345 64.917L132.646 63.5241L136.22 64.4857L137.257 67.901L136.29 72.0351L136.24 77.9932L131.271 78.1518Z" fill="#EFBFA5"/>
<path d="M130.308 75.2471L136.746 73.9187L137.258 98.6534L134.726 117.772L118.261 141.902L104.785 122.426L120.435 110.941L130.308 75.2471Z" fill="#EBB044"/>
<path d="M106.522 121.46L84.7707 122.382L73.7909 164.114L64.7271 221.965L134.726 223.665L118.261 141.902L106.522 121.46Z" fill="#EBB044"/>
<path d="M214.384 106.535L213.585 102.361L215.739 99.2978L215.317 98.5097L214.33 98.9855L215.387 95.9321L214.469 93.4735L211.088 92.5714L207.762 93.9741L207.221 97.4192L208.711 101.29L209.559 107.045L214.384 106.535Z" fill="#C1796B"/>
<path d="M214.608 102.158L208.036 107.734L208.969 136.37L220.018 144.053L241.139 141.352L238.324 123.23L220.683 126.625L214.608 102.158Z" fill="#474EBB"/>
<path d="M281.926 301.746L282.75 305.528L276.203 310.916L271.691 307.937L274.55 303.347L281.097 297.959L281.926 301.746Z" fill="#3B455A"/>
<path d="M259.033 185.389L266.335 202.207L267.025 249.535L282.045 300.442L275.061 303.53L244.41 244.425L240.92 225.703L239.535 186.271L259.033 185.389Z" fill="#474EBB"/>
<path d="M223.666 189.156L223.09 238.754L232.447 302.703H239.645L244.191 243.696L254.039 184.69L223.666 189.156Z" fill="#474EBB"/>
<path d="M239.605 301.85V305.736L231.822 309.622L227.93 305.736L231.822 301.85H239.605Z" fill="#3A332D"/>
<path d="M237.838 122L256.953 121.291C256.953 121.291 268.39 131.314 274.302 157.353C280.318 183.867 273.19 222.035 273.19 222.035C273.19 222.035 221.904 215.209 213.491 214.153L226.322 161.804L237.838 122Z" fill="#474EBB"/>
<path d="M244.688 123.948C246.921 123.73 249.15 123.512 251.384 123.294C251.409 121.51 251.289 119.72 251.026 117.951C252.888 117.301 255.037 116.325 255.365 114.382C255.469 113.772 255.365 113.142 255.256 112.533C254.824 110.005 254.387 107.477 253.955 104.949C253.806 104.076 253.647 103.174 253.171 102.426C252.337 101.112 250.719 100.532 249.18 100.264C245.263 99.5804 240.99 100.423 237.952 102.981C237.143 103.66 236.408 104.483 236.051 105.474C235.5 107.006 235.907 108.701 236.319 110.277C236.701 111.735 237.078 113.187 237.46 114.644C237.897 116.32 238.533 118.223 240.146 118.853C241.005 119.185 242.017 119.091 242.792 119.586C244.167 120.459 243.978 122.491 244.688 123.948Z" fill="#C1796B"/>
<path d="M222.877 98.6882C222.832 96.9533 223.076 95.2035 223.423 93.6222C224.019 90.9059 227.225 89.6865 230.005 89.4932C236.001 89.0768 241.789 86.3605 247.646 88.4572C250.992 89.6568 255.489 89.9443 258.517 91.6296C259.783 92.3335 260.79 93.4339 261.575 94.6533C264.295 98.8666 264.305 104.666 261.594 108.884C260.984 109.831 260.259 110.694 259.495 111.521C257.911 113.232 256.02 115.343 253.846 115.973C253.796 114.03 255.578 107.913 254.084 106.317C251.717 103.789 246.361 104.661 243.417 105.281C240.211 105.955 237.346 108.22 234.17 108.701C231.881 109.048 228.963 107.923 227.022 106.738C223.974 104.884 222.957 101.821 222.877 98.6882Z" fill="#3B455A"/>
<path d="M243.109 124.36L223.011 204.636L221.363 215.164L246.4 218.456C246.4 218.456 245.413 180.015 245.74 174.89C246.068 169.765 249.781 158.681 250.352 146.735C250.679 139.825 252.878 127.418 251.339 123.378L243.109 124.36Z" fill="white"/>
<path d="M253.26 311.496H191.179C186.275 311.496 182.299 307.525 182.299 302.628V260.599C182.299 255.701 186.275 251.731 191.179 251.731H253.265C258.17 251.731 262.145 255.701 262.145 260.599V302.628C262.141 307.525 258.165 311.496 253.26 311.496Z" fill="#D34E4E"/>
<path d="M239.704 248.484C239.704 244.663 239.704 240.846 239.704 237.024C239.704 235.988 238.717 235.111 237.55 235.111C228.481 235.111 219.417 235.111 210.349 235.111C209.053 235.111 207.753 235.111 206.457 235.111C205.296 235.111 204.303 235.988 204.303 237.024C204.303 240.836 204.303 244.648 204.303 248.455C202.561 248.504 201.166 249.952 201.166 251.731H211.714C211.714 249.961 210.334 248.524 208.606 248.455C208.606 245.282 208.606 242.11 208.606 238.937C216.955 238.937 225.304 238.937 233.654 238.937C234.234 238.937 234.81 238.937 235.391 238.937C235.391 242.11 235.391 245.277 235.391 248.45H235.177C233.395 248.45 231.946 249.917 231.946 251.731H242.494C242.504 250.071 241.283 248.697 239.704 248.484Z" fill="#D34E4E"/>
<path d="M240.727 275.608C236.403 275.608 232.08 275.608 227.757 275.608C227.35 275.608 226.948 275.608 226.541 275.608C226.541 272.411 226.541 269.209 226.541 266.012C226.541 264.406 226.541 262.8 226.541 261.194C226.541 260.658 226.094 260.202 225.568 260.202C222.882 260.202 220.192 260.202 217.506 260.202C216.98 260.202 216.534 260.653 216.534 261.194C216.534 265.585 216.534 269.982 216.534 274.374C216.534 274.785 216.534 275.197 216.534 275.608C213.387 275.608 210.235 275.608 207.088 275.608C205.509 275.608 203.931 275.608 202.347 275.608C201.821 275.608 201.374 276.059 201.374 276.6C201.374 279.331 201.374 282.062 201.374 284.788C201.374 285.091 201.483 285.324 201.652 285.482C201.811 285.661 202.039 285.78 202.347 285.78C206.671 285.78 210.994 285.78 215.317 285.78C215.724 285.78 216.127 285.78 216.534 285.78C216.534 288.977 216.534 292.179 216.534 295.376C216.534 296.982 216.534 298.588 216.534 300.194C216.534 300.73 216.98 301.186 217.506 301.186C220.192 301.186 222.882 301.186 225.568 301.186C225.865 301.186 226.094 301.072 226.248 300.903C226.421 300.744 226.541 300.511 226.541 300.199C226.541 295.807 226.541 291.411 226.541 287.019C226.541 286.607 226.541 286.196 226.541 285.785C229.688 285.785 232.84 285.785 235.987 285.785C237.565 285.785 239.143 285.785 240.727 285.785C241.253 285.785 241.7 285.334 241.7 284.793C241.7 282.062 241.7 279.331 241.7 276.605C241.7 276.059 241.253 275.608 240.727 275.608Z" fill="white"/>
<path d="M78.7298 151.608C80.9188 161.695 90.8563 168.099 100.918 165.918C110.979 163.737 117.363 153.793 115.169 143.706C112.98 133.619 103.042 127.215 92.9808 129.396C82.9192 131.577 76.5408 141.52 78.7298 151.608Z" fill="#3B455A"/>
<path d="M84.4282 150.373C85.9322 157.308 92.7623 161.71 99.6768 160.213C106.591 158.716 110.979 151.88 109.475 144.945C107.971 138.011 101.141 133.609 94.2266 135.106C87.3071 136.603 82.9192 143.439 84.4282 150.373Z" fill="#CCD2D9"/>
<path d="M108.82 214.006L113.7 212.948L101.049 154.744L96.1697 155.802L108.82 214.006Z" fill="#CCD2D9"/>
<path d="M92.8616 149.015C93.3778 151.389 95.7157 152.896 98.0834 152.381C100.451 151.865 101.95 149.526 101.439 147.156C100.923 144.782 98.5848 143.275 96.2171 143.791C93.8444 144.301 92.3454 146.641 92.8616 149.015Z" fill="#3B455A"/>
<g opacity="0.13">
<path opacity="0.13" d="M95.3584 152.093L98.4409 166.28C98.4409 166.28 95.5768 166.438 93.9536 166.096L94.579 151.642L95.3584 152.093Z" fill="black"/>
</g>
<path d="M194.321 197.077C193.234 197.27 192.305 198.202 191.104 198.088C191.372 199.798 190.767 195.823 190.93 197.553C191.154 199.863 191.298 202.187 191.352 204.512C191.382 205.831 191.387 207.154 191.357 208.473C191.352 208.701 191.303 209.94 191.347 209.003C191.332 209.35 191.318 209.702 191.303 210.049C191.268 210.723 191.228 211.392 191.179 212.066C190.96 214.991 190.578 217.92 189.982 220.835C189.68 222.317 189.317 223.794 188.895 225.261C188.672 226.03 188.434 226.798 188.171 227.561C188.061 227.889 187.942 228.216 187.828 228.538C187.808 228.597 187.769 228.697 187.739 228.776C187.714 228.835 187.689 228.9 187.669 228.959C186.528 231.78 185.148 234.546 183.336 237.183C183.112 237.505 182.884 237.822 182.651 238.139C182.894 237.807 182.284 238.615 182.159 238.764C181.713 239.314 181.241 239.859 180.755 240.39C179.732 241.5 178.615 242.541 177.424 243.547C177.652 243.349 176.709 244.102 176.531 244.231C176.188 244.479 175.846 244.722 175.488 244.96C174.848 245.391 174.188 245.808 173.513 246.199C173.056 246.467 172.589 246.72 172.118 246.968C171.959 247.052 171.795 247.131 171.641 247.215C171.626 247.225 171.611 247.23 171.597 247.24C171.582 247.245 171.567 247.255 171.547 247.26C170.783 247.597 170.028 247.944 169.244 248.251C168.256 248.638 167.253 248.985 166.226 249.297C165.794 249.431 165.362 249.555 164.925 249.674C164.732 249.728 164.533 249.778 164.34 249.828C164.325 249.833 164.315 249.833 164.3 249.838C162.2 250.274 160.12 250.675 157.981 250.888C157.37 250.948 156.76 250.992 156.149 251.037C156.11 251.042 156.07 251.042 156.03 251.042C156.04 251.042 156.005 251.042 155.956 251.047C155.817 251.052 155.683 251.062 155.544 251.067C155.643 251.062 155.722 251.057 155.787 251.052C155.703 251.057 155.608 251.057 155.549 251.057C154.63 251.062 153.712 251.062 152.799 251.017C151.821 250.968 150.848 250.883 149.885 250.764C149.478 250.715 149.081 250.646 148.674 250.591C148.664 250.591 148.654 250.586 148.649 250.586C148.629 250.581 148.609 250.576 148.59 250.571C148.416 250.531 148.242 250.502 148.068 250.467C146.351 250.11 144.688 249.629 143.105 249.044C142.866 248.955 141.397 248.331 142.32 248.747C141.978 248.593 141.635 248.445 141.298 248.286C140.583 247.954 139.888 247.597 139.208 247.22C137.833 246.462 136.548 245.624 135.312 244.737C135.217 244.668 135.088 244.568 135.029 244.524C134.84 244.375 134.646 244.226 134.463 244.073C134.18 243.845 133.902 243.612 133.629 243.379C133.043 242.883 132.477 242.373 131.926 241.852C130.75 240.737 129.653 239.577 128.62 238.377C128.069 237.738 127.543 237.089 127.027 236.434C126.883 236.251 126.357 235.542 126.65 235.943C126.441 235.656 126.228 235.368 126.024 235.076C122.416 229.995 119.696 224.513 117.512 218.917C117.01 217.633 116.539 216.334 116.092 215.035C115.973 214.693 115.864 214.346 115.744 214.004C115.735 213.97 115.725 213.945 115.715 213.92C115.7 213.88 115.685 213.831 115.665 213.762C115.481 213.167 115.293 212.577 115.114 211.982C114.499 209.925 113.948 207.858 113.466 205.776C113.019 203.863 112.597 201.934 112.324 199.986C111.778 196.16 104.03 197.26 104.576 201.082C104.596 201.216 104.621 201.35 104.641 201.488C105.033 204.413 105.782 207.308 106.547 210.163C108.006 215.61 109.848 220.994 112.22 226.193C117.402 237.545 125.588 249.55 140.156 254.809C155.415 260.321 175.488 255.459 186.155 244.509C196.232 234.159 198.694 220.637 199.076 208.497C199.26 202.648 199.87 202.4 198.877 196.636C197.517 197.23 195.73 196.824 194.321 197.077ZM164.359 249.833C164.896 249.694 164.558 249.788 164.359 249.833V249.833ZM187.699 228.87C187.689 228.9 187.689 228.905 187.699 228.87V228.87Z" fill="#7FC5A3"/>
<path d="M195.686 78.935C201.265 78.0032 206.844 77.0663 212.424 76.1344C213.615 75.9361 214.796 76.7788 214.995 77.9734C217.129 90.7026 219.264 103.437 221.398 116.166C221.701 117.96 221.999 119.76 222.301 121.554C222.778 124.394 218.375 125.138 217.899 122.293C215.764 109.563 213.63 96.8293 211.495 84.1001C211.317 83.0393 211.138 81.9786 210.959 80.9178C206.115 81.7307 201.27 82.5387 196.425 83.3516C193.591 83.8225 192.846 79.4109 195.686 78.935Z" fill="#CCD2D9"/>
<path d="M190.444 86.4744L195.527 85.6218L194.048 76.7936L188.965 77.6462C186.905 77.9882 185.515 79.9363 185.862 81.9884L186.096 83.3764C186.438 85.4335 188.384 86.8214 190.444 86.4744Z" fill="#3B455A"/>
<path d="M194.956 86.4298L199.265 85.711C201.642 85.3145 203.251 83.0641 202.848 80.6897L202.58 79.0837C202.183 76.7094 199.93 75.1083 197.552 75.5049L193.249 76.2236L194.956 86.4298Z" fill="#CCD2D9"/>
<path d="M151.98 85.944C146.401 86.8759 140.821 87.8127 135.242 88.7446C134.051 88.9429 133.212 90.1226 133.41 91.3222C135.545 104.051 137.679 116.786 139.814 129.515C140.116 131.309 140.414 133.108 140.717 134.903C141.194 137.743 145.596 137.01 145.12 134.164C142.986 121.435 140.851 108.701 138.717 95.9717C138.538 94.9109 138.359 93.8502 138.186 92.7894C143.03 91.9765 147.875 91.1685 152.719 90.3556C155.559 89.8847 154.819 85.4731 151.98 85.944Z" fill="#CCD2D9"/>
<path d="M159.401 91.3717L154.318 92.2243L152.839 83.3962L157.922 82.5485C159.981 82.2015 161.927 83.5895 162.275 85.6466L162.508 87.0345C162.846 89.0817 161.456 91.0247 159.401 91.3717Z" fill="#3B455A"/>
<path d="M155.117 92.7953L150.813 93.514C148.436 93.9106 146.182 92.3095 145.785 89.9352L145.517 88.3292C145.12 85.9549 146.723 83.7094 149.101 83.3079L153.41 82.5892L155.117 92.7953Z" fill="#CCD2D9"/>
<g opacity="0.13">
<path opacity="0.13" d="M191.119 201.538C191.119 201.538 191.437 204.274 191.65 207.452L199.106 202.653L198.589 199.362L191.119 201.538Z" fill="black"/>
</g>
<path d="M223.89 121.643C225.707 129.579 226.521 137.847 226.799 145.967C227.29 160.371 225.965 176.382 217.417 188.511C208.373 201.35 190.26 206.807 175.851 200.036C162.096 193.567 153.742 179.197 148.193 165.645C145.646 159.434 143.581 153.015 141.864 146.532C140.965 143.131 140.072 139.681 139.511 136.207C139.486 136.048 139.451 135.884 139.427 135.726C138.662 131.18 145.711 129.996 146.475 134.546C146.862 136.856 147.384 139.151 147.93 141.431C148.52 143.91 149.17 146.378 149.875 148.827C150.079 149.536 150.292 150.244 150.506 150.948C150.789 151.885 150.337 150.433 150.595 151.236C150.724 151.647 150.853 152.054 150.982 152.465C151.484 154.017 152.005 155.558 152.556 157.095C154.948 163.777 157.832 170.325 161.5 176.407C161.734 176.793 161.972 177.18 162.21 177.562C161.764 176.838 162.359 177.795 162.518 178.033C163.034 178.821 163.565 179.599 164.116 180.362C165.149 181.8 166.236 183.198 167.397 184.541C167.938 185.165 168.494 185.78 169.065 186.38C169.333 186.662 169.606 186.94 169.879 187.213C170.063 187.396 170.247 187.574 170.43 187.753C170.579 187.902 171.185 188.447 170.51 187.837C171.765 188.972 173.071 190.048 174.456 191.019C175.106 191.475 175.771 191.907 176.451 192.313C176.774 192.507 177.102 192.685 177.424 192.873C176.546 192.368 177.94 193.131 178.169 193.24C179.668 193.959 181.231 194.554 182.83 195.005C182.989 195.049 183.157 195.089 183.316 195.139C184.145 195.391 182.542 194.995 183.396 195.158C183.773 195.233 184.145 195.317 184.517 195.382C185.411 195.54 186.309 195.654 187.213 195.728C188.057 195.793 188.895 195.808 189.739 195.818C189.963 195.818 190.608 195.778 189.734 195.823C189.918 195.813 190.102 195.808 190.285 195.793C190.846 195.748 191.402 195.709 191.958 195.649C193.909 195.426 195.795 194.98 197.691 194.494C197.86 194.45 198.366 194.276 197.587 194.529C197.81 194.455 198.029 194.385 198.252 194.311C198.644 194.177 199.031 194.033 199.419 193.885C200.337 193.528 201.24 193.131 202.119 192.685C202.819 192.333 203.484 191.932 204.169 191.545C204.933 191.109 203.538 192.001 204.253 191.49C204.392 191.391 204.536 191.302 204.675 191.208C205.092 190.92 205.504 190.623 205.901 190.316C206.497 189.86 207.073 189.379 207.634 188.873C207.941 188.596 208.244 188.313 208.537 188.021C208.716 187.847 209.798 186.677 209.118 187.441C210.215 186.201 211.237 184.908 212.151 183.53C212.563 182.905 212.955 182.271 213.332 181.621C213.451 181.418 214.076 180.233 213.625 181.111C213.853 180.665 214.086 180.214 214.305 179.758C215.789 176.655 216.866 173.393 217.72 170.067C217.765 169.898 217.804 169.73 217.844 169.556C217.64 170.389 217.794 169.774 217.839 169.566C217.923 169.18 218.008 168.798 218.087 168.411C218.276 167.509 218.44 166.602 218.594 165.69C218.881 163.95 219.11 162.205 219.288 160.451C219.636 157.001 219.785 153.531 219.78 150.061C219.78 149.263 219.77 148.465 219.755 147.672C219.745 147.26 219.735 146.844 219.725 146.433C219.755 147.543 219.71 146.076 219.7 145.803C219.636 144.232 219.542 142.665 219.422 141.099C219.209 138.338 218.921 135.577 218.554 132.831C218.127 129.624 217.531 126.461 216.946 123.279C216.916 123.125 216.881 122.972 216.846 122.818C216.414 120.93 217.953 119.001 219.78 118.699C221.775 118.367 223.458 119.75 223.89 121.643Z" fill="#7FC5A3"/>
<path d="M159.043 258.309L159.038 258.284C159.257 258.23 159.361 258.2 159.371 258.2H159.386L159.391 258.215C159.391 258.22 159.391 258.225 159.381 258.23C159.381 258.23 159.376 258.23 159.371 258.23C159.332 258.24 159.247 258.264 159.043 258.309Z" fill="#A0A2A5"/>
<path d="M185.758 234.337L185.734 234.328L185.744 234.298L185.768 234.313L185.758 234.337Z" fill="#A0A2A5"/>
<path d="M188.861 188.665V188.635C188.926 188.63 188.971 188.625 188.986 188.625V188.655L188.861 188.665Z" fill="#A0A2A5"/>
<path d="M195.865 190.261L195.855 190.236C195.909 190.221 196.083 190.162 196.093 190.162H196.107L196.112 190.177C196.112 190.182 196.112 190.187 196.102 190.192C196.102 190.192 196.102 190.192 196.097 190.192C196.068 190.202 196.008 190.221 195.865 190.261Z" fill="#A0A2A5"/>
<path d="M213.59 168.511L213.565 168.506C213.565 168.506 213.565 168.506 213.565 168.501C213.565 168.496 213.565 168.496 213.565 168.491C213.575 168.451 213.585 168.402 213.605 168.327C213.605 168.317 213.61 168.307 213.61 168.302L213.635 168.198V168.193L213.66 168.198C213.645 168.248 213.635 168.292 213.625 168.332C213.62 168.392 213.605 168.451 213.59 168.511Z" fill="#A0A2A5"/>
<path d="M213.575 168.575L213.55 168.57C213.55 168.57 213.55 168.56 213.555 168.545L213.58 168.55C213.575 168.565 213.575 168.575 213.575 168.575Z" fill="#A0A2A5"/>
<path d="M188.97 191.441V191.411H188.99C189.109 191.406 189.158 191.401 189.163 191.401V191.431C189.143 191.431 189.124 191.431 189.104 191.436C189.069 191.436 189.02 191.436 188.97 191.441Z" fill="#A0A2A5"/>
<path d="M224.441 166.706L219.963 168.124L216.315 166.156L215.506 166.716L216.156 167.737L212.662 166.974L210.081 168.302L209.525 172.119L211.495 175.584L215.352 175.732L219.412 173.601L225.627 171.931L224.441 166.706Z" fill="#C1796B"/>
<path d="M220.634 167.018C227.593 165.388 234.547 163.762 241.506 162.131C243.377 161.695 245.323 161.601 247.195 161.144C249.935 160.485 250.684 160.252 251.066 157.645C252.183 150.086 250.764 142.244 251.905 134.799C254.655 134.526 257.306 133.877 260.11 133.911C264.692 133.971 264.295 137.119 264.553 140.623C264.861 144.782 265.039 148.951 265.069 153.119C265.094 156.574 266.236 171.559 261.153 172.654C257.509 173.452 220.812 175.4 220.827 176.154C220.817 175.856 220.634 167.018 220.634 167.018Z" fill="#474EBB"/>
</svg>
