<svg width="366" height="332" viewBox="0 0 366 332" fill="none" xmlns="http://www.w3.org/2000/svg">
<path d="M348.884 285.353H51.3377C41.9269 285.353 34.2251 288.878 34.2251 293.185C34.2251 296.168 37.9189 298.775 43.314 300.096H17.1126C7.7018 300.092 0 303.616 0 307.924C0 312.232 7.7018 315.756 17.1126 315.756H26.2436C23.6955 317.123 22.1475 318.896 22.1475 320.824V323.957C22.1475 328.264 29.8493 331.789 39.26 331.789H332.38C341.791 331.789 349.493 328.264 349.493 323.957V320.824C349.493 316.516 341.791 312.992 332.38 312.992L312.452 313.165C313.969 313.165 316.437 312.615 318.088 311.514C320.989 309.582 321.115 306.642 319.697 304.208C318.778 302.63 317.306 301.378 313.659 300.906L348.888 301.013C358.298 301.013 366 297.489 366 293.181C365.996 288.878 358.295 285.353 348.884 285.353Z" fill="#F1F2F2"/>
<path d="M87.1505 307.646L87.0365 308.821L86.662 312.723L78.7499 316.105L75.3582 311.943L79.5042 308.301L79.8841 308.139L79.9329 308.621L87.1505 307.646Z" fill="#3B455A"/>
<path d="M87.552 307.591L87.1504 307.645H86.7271L79.9328 308.626L73.6214 242.284L72.8508 239.174C78.766 239.261 85.7991 239.347 92.8865 239.407L87.552 307.591Z" fill="#C1796B"/>
<path d="M119.179 239.369L117.725 256.607L103.121 301.3L95.985 300.351L95.871 301.224L95.833 301.218L101.092 255.161L96.5873 239.429C104.863 239.477 112.965 239.477 119.179 239.369Z" fill="#C1796B"/>
<path d="M103.121 301.3L103.566 301.359L106.833 305.83L102.513 309.298L95.4587 304.318L95.8712 301.224L102.839 302.15L103.121 301.3Z" fill="#3B455A"/>
<path d="M103.121 301.3L102.839 302.15L95.8711 301.224L95.9851 300.351L103.121 301.3Z" fill="#3E3D3B"/>
<path d="M69.6981 139.135C68.7809 143.449 65.3621 146.614 62.0247 149.605C64.4884 143.297 67.0444 137.737 69.4973 132.941C69.9423 135.006 70.1376 137.065 69.6981 139.135Z" fill="#8EC3CB"/>
<path d="M57.3305 238.908C57.3305 238.908 63.7829 239.038 72.851 239.168C78.7661 239.255 85.7992 239.342 92.8865 239.396C94.1184 239.407 95.3557 239.412 96.5876 239.423C104.869 239.472 112.965 239.472 119.179 239.364C123.873 239.282 127.493 239.136 129.295 238.908L114.149 160.666L114.089 160.422L110.062 144.045L104.185 120.163L89.5382 113.194C87.9753 112.944 86.5698 112.234 85.3596 111.205L84.8278 110.95C84.996 111.622 85.2022 112.245 85.4519 112.809C85.555 113.037 85.6581 113.259 85.7721 113.465C86.9931 115.687 88.8816 117.778 88.8327 120.309C88.8219 120.781 88.7459 121.241 88.6265 121.696C88.4149 122.52 88.0676 123.328 87.7637 124.124C84.5131 132.627 88.0893 142.224 93.3749 149.41C96.0829 153.09 99.6591 156.282 101.2 160.579C101.466 161.316 101.629 162.107 101.705 162.909C102.063 166.784 100.24 171 96.5007 171.634C95.6216 171.781 94.6882 171.726 93.8796 172.1C91.1174 173.379 92.3113 177.899 90.2708 180.153C88.9521 181.611 86.7163 181.66 84.7518 181.606C84.106 181.589 83.4277 181.557 82.8905 181.205C81.74 180.457 81.8539 178.793 81.5121 177.465C80.8988 175.059 78.4948 173.482 76.069 172.951C73.6433 172.42 71.1253 172.702 68.6398 172.707C65.5357 172.713 62.3611 172.252 59.626 170.789C58.5515 170.215 57.553 169.467 56.7064 168.589C51.8169 198.476 57.3305 238.908 57.3305 238.908Z" fill="#8EC3CB"/>
<path d="M84.752 110.647C83.3791 104.707 84.866 95.3265 88.8438 91.8257C90.4066 90.4492 92.192 90.1999 94.1836 90.1837C95.1279 90.1783 95.4426 90.4221 95.9256 90.3354C97.4071 92.2376 98.4002 94.5624 98.2211 96.7572C98.0692 98.6051 97.0001 100.014 96.9133 102.003C96.745 105.618 91.568 109.248 93.5541 112.836C92.1323 113.297 90.7865 113.394 89.5329 113.194L85.3544 111.205C85.1482 111.031 84.9474 110.842 84.752 110.647Z" fill="#C1796B"/>
<path d="M89.5383 113.194C87.9754 112.944 86.5698 112.234 85.3596 111.205L89.5383 113.194Z" fill="#E1CFB5"/>
<path d="M96.9132 102.003C97 100.02 98.0637 98.6052 98.2211 96.7572C98.4056 94.5624 97.4125 92.2376 95.9255 90.3355C96.1426 90.2975 96.3976 90.1946 96.7558 89.9669C97.4667 89.5226 98.1071 88.3629 98.4381 87.4199C100.283 88.5851 101.629 90.6931 101.998 93.9013C102.4 97.3913 102.394 101.071 101.195 104.561C99.9956 108.051 97.4396 111.335 94.1238 112.63C93.9284 112.706 93.7385 112.771 93.5485 112.836C91.5677 109.248 96.745 105.618 96.9132 102.003Z" fill="#C1796B"/>
<path d="M54.1233 163.695C54.4381 165.549 55.3986 167.229 56.7119 168.589C56.815 167.949 56.9235 167.315 57.0429 166.681C56.9289 167.31 56.8204 167.944 56.7119 168.589C57.5639 169.467 58.557 170.214 59.6315 170.789C62.3665 172.252 65.5412 172.707 68.6453 172.707C71.1307 172.702 73.6487 172.42 76.0745 172.951C78.5002 173.482 80.9043 175.059 81.5175 177.465C81.854 178.793 81.7454 180.457 82.8959 181.205C83.4331 181.557 84.1169 181.584 84.7573 181.606C86.7217 181.66 88.9521 181.611 90.2763 180.153C92.3167 177.899 91.1283 173.379 93.885 172.1C94.6936 171.726 95.627 171.781 96.5062 171.634C100.24 171.006 102.069 166.784 101.71 162.909C101.634 162.107 101.472 161.316 101.206 160.579C99.6645 156.282 96.0883 153.09 93.3804 149.41C88.0947 142.224 84.5185 132.627 87.7691 124.124C88.073 123.322 88.4203 122.52 88.632 121.696C88.7513 121.241 88.8273 120.781 88.8382 120.309C88.887 117.773 86.9985 115.686 85.7721 113.465C85.6581 113.259 85.5496 113.036 85.4519 112.809C85.2077 112.251 85.0015 111.622 84.8278 110.95C84.8007 110.847 84.779 110.75 84.7518 110.647C81.002 106.913 79.4988 99.9762 81.9679 94.79C82.109 94.4974 82.2555 94.2047 82.4129 93.9229C82.2555 94.2047 82.109 94.492 81.9679 94.79C79.4988 99.9762 81.002 106.913 84.7518 110.647C83.3789 104.707 84.8658 95.3265 88.8436 91.8257C90.4065 90.4492 92.1919 90.1999 94.1835 90.1837C95.1278 90.1783 95.4425 90.4221 95.9255 90.3354C96.1426 90.2975 96.3976 90.1945 96.7558 89.9669C97.4667 89.5225 98.107 88.3628 98.4381 87.4199C100.283 88.585 101.629 90.6931 101.998 93.9013C102.4 97.3912 102.394 101.071 101.195 104.561C99.9956 108.051 97.4396 111.335 94.1238 112.63C93.9285 112.706 93.7385 112.771 93.5486 112.836C93.7114 113.134 93.923 113.432 94.1944 113.73C96.0123 115.724 98.9211 116.19 101.602 116.532C101.927 116.575 102.269 116.613 102.573 116.494C103.078 116.299 103.333 115.719 103.338 115.182C103.344 114.646 103.148 114.126 103.002 113.611C101.444 108.203 104.201 102.025 104.663 96.5729C105.124 91.132 103.995 85.2089 99.6211 81.5292C98.8776 81.7352 98.1559 82.0115 97.4721 82.3529C97.4016 82.2608 97.331 82.1741 97.2605 82.0874C90.9275 74.4951 81.9896 80.9873 77.1815 86.7858C73.2146 91.5656 69.9097 97.0552 68.3956 103.119C66.9793 108.793 66.5071 117.128 67.1041 122.927C67.4514 126.314 68.7972 129.635 69.5027 132.947C69.9423 135.011 70.143 137.071 69.6981 139.141C68.7809 143.454 65.3621 146.619 62.0246 149.611C61.7207 150.391 61.4168 151.177 61.1184 151.979C60.8199 152.781 60.5214 153.588 60.223 154.412C60.033 154.943 59.8485 155.48 59.6694 156.032C59.8485 155.485 60.033 154.943 60.223 154.412C60.5214 153.588 60.8199 152.775 61.1184 151.979C61.4168 151.177 61.7207 150.391 62.0246 149.611C61.5634 150.023 61.1021 150.434 60.6517 150.846C56.9344 154.222 53.2767 158.747 54.1233 163.695ZM87.4164 88.5362C87.9102 88.2111 88.4149 87.9185 88.9304 87.6583C88.4149 87.9185 87.9102 88.2111 87.4164 88.5362Z" fill="#3B455A"/>
<path d="M201.375 135.935L116.885 122.145L98.5657 234.072L183.056 247.862L201.375 135.935Z" fill="#3B455A"/>
<g opacity="0.26">
<path opacity="0.26" d="M105.666 230.292L106.931 230.498L181.174 244.972L196.537 138.805L192.907 139.227L105.666 230.292Z" fill="#040909"/>
</g>
<path d="M196.536 138.805L120.566 126.405L103.618 229.957L179.587 242.357L196.536 138.805Z" fill="#F7F7F7"/>
<g opacity="0.05">
<path opacity="0.05" d="M120.216 125.945L174.857 134.86L112.656 171.591L120.216 125.945Z" fill="black"/>
</g>
<g opacity="0.12">
<path opacity="0.12" d="M175.137 134.751L142.14 129.365L141.637 132.44L174.633 137.826L175.137 134.751Z" fill="black"/>
</g>
<path d="M169.897 124.346L169.387 124.265L169.442 123.924C169.968 120.694 167.369 117.583 163.635 116.976L158.713 116.174C154.979 115.567 151.523 117.686 150.996 120.916L150.942 121.257L150.432 121.176C146.698 120.569 143.241 122.688 142.715 125.918L141.646 132.448L174.64 137.835L175.709 131.305C176.23 128.069 173.631 124.953 169.897 124.346ZM164.487 123.604L155.793 122.184C154.903 122.038 154.296 121.198 154.442 120.314C154.589 119.431 155.43 118.83 156.32 118.976L165.013 120.396C165.903 120.542 166.511 121.382 166.365 122.265C166.218 123.143 165.372 123.745 164.487 123.604Z" fill="#BEC6CC"/>
<g opacity="0.47">
<g opacity="0.47">
<path opacity="0.47" d="M137.055 158.818C133.337 158.211 129.62 157.604 125.903 156.997C125.588 156.948 125.279 157.165 125.23 157.479C124.627 161.17 124.02 164.86 123.417 168.551C123.368 168.865 123.591 169.169 123.906 169.223C127.623 169.83 131.34 170.437 135.058 171.044C135.226 171.071 135.367 171.033 135.476 170.951C135.481 170.946 135.492 170.941 135.497 170.935C135.503 170.93 135.508 170.93 135.508 170.93C135.622 170.848 135.703 170.729 135.736 170.561C136.338 166.871 136.946 163.18 137.549 159.49C137.592 159.175 137.369 158.867 137.055 158.818ZM134.662 169.792C131.329 169.25 128.003 168.702 124.671 168.161C125.214 164.855 125.751 161.549 126.293 158.243C129.625 158.785 132.952 159.333 136.284 159.875C135.747 163.18 135.204 166.486 134.662 169.792Z" fill="#C0C4C9"/>
</g>
<g opacity="0.47">
<path opacity="0.47" d="M133.707 179.286C129.989 178.679 126.272 178.072 122.555 177.465C122.24 177.417 121.93 177.633 121.882 177.948C121.279 181.638 120.677 185.329 120.069 189.019C120.02 189.333 120.243 189.637 120.558 189.691C124.275 190.298 127.992 190.905 131.709 191.512C131.878 191.539 132.019 191.501 132.127 191.42C132.133 191.414 132.144 191.409 132.149 191.404C132.154 191.398 132.16 191.398 132.16 191.393C132.268 191.317 132.355 191.198 132.382 191.024C132.985 187.334 133.587 183.643 134.195 179.953C134.244 179.649 134.021 179.34 133.707 179.286ZM131.313 190.266C127.981 189.724 124.655 189.176 121.323 188.634C121.865 185.329 122.403 182.023 122.945 178.717C126.277 179.259 129.604 179.806 132.936 180.348C132.399 183.654 131.856 186.96 131.313 190.266Z" fill="#C0C4C9"/>
</g>
<g opacity="0.47">
<path opacity="0.47" d="M130.358 199.76C126.641 199.153 122.924 198.546 119.206 197.939C118.892 197.89 118.582 198.107 118.533 198.421C117.931 202.112 117.329 205.802 116.721 209.493C116.672 209.807 116.894 210.111 117.209 210.165C120.927 210.772 124.644 211.379 128.361 211.986C128.529 212.013 128.671 211.975 128.779 211.894C128.785 211.888 128.795 211.883 128.801 211.877C128.806 211.872 128.812 211.872 128.812 211.866C128.92 211.791 129.007 211.671 129.034 211.498C129.636 207.807 130.239 204.117 130.847 200.427C130.896 200.118 130.673 199.809 130.358 199.76ZM127.965 210.739C124.633 210.197 121.306 209.65 117.974 209.108C118.517 205.802 119.054 202.497 119.597 199.191C122.929 199.733 126.256 200.28 129.588 200.822C129.05 204.122 128.508 207.428 127.965 210.739Z" fill="#C0C4C9"/>
</g>
</g>
<path d="M128.974 161.798L131.677 161.37L132.686 164.145L146.367 157.376L147.745 157.891L131.606 167.163L128.974 161.798Z" fill="#D34E4E"/>
<path d="M124.611 182.635L127.314 182.207L128.323 184.982L142.004 178.219L143.382 178.733L127.243 188L124.611 182.635Z" fill="#D34E4E"/>
<path d="M121.209 201.976L123.911 201.548L124.921 204.323L138.601 197.554L139.98 198.069L123.841 207.341L121.209 201.976Z" fill="#D34E4E"/>
<g opacity="0.32">
<path opacity="0.32" d="M176.129 211.847L136.781 205.424L135.875 210.96L175.223 217.382L176.129 211.847Z" fill="#8EC3CB"/>
</g>
<g opacity="0.32">
<path opacity="0.32" d="M179.679 190.165L140.331 183.743L139.425 189.278L178.773 195.7L179.679 190.165Z" fill="#8EC3CB"/>
</g>
<g opacity="0.32">
<path opacity="0.32" d="M183.222 168.483L143.874 162.06L142.968 167.596L182.316 174.018L183.222 168.483Z" fill="#8EC3CB"/>
</g>
<path d="M227.251 11.5132C227.115 11.8059 226.762 11.9359 226.469 11.795L203.563 1.11919C203.27 0.983706 203.14 0.631457 203.281 0.338819C203.416 0.046182 203.769 -0.0838771 204.062 0.0570223L226.968 10.7329C227.261 10.8683 227.386 11.2152 227.251 11.5132Z" fill="#3B455A"/>
<path d="M231.315 11.7029L230.034 14.4396L217.808 8.74402C217.054 8.39177 216.723 7.49219 217.075 6.73892C217.428 5.98565 218.329 5.65508 219.083 6.00733L231.315 11.7029Z" fill="#8EC3CB"/>
<path d="M330.217 55.2408L328.475 58.552L313.753 50.8405L308.489 60.8606L323.211 68.5721L321.469 71.8832C320.764 73.2217 321.285 74.8746 322.625 75.5791C323.966 76.2836 325.621 75.7633 326.326 74.4248L335.069 57.7824C335.774 56.4439 335.253 54.7911 333.913 54.0866C332.578 53.3821 330.923 53.9023 330.217 55.2408Z" fill="#474EBB"/>
<g opacity="0.12">
<path opacity="0.12" d="M316.906 65.261L322.17 55.2463L326.104 57.3056L317.986 65.83L316.906 65.261Z" fill="black"/>
</g>
<path d="M325.811 48.315L313.286 72.1541C312.901 72.8857 311.989 73.1729 311.256 72.7881L305.466 69.7588L319.386 43.2589L325.176 46.2882C325.909 46.673 326.196 47.578 325.811 48.315Z" fill="#3B455A"/>
<path d="M324.639 36.1164C323.412 35.5691 321.969 36.1381 321.345 37.3249L320.324 39.2704C319.689 40.4843 318.192 40.9504 316.976 40.3109L250.043 5.24865C249.234 4.82595 248.306 4.70131 247.416 4.89098L228.254 8.99332C227.891 9.06919 227.581 9.30763 227.413 9.63279L225.427 13.4371C225.259 13.7622 225.242 14.1524 225.384 14.4884L232.927 32.4747C233.279 33.3093 233.909 33.9975 234.712 34.4148L301.656 69.4825C302.872 70.1165 303.339 71.6122 302.698 72.8261L301.678 74.7716C301.054 75.9584 301.407 77.4649 302.552 78.164C303.811 78.9281 305.428 78.4675 306.101 77.1886L325.854 39.5847C326.527 38.3058 325.985 36.7125 324.639 36.1164Z" fill="#8EC3CB"/>
<g opacity="0.17">
<path opacity="0.17" d="M250.141 9.09631C249.37 8.69529 248.507 8.52729 247.704 8.63026L230.344 10.7871C230.013 10.8305 229.747 11.0039 229.611 11.264L228.032 14.2933C227.896 14.5534 227.907 14.8732 228.059 15.1658L236.167 30.5889C236.541 31.3042 237.171 31.9166 237.936 32.3176L301.798 65.7703L250.141 9.09631Z" fill="#DBE8EB"/>
</g>
<path d="M270.545 41.8554L266.079 50.3527L264.445 49.4965L268.912 40.9992C268.955 40.9125 269.058 40.88 269.145 40.9287L270.474 41.6224C270.556 41.6658 270.588 41.7687 270.545 41.8554Z" fill="#3B455A"/>
<path d="M247.753 29.9169L243.286 38.4142L241.653 37.558L246.119 29.0607C246.163 28.974 246.266 28.9414 246.353 28.9902L247.682 29.6839C247.764 29.7272 247.796 29.8302 247.753 29.9169Z" fill="#3B455A"/>
<path d="M293.332 53.7939L288.866 62.2912L287.232 61.435L291.698 52.9377C291.742 52.851 291.845 52.8184 291.932 52.8672L293.261 53.5609C293.348 53.6042 293.381 53.7072 293.332 53.7939Z" fill="#3B455A"/>
<path d="M279.591 51.9405L277.328 56.2433L275.988 55.5443L278.251 51.236C278.289 51.1656 278.37 51.1385 278.441 51.1764L279.532 51.7454C279.597 51.7834 279.624 51.8701 279.591 51.9405Z" fill="#3B455A"/>
<path d="M256.799 40.002L254.536 44.3103L253.196 43.6112L255.459 39.3084C255.497 39.2379 255.578 39.2108 255.648 39.2487L256.739 39.8178C256.81 39.8449 256.837 39.9316 256.799 40.002Z" fill="#3B455A"/>
<path d="M253.657 205.19L284.519 193.859L278.159 247.85L281.843 294.428L282.169 297.393L276.107 297.55L261.971 253.947L254.775 209.737L253.657 205.19Z" fill="#EFBFA5"/>
<path d="M276.107 297.55L282.418 297.393L284.036 302.714L283.873 302.758L283.916 302.763L273.475 308.941L268.51 309.494L267.88 303.825L269.221 302.844L276.107 297.55Z" fill="#3B455A"/>
<path d="M232.634 206.117L242.114 300.731L248.214 301.625L254.145 248.923L264.782 199.213L232.634 206.117Z" fill="#EFBFA5"/>
<path d="M241.913 300.709L233.822 305.288L234.576 309.103L249.039 306.925L248.187 301.435L241.913 300.709Z" fill="#3B455A"/>
<path d="M218.166 229.333C216.212 227.978 216.169 225.621 216.174 223.258C216.18 218.825 216.978 214.289 217.998 209.981C219.935 201.895 222.133 192.162 223.099 181.687C225.595 154.613 234.159 136.448 234.159 136.448L236.921 129.088C237.469 128.129 238.039 127.186 238.636 126.254C242.087 120.846 248.078 111.66 254.482 110.154C254.617 110.121 254.748 110.094 254.883 110.061C261.618 108.587 270.252 109.27 276.341 112.538C277.497 113.161 278.522 113.985 279.542 114.809C282.522 117.204 284.948 118.505 286.228 122.157C287.341 125.327 287.601 128.79 288.214 132.08C289.463 138.762 290.206 145.519 291.205 152.239C293.071 164.839 294.661 177.482 296.658 190.06C297.69 196.536 298.726 203.022 299.209 209.563C299.638 215.346 304.864 221.22 307.8 226.406C308.82 228.211 294.146 232.882 292.833 233.191C286.744 234.606 280.27 234.242 273.991 234.275C260.24 234.335 246.483 233.912 232.759 233.007C228.2 232.703 222.578 231.836 218.535 229.571C218.41 229.495 218.285 229.414 218.166 229.333Z" fill="#D34E4E"/>
<path d="M262.437 109.324C262.437 109.324 270.187 107.238 271.256 124.693C272.325 142.149 274.11 186.32 276.607 198.432C279.103 210.544 282.847 234.302 282.847 234.302L259.127 235.126L232.015 232.991C232.015 232.991 241.289 215.893 242.717 203.781C244.144 191.669 241.647 146.072 247.709 128.974C253.771 111.877 255.046 109.633 262.437 109.324Z" fill="white"/>
<path d="M227.375 148.202L215.008 146.3V135.656L244.855 112.939L254.487 110.089L249.853 122.553L227.375 148.202Z" fill="#D34E4E"/>
<path d="M251.633 95.4946C250.461 99.0117 252.159 102.756 253.646 105.959C254.965 108.799 255.426 110.668 252.072 111.433C250.184 111.866 246.83 112.668 245.175 111.227C243.921 110.132 244.627 106.756 245.235 105.412C245.701 104.388 246.933 103.867 247.373 102.827C247.552 102.399 247.579 101.922 247.584 101.461C247.611 99.5645 247.346 97.6677 246.808 95.8523C246.439 94.6167 245.945 93.4082 245.837 92.1239C245.674 90.2651 246.993 88.0974 247.682 86.3904C248.968 83.2147 253.451 78.9498 257.201 81.4426C258.053 82.0117 258.552 82.9709 258.97 83.9084C259.219 84.4666 259.453 85.0518 259.463 85.6642C259.491 88.1028 257.26 88.5147 255.719 89.6744C253.82 91.1159 252.382 93.2511 251.633 95.4946Z" fill="#3B455A"/>
<path d="M258.769 109.211C255.513 108.447 252.973 105.715 251.747 102.61C250.526 99.5048 250.461 96.0582 250.797 92.7363C251.92 81.6865 265.688 82.3964 270.35 90.8666C274.414 98.2476 268.228 111.438 258.769 109.211Z" fill="#EFBFA5"/>
<path d="M258.769 108.018C258.823 109.276 258.877 110.538 258.932 111.796C258.937 111.98 258.953 112.18 259.084 112.316C259.23 112.468 259.469 112.468 259.675 112.462C260.701 112.424 261.732 112.392 262.758 112.354C263.268 112.338 263.794 112.316 264.244 112.072C265.227 111.546 265.428 110.213 265.276 109.113C265.118 108.013 264.722 106.902 264.955 105.813C262.834 106.859 260.82 104.496 258.698 105.542L258.769 108.018Z" fill="#EFBFA5"/>
<path d="M263.208 73.5794C266.822 74.8041 269.139 78.4567 272.667 79.9144C274.691 80.749 277.084 80.8574 278.734 82.2935C282.435 85.5125 279.461 92.2648 282.5 96.1125C283.129 96.9145 283.982 97.516 284.616 98.3127C285.984 100.036 286.163 102.382 286.288 104.577C286.315 105.07 286.32 105.607 286.234 106.105C285.756 111.172 278.392 110.847 275.467 110.528C272.254 110.17 273.329 108.392 273.329 108.392L273.443 108.251C273.752 106.192 272.906 104.003 271.283 102.691C270.681 102.204 269.97 101.819 269.546 101.174C268.597 99.7216 269.503 97.8032 269.362 96.0745C268.797 89.1163 257.108 90.6065 253.809 85.6534C249.771 79.5784 256.381 71.2654 263.208 73.5794Z" fill="#3B455A"/>
<path d="M291.948 64.047L287.476 57.7932L284.714 59.587L286.831 64.551L285.132 64.7948L289.615 69.6776L292.735 68.1981L291.948 64.047Z" fill="#EFBFA5"/>
<path d="M273.003 117.41L296.414 98.5294L287.726 69.6775L296.36 66.1659L312.461 104.209L289.012 133.743L273.003 117.41Z" fill="#D34E4E"/>
<path d="M222.024 138.68L221.987 139.287L239.103 144.517L238.69 150.814L215.008 144.75L222.024 138.68Z" fill="#D34E4E"/>
<path d="M257.597 196.812L219.29 206.095C205.12 209.526 190.881 200.979 187.483 186.998C184.086 173.016 192.818 158.899 206.982 155.469L245.197 146.208L257.597 196.812Z" fill="#E0E0E0"/>
<path d="M258.948 196.487L302.02 185.963C315.039 182.809 323.032 169.711 319.874 156.71L319.011 153.155C315.853 140.154 302.736 132.177 289.723 135.331L246.646 145.855L258.948 196.487Z" fill="#3B455A"/>
<path d="M236.356 170.778C233.111 171.564 229.866 172.35 226.621 173.136C226.317 173.211 226.013 173.282 225.709 173.358C225.145 171.028 224.575 168.692 224.011 166.362C223.728 165.191 223.441 164.02 223.159 162.85C223.066 162.46 222.649 162.21 222.252 162.308C220.234 162.796 218.22 163.283 216.202 163.771C215.805 163.869 215.55 164.281 215.648 164.671C216.424 167.874 217.206 171.076 217.982 174.279C218.052 174.577 218.128 174.881 218.199 175.179C215.838 175.753 213.472 176.322 211.111 176.896C209.928 177.184 208.74 177.471 207.557 177.758C207.161 177.856 206.906 178.268 207.003 178.658C207.486 180.647 207.969 182.635 208.452 184.63C208.507 184.852 208.631 184.998 208.783 185.085C208.93 185.188 209.125 185.231 209.359 185.177C212.604 184.391 215.849 183.605 219.094 182.82C219.398 182.744 219.702 182.673 220.006 182.597C220.57 184.928 221.14 187.263 221.704 189.594C221.987 190.764 222.274 191.935 222.556 193.105C222.649 193.496 223.066 193.745 223.463 193.647C225.481 193.16 227.495 192.672 229.513 192.184C229.736 192.13 229.888 192.005 229.975 191.853C230.078 191.707 230.127 191.512 230.067 191.284C229.291 188.082 228.509 184.879 227.733 181.676C227.663 181.378 227.587 181.075 227.516 180.777C229.877 180.202 232.243 179.633 234.604 179.059C235.787 178.772 236.975 178.484 238.158 178.197C238.554 178.1 238.809 177.688 238.712 177.298C238.229 175.309 237.746 173.32 237.263 171.326C237.165 170.935 236.753 170.681 236.356 170.778Z" fill="#3B455A"/>
<path d="M134.07 171.77C135.025 171.472 142.112 173.249 141.64 173.867C141.13 174.544 140.49 175.076 139.844 175.655C141.863 176.886 148.185 179.026 143.675 181.313C141.722 182.305 136.517 180.912 134.976 179.59C134.944 179.557 134.906 179.53 134.873 179.498L132.366 172.805C132.746 172.371 133.267 172.019 134.07 171.77Z" fill="#C1796B"/>
<path d="M104.201 152.326L132.328 172.724L132.36 172.81L134.868 179.503L135.519 181.243C120.373 179.281 119.054 175.26 104.755 169.087L104.201 152.326Z" fill="#8EC3CB"/>
</svg>
