<svg width="120" height="120" viewBox="0 0 120 120" fill="none" xmlns="http://www.w3.org/2000/svg">
<g clip-path="url(#clip0)">
<path d="M37.8016 0.248177C55.6552 -0.40151 73.5061 0.22474 91.357 2.12435C96.3227 2.65146 100.211 6.6281 100.607 11.6043C103.18 43.867 103.18 76.1297 100.607 108.395C100.211 113.371 96.3227 117.348 91.357 117.875C64.7306 120.708 38.1019 120.708 11.4729 117.875C6.50976 117.348 2.61913 113.371 2.22257 108.395C0.301866 84.2969 -0.186103 60.2018 0.763819 36.1066" fill="#F5F0F0"/>
<path d="M0.763824 36.1065C9.53929 35.7908 18.3145 35.1646 27.0926 34.2304C32.0557 33.7033 35.9463 29.7266 36.3429 24.7504C36.9952 16.5829 37.4805 8.4156 37.8016 0.2481C29.0262 0.563803 1.08468 27.939 0.763824 36.1065Z" fill="#E8DED8"/>
<path d="M69.1322 99.1993C69.1322 99.1993 59.9112 109.306 46.7119 105.026C42.4319 91.8273 52.5389 82.606 52.5389 82.606L69.1322 99.1993Z" fill="#365E7D"/>
<path d="M46.7313 105.032C46.7245 105.032 46.7194 105.03 46.7126 105.026C42.4282 91.8288 52.5382 82.6066 52.5382 82.6066L58.3041 88.3724C58.3041 88.3724 48.5133 97.8902 46.7313 105.032Z" fill="#2B4D66"/>
<path d="M62.5748 72.6552L79.1742 89.2546L117.668 50.7603C120.386 48.0425 120.386 43.636 117.668 40.9182L110.911 34.161C108.193 31.4432 103.787 31.4432 101.069 34.161L62.5748 72.6552Z" fill="#365E7D"/>
<path d="M111.725 34.9749L68.3097 78.3906L62.5746 72.6554L101.069 34.161C103.787 31.4432 108.193 31.4432 110.911 34.161L111.725 34.9749Z" fill="#2B4D66"/>
<path d="M63.7568 102.605C58.3844 98.2891 53.5404 93.4448 49.2241 88.0727C47.7408 86.2265 47.8087 83.5856 49.3737 81.8083C56.324 73.9148 63.746 66.4929 71.6395 59.5425C73.417 57.9773 76.0577 57.9096 77.9041 59.3929C83.2765 63.7092 88.1205 68.5535 92.4368 73.9256C93.9201 75.7718 93.8522 78.4127 92.2872 80.1902C85.3369 88.0837 77.9149 95.5057 70.0214 102.456C68.2439 104.021 65.6029 104.089 63.7568 102.605Z" fill="#DD636E"/>
<path d="M54.7008 94.3073C52.7873 92.3153 50.9644 90.2364 49.2234 88.072C47.7401 86.2268 47.8085 83.5846 49.3736 81.8078C56.324 73.9153 63.7455 66.4938 71.64 59.5415C73.4168 57.9764 76.0575 57.9098 77.9041 59.3913C80.0702 61.1306 82.1508 62.9587 84.1427 64.8721C82.6987 64.698 81.1966 65.1281 80.0376 66.1507C71.5083 73.6593 63.491 81.6764 55.9826 90.2057C54.9619 91.3628 54.5301 92.8633 54.7008 94.3073Z" fill="#DA4A54"/>
<path d="M93.5397 39.9067L107.681 54.0474L112.407 49.321L98.2662 35.1802C97.2457 34.1598 95.591 34.1598 94.5705 35.1802L93.5395 36.2113C92.5193 37.2315 92.5193 38.8862 93.5397 39.9067Z" fill="#FFD064"/>
<path d="M98.6655 45.034L93.5381 39.9066C92.5174 38.8858 92.5191 37.2319 93.5398 36.2112L94.5708 35.1801C95.5915 34.1594 97.2455 34.1578 98.2662 35.1785L103.394 40.3059C102.373 39.2852 100.717 39.2852 99.6966 40.3059L98.6655 41.3369C97.6448 42.3576 97.6448 44.0133 98.6655 45.034Z" fill="#EBB044"/>
<path d="M83.8289 81.6578C87.0328 84.8617 92.2275 84.8617 95.4316 81.6578L117.97 59.1196C119.139 57.9501 119.139 56.0535 117.97 54.884L108.485 45.3993L83.8289 70.0553C80.625 73.2592 80.625 78.4539 83.8289 81.6578Z" fill="#FFD064"/>
<path d="M85.676 71.9023C82.7859 74.7924 82.5035 79.3027 84.8261 82.5092C84.476 82.2559 84.143 81.9732 83.8289 81.6594C80.6247 78.4552 80.6247 73.2594 83.8289 70.0552L108.486 45.4008L110.333 47.2479L85.676 71.9023Z" fill="#EBB044"/>
<path d="M46.7119 109.338C48.8678 109.338 50.6156 107.591 50.6156 105.435C50.6156 103.279 48.8678 101.531 46.7119 101.531C44.5559 101.531 42.8081 103.279 42.8081 105.435C42.8081 107.591 44.5559 109.338 46.7119 109.338Z" fill="#FFD064"/>
<path d="M48.1633 109.058C47.7143 109.239 47.2242 109.338 46.7123 109.338C44.5563 109.338 42.8081 107.59 42.8081 105.433C42.8081 103.28 44.5563 101.532 46.7123 101.532C47.2242 101.532 47.7143 101.631 48.1633 101.812C46.7292 102.386 45.7151 103.792 45.7151 105.433C45.7151 107.075 46.7292 108.483 48.1633 109.058Z" fill="#EBB044"/>
<path d="M69.9644 41.9116L63.5559 32.8017L69.0253 25.038C69.6014 24.2205 69.4057 23.0908 68.588 22.5147C67.7698 21.9386 66.6403 22.1348 66.0647 22.9523L61.3425 29.6554L58.2752 25.2954C62.1098 24.0098 64.8769 20.4323 64.8769 16.2281C64.8769 10.9467 60.5119 6.65013 55.1468 6.65013H47.4829C47.0018 6.65013 46.5403 6.84162 46.2004 7.18263C45.8606 7.52341 45.6705 7.9856 45.6719 8.46677C45.6719 8.46677 45.678 10.3886 45.6834 12.3773C45.6764 12.4427 45.6719 12.5088 45.6719 12.5763V35.9845C45.6719 36.9846 46.4826 37.7953 47.4827 37.7953C48.483 37.7953 49.2935 36.9846 49.2935 35.9845V25.8302C50.7337 25.822 52.766 25.8115 54.2074 25.8077L59.1265 32.8005L52.7086 41.9109C52.1325 42.7284 52.3282 43.8581 53.1459 44.4342C53.463 44.6576 53.8268 44.7647 54.1872 44.7647C54.7565 44.7647 55.3167 44.4972 55.6692 43.9966L61.3399 35.947L67.0019 43.9957C67.3544 44.4968 67.9148 44.7647 68.4846 44.7647C68.8444 44.7647 69.2081 44.6576 69.525 44.4349C70.3432 43.8593 70.5398 42.7296 69.9644 41.9116ZM49.3129 16.2281C49.3129 15.0832 49.305 12.1875 49.2994 10.2719H55.147C58.458 10.2719 61.2553 12.9996 61.2553 16.2281C61.2553 19.4566 58.4578 22.1843 55.147 22.1843C53.8122 22.1843 51.1359 22.1979 49.3371 22.2079C49.3268 20.3643 49.3129 17.5891 49.3129 16.2281Z" fill="#DD636E"/>
<path d="M56.8303 55.0946H11.5458C10.5455 55.0946 9.73499 54.2839 9.73499 53.2838C9.73499 52.2837 10.5457 51.473 11.5458 51.473H56.8303C57.8306 51.473 58.6411 52.2837 58.6411 53.2838C58.6413 54.2839 57.8306 55.0946 56.8303 55.0946Z" fill="#7898D5"/>
<path d="M46.553 65.425H11.5458C10.5455 65.425 9.73499 64.6143 9.73499 63.6142C9.73499 62.6141 10.5457 61.8034 11.5458 61.8034H46.553C47.5533 61.8034 48.3637 62.6141 48.3637 63.6142C48.364 64.6143 47.5533 65.425 46.553 65.425Z" fill="#7898D5"/>
<path d="M28.8888 108.087H11.5458C10.5455 108.087 9.73499 107.276 9.73499 106.276C9.73499 105.276 10.5457 104.466 11.5458 104.466H28.8888C29.8891 104.466 30.6996 105.276 30.6996 106.276C30.6998 107.276 29.8891 108.087 28.8888 108.087Z" fill="#7898D5"/>
</g>
<defs>
<clipPath id="clip0">
<rect width="120" height="120" fill="white"/>
</clipPath>
</defs>
</svg>
