<svg width="367" height="48" viewBox="0 0 367 48" fill="none" xmlns="http://www.w3.org/2000/svg">
<path d="M349.634 0.851074H52.0876C42.6769 0.851074 34.9751 4.37547 34.9751 8.68308C34.9751 11.6662 38.6689 14.273 44.064 15.5937H17.8625C8.45179 15.5899 0.75 19.1143 0.75 23.4219C0.75 27.7295 8.45179 31.2539 17.8625 31.2539H26.9936C24.4455 32.6207 22.8974 34.3944 22.8974 36.3217V39.4545C22.8974 43.7621 30.5992 47.2865 40.01 47.2865H333.13C342.541 47.2865 350.243 43.7621 350.243 39.4545V36.3217C350.243 32.0141 342.541 28.4897 333.13 28.4897L313.201 28.6624C314.719 28.6624 317.186 28.1134 318.838 27.0115C321.739 25.0804 321.865 22.1396 320.447 19.7055C319.528 18.1276 318.056 16.876 314.408 16.4038L349.637 16.5113C359.048 16.5113 366.75 12.9869 366.75 8.67924C366.746 4.37547 359.044 0.851074 349.634 0.851074Z" fill="#F1F2F2"/>
</svg>
